<?xml version="1.0" encoding="utf-8"?>
<!-- Generator: Adobe Illustrator 28.1.0, SVG Export Plug-In . SVG Version: 6.00 Build 0)  -->
<svg version="1.1" id="Layer_1" xmlns="http://www.w3.org/2000/svg" xmlns:xlink="http://www.w3.org/1999/xlink" x="0px" y="0px"
	 viewBox="0 0 178.89 180" style="enable-background:new 0 0 178.89 180;" xml:space="preserve">
<style type="text/css">
	.st0{fill:none;stroke:#000000;stroke-width:0.5;stroke-linecap:square;stroke-linejoin:round;stroke-miterlimit:10;}
	.st1{fill:none;stroke:#000000;stroke-width:0.5;stroke-miterlimit:10;}
</style>
<g>
	<path class="st1" d="M91.87,118.08c0,6.78-3.39,10.17-10.18,10.17"/>
	<path class="st1" d="M102.05,107.91c6.78,0,10.18,3.39,10.18,10.17"/>
	<path class="st1" d="M112.22,128.26c0,6.78-2.38,10.17-7.12,10.17"/>
	<path class="st1" d="M71.52,128.26c-6.78,0-10.18-2.37-10.18-7.12"/>
	<path class="st1" d="M81.7,110.96c0,4.75-3.39,7.12-10.18,7.12"/>
	<path class="st1" d="M81.7,107.91c-6.78,0-10.18,2.37-10.18,7.12"/>
	<path class="st1" d="M91.87,97.73c0-10.18-10.18-10.18-10.18-3.05"/>
	<path class="st1" d="M102.05,138.43c0,6.78-3.39,10.18-10.17,10.18"/>
	<path class="st1" d="M81.7,148.61c-6.78,0-10.18-2.38-10.18-7.12"/>
	<path class="st1" d="M132.57,97.73c6.78,0,10.18-3.39,10.18-10.18"/>
	<path class="st1" d="M142.75,36.68c0-6.78-3.39-10.17-10.18-10.17"/>
	<path class="st1" d="M91.87,26.51c-6.78,0-10.18,3.39-10.18,10.17"/>
	<path class="st1" d="M61.35,138.43c-6.78,0-10.17-3.39-10.17-10.17c0-6.78,3.39-10.17,10.17-10.17"/>
	<path class="st1" d="M61.35,107.91c0-6.78,3.39-10.17,10.18-10.17"/>
	<path class="st1" d="M78.64,57.03c-4.75,0-7.12,3.39-7.12,10.17"/>
	<path class="st1" d="M71.52,77.38c0,6.78,3.39,10.17,10.18,10.17"/>
	<path class="st1" d="M81.7,67.21c0,6.78,3.39,10.17,10.18,10.17"/>
	<path class="st1" d="M112.22,87.56c6.78,0,10.17-3.39,10.17-10.17"/>
	<path class="st1" d="M91.87,57.03c0-6.78,3.39-10.17,10.17-10.17"/>
	<path class="st1" d="M91.87,57.03c0,6.78,3.39,10.17,10.17,10.17"/>
	<path class="st1" d="M125.45,77.38c4.75,0,7.12-3.39,7.12-10.17"/>
	<path class="st1" d="M132.57,57.03c0-6.78-2.37-10.17-7.12-10.17"/>
	<path class="st1" d="M102.05,43.8c0-4.75,3.39-7.12,10.18-7.12c6.78,0,10.17,3.39,10.17,10.18"/>
	<path class="st1" d="M102.05,57.03c10.18,0,10.18,10.17,0,10.17"/>
	<line class="st0" x1="94.92" y1="107.91" x2="102.05" y2="107.91"/>
	<line class="st0" x1="91.87" y1="107.91" x2="91.87" y2="118.08"/>
	<line class="st0" x1="81.7" y1="128.26" x2="71.52" y2="128.26"/>
	<line class="st0" x1="88.82" y1="107.91" x2="81.7" y2="107.91"/>
	<line class="st0" x1="91.87" y1="107.91" x2="91.87" y2="97.73"/>
	<line class="st0" x1="102.05" y1="110.96" x2="102.05" y2="138.43"/>
	<line class="st0" x1="102.05" y1="104.85" x2="102.05" y2="97.73"/>
	<line class="st0" x1="112.22" y1="118.08" x2="112.22" y2="128.26"/>
	<line class="st0" x1="105.1" y1="138.43" x2="105.1" y2="138.43"/>
	<line class="st0" x1="71.52" y1="125.2" x2="71.52" y2="121.13"/>
	<line class="st0" x1="71.52" y1="131.31" x2="71.52" y2="135.38"/>
	<line class="st0" x1="61.35" y1="121.13" x2="61.35" y2="121.13"/>
	<line class="st0" x1="81.7" y1="104.85" x2="81.7" y2="100.78"/>
	<line class="st0" x1="71.52" y1="118.08" x2="71.52" y2="118.08"/>
	<line class="st0" x1="71.52" y1="115.03" x2="71.52" y2="115.03"/>
	<line class="st0" x1="94.92" y1="97.73" x2="98.99" y2="97.73"/>
	<line class="st0" x1="88.82" y1="97.73" x2="81.7" y2="97.73"/>
	<line class="st0" x1="81.7" y1="94.68" x2="81.7" y2="94.68"/>
	<line class="st0" x1="98.99" y1="138.43" x2="71.52" y2="138.43"/>
	<line class="st0" x1="91.87" y1="148.61" x2="81.7" y2="148.61"/>
	<line class="st0" x1="71.52" y1="141.48" x2="71.52" y2="141.48"/>
	<line class="st0" x1="105.1" y1="97.73" x2="132.57" y2="97.73"/>
	<line class="st0" x1="142.75" y1="87.56" x2="142.75" y2="36.68"/>
	<line class="st0" x1="132.57" y1="26.51" x2="91.87" y2="26.51"/>
	<line class="st0" x1="81.7" y1="36.68" x2="81.7" y2="57.03"/>
	<line class="st0" x1="102.05" y1="97.73" x2="102.05" y2="90.61"/>
	<line class="st0" x1="71.52" y1="118.08" x2="61.35" y2="118.08"/>
	<line class="st0" x1="71.52" y1="138.43" x2="61.35" y2="138.43"/>
	<line class="st0" x1="51.17" y1="128.26" x2="51.17" y2="128.26"/>
	<line class="st0" x1="61.35" y1="118.08" x2="61.35" y2="118.08"/>
	<line class="st0" x1="61.35" y1="115.03" x2="61.35" y2="107.91"/>
	<line class="st0" x1="71.52" y1="97.73" x2="81.7" y2="97.73"/>
	<line class="st0" x1="71.52" y1="67.21" x2="71.52" y2="77.38"/>
	<line class="st0" x1="81.7" y1="87.56" x2="102.05" y2="87.56"/>
	<line class="st0" x1="84.75" y1="57.03" x2="88.82" y2="57.03"/>
	<line class="st0" x1="81.7" y1="57.03" x2="81.7" y2="67.21"/>
	<line class="st0" x1="91.87" y1="77.38" x2="102.05" y2="77.38"/>
	<line class="st0" x1="102.05" y1="84.5" x2="102.05" y2="80.43"/>
	<line class="st0" x1="102.05" y1="87.56" x2="112.22" y2="87.56"/>
	<line class="st0" x1="122.4" y1="77.38" x2="122.4" y2="77.38"/>
	<line class="st0" x1="102.05" y1="46.86" x2="102.05" y2="46.86"/>
	<line class="st0" x1="94.92" y1="57.03" x2="102.05" y2="57.03"/>
	<line class="st0" x1="102.05" y1="67.21" x2="102.05" y2="67.21"/>
	<line class="st0" x1="102.05" y1="74.33" x2="102.05" y2="70.26"/>
	<line class="st0" x1="102.05" y1="77.38" x2="119.34" y2="77.38"/>
	<line class="st0" x1="132.57" y1="67.21" x2="132.57" y2="57.03"/>
	<line class="st0" x1="125.45" y1="46.86" x2="125.45" y2="46.86"/>
	<line class="st0" x1="122.4" y1="77.38" x2="122.4" y2="46.86"/>
	<line class="st0" x1="102.05" y1="49.91" x2="102.05" y2="53.98"/>
	<line class="st0" x1="112.22" y1="36.68" x2="112.22" y2="36.68"/>
	<line class="st0" x1="122.4" y1="46.86" x2="122.4" y2="46.86"/>
	<line class="st0" x1="102.05" y1="46.86" x2="119.34" y2="46.86"/>
	<line class="st0" x1="102.05" y1="60.08" x2="102.05" y2="64.15"/>
	<line class="st0" x1="102.05" y1="67.21" x2="102.05" y2="67.21"/>
</g>
</svg>
