<?xml version="1.0" encoding="utf-8"?>
<!-- Generator: Adobe Illustrator 28.1.0, SVG Export Plug-In . SVG Version: 6.00 Build 0)  -->
<svg version="1.1" id="Layer_1" xmlns="http://www.w3.org/2000/svg" xmlns:xlink="http://www.w3.org/1999/xlink" x="0px" y="0px"
	 viewBox="0 0 178.89 180" style="enable-background:new 0 0 178.89 180;" xml:space="preserve">
<style type="text/css">
	.st0{fill:none;stroke:#000000;stroke-width:0.5;stroke-linecap:square;stroke-linejoin:round;stroke-miterlimit:10;}
	.st1{fill:none;stroke:#000000;stroke-width:0.5;stroke-miterlimit:10;}
</style>
<g>
	<path class="st1" d="M43.7,45.9c-8.74,0-13.1,5.46-13.1,16.38"/>
	<path class="st1" d="M30.59,111.41c0,10.92,5.46,16.38,16.38,16.38"/>
	<path class="st1" d="M46.97,45.9c0-16.38,16.38-16.38,16.38-3.28"/>
	<path class="st1" d="M63.35,62.28c0,10.92,5.46,16.38,16.38,16.38"/>
	<path class="st1" d="M128.86,45.9c10.92,0,16.38,5.46,16.38,16.38"/>
	<path class="st1" d="M145.24,78.66c0,10.92-4.37,16.38-13.1,16.38"/>
	<path class="st1" d="M46.97,131.07c0,8.74,5.46,13.1,16.38,13.1"/>
	<path class="st1" d="M79.73,144.17c10.92,0,16.38-5.46,16.38-16.38"/>
	<path class="st1" d="M79.73,75.38c0-8.73,5.46-13.1,16.38-13.1s16.38,5.46,16.38,16.38"/>
	<path class="st1" d="M79.73,95.04c0,10.92,4.37,16.38,13.1,16.38"/>
	<path class="st1" d="M128.86,95.04c0-10.92-4.37-16.38-13.1-16.38"/>
	<path class="st1" d="M128.86,95.04c0,10.92-5.46,16.38-16.38,16.38"/>
	<path class="st1" d="M99.38,127.79c8.73,0,13.1-4.37,13.1-13.1"/>
	<path class="st1" d="M96.11,111.41c0-10.92,5.46-16.38,16.38-16.38"/>
	<line class="st0" x1="50.25" y1="45.9" x2="63.35" y2="45.9"/>
	<line class="st0" x1="46.97" y1="45.9" x2="46.97" y2="124.52"/>
	<line class="st0" x1="30.59" y1="62.28" x2="30.59" y2="111.41"/>
	<line class="st0" x1="46.97" y1="127.79" x2="46.97" y2="127.79"/>
	<line class="st0" x1="63.35" y1="42.63" x2="63.35" y2="42.63"/>
	<line class="st0" x1="63.35" y1="49.18" x2="63.35" y2="62.28"/>
	<line class="st0" x1="79.73" y1="78.66" x2="79.73" y2="78.66"/>
	<line class="st0" x1="63.35" y1="45.9" x2="128.86" y2="45.9"/>
	<line class="st0" x1="145.24" y1="62.28" x2="145.24" y2="78.66"/>
	<line class="st0" x1="132.14" y1="95.04" x2="132.14" y2="95.04"/>
	<line class="st0" x1="46.97" y1="127.79" x2="92.83" y2="127.79"/>
	<line class="st0" x1="63.35" y1="144.17" x2="79.73" y2="144.17"/>
	<line class="st0" x1="96.11" y1="127.79" x2="96.11" y2="127.79"/>
	<line class="st0" x1="96.11" y1="62.28" x2="96.11" y2="62.28"/>
	<line class="st0" x1="112.48" y1="78.66" x2="112.48" y2="78.66"/>
	<line class="st0" x1="79.73" y1="78.66" x2="109.21" y2="78.66"/>
	<line class="st0" x1="79.73" y1="81.93" x2="79.73" y2="95.04"/>
	<line class="st0" x1="92.83" y1="111.41" x2="92.83" y2="111.41"/>
	<line class="st0" x1="125.59" y1="95.04" x2="112.48" y2="95.04"/>
	<line class="st0" x1="115.76" y1="78.66" x2="115.76" y2="78.66"/>
	<line class="st0" x1="112.48" y1="111.41" x2="112.48" y2="111.41"/>
	<line class="st0" x1="96.11" y1="127.79" x2="96.11" y2="111.41"/>
	<line class="st0" x1="112.48" y1="114.69" x2="112.48" y2="114.69"/>
	<line class="st0" x1="112.48" y1="78.66" x2="112.48" y2="91.76"/>
	<line class="st0" x1="112.48" y1="95.04" x2="112.48" y2="95.04"/>
	<line class="st0" x1="99.38" y1="111.41" x2="112.48" y2="111.41"/>
	<line class="st0" x1="112.48" y1="98.31" x2="112.48" y2="108.14"/>
</g>
</svg>
