<?xml version="1.0" encoding="utf-8"?>
<!-- Generator: Adobe Illustrator 28.1.0, SVG Export Plug-In . SVG Version: 6.00 Build 0)  -->
<svg version="1.1" id="Layer_1" xmlns="http://www.w3.org/2000/svg" xmlns:xlink="http://www.w3.org/1999/xlink" x="0px" y="0px"
	 viewBox="0 0 178.89 180" style="enable-background:new 0 0 178.89 180;" xml:space="preserve">
<style type="text/css">
	.st0{fill:none;stroke:#000000;stroke-width:0.5;stroke-linecap:square;stroke-linejoin:round;stroke-miterlimit:10;}
	.st1{fill:none;stroke:#000000;stroke-width:0.5;stroke-miterlimit:10;}
</style>
<g>
	<path class="st1" d="M63.64,106.24c0,15.29,6.11,22.93,18.34,22.93"/>
	<path class="st1" d="M59.05,83.31c-18.34,0-18.34-22.93,0-22.93"/>
	<path class="st1" d="M86.57,78.72c0-12.23-7.64-18.34-22.93-18.34"/>
	<path class="st1" d="M132.42,83.31c15.29,0,22.93,7.64,22.93,22.93"/>
	<path class="st1" d="M155.35,129.17c0,15.29-7.64,22.93-22.93,22.93c-15.29,0-22.93-7.64-22.93-22.93"/>
	<path class="st1" d="M86.57,129.17c0,15.29-7.64,22.93-22.93,22.93"/>
	<path class="st1" d="M40.71,152.09c-15.29,0-22.93-7.64-22.93-22.93"/>
	<path class="st1" d="M17.78,60.38c0-15.29,7.64-22.93,22.93-22.93c15.29,0,22.93,6.11,22.93,18.34"/>
	<path class="st1" d="M109.5,129.17c0-22.93,22.93,0,4.59,0"/>
	<line class="st0" x1="68.22" y1="83.31" x2="86.57" y2="83.31"/>
	<line class="st0" x1="63.64" y1="83.31" x2="63.64" y2="106.24"/>
	<line class="st0" x1="81.98" y1="129.17" x2="81.98" y2="129.17"/>
	<line class="st0" x1="59.05" y1="60.38" x2="63.64" y2="60.38"/>
	<line class="st0" x1="63.64" y1="83.31" x2="63.64" y2="64.96"/>
	<line class="st0" x1="63.64" y1="60.38" x2="63.64" y2="60.38"/>
	<line class="st0" x1="86.57" y1="83.31" x2="132.42" y2="83.31"/>
	<line class="st0" x1="155.35" y1="106.24" x2="155.35" y2="129.17"/>
	<line class="st0" x1="132.42" y1="152.09" x2="132.42" y2="152.09"/>
	<line class="st0" x1="109.5" y1="129.17" x2="109.5" y2="129.17"/>
	<line class="st0" x1="86.57" y1="87.89" x2="86.57" y2="129.17"/>
	<line class="st0" x1="91.15" y1="129.17" x2="104.91" y2="129.17"/>
	<line class="st0" x1="63.64" y1="152.09" x2="40.71" y2="152.09"/>
	<line class="st0" x1="17.78" y1="129.17" x2="17.78" y2="60.38"/>
	<g>
		<line class="st0" x1="40.71" y1="37.45" x2="40.71" y2="37.45"/>
	</g>
	<line class="st0" x1="63.64" y1="55.79" x2="63.64" y2="55.79"/>
	<line class="st0" x1="114.08" y1="129.17" x2="114.08" y2="129.17"/>
</g>
</svg>
