<?xml version="1.0" encoding="utf-8"?>
<!-- Generator: Adobe Illustrator 28.1.0, SVG Export Plug-In . SVG Version: 6.00 Build 0)  -->
<svg version="1.1" id="Layer_1" xmlns="http://www.w3.org/2000/svg" xmlns:xlink="http://www.w3.org/1999/xlink" x="0px" y="0px"
	 viewBox="0 0 178.89 180" style="enable-background:new 0 0 178.89 180;" xml:space="preserve">
<style type="text/css">
	.st0{fill:none;stroke:#000000;stroke-width:0.5;stroke-linecap:square;stroke-linejoin:round;stroke-miterlimit:10;}
	.st1{fill:none;stroke:#000000;stroke-width:0.5;stroke-miterlimit:10;}
</style>
<g>
	<path class="st1" d="M50.85,119.43c-3.19,0-4.78-2.66-4.78-7.97"/>
	<path class="st1" d="M65.19,119.43c3.19,0,4.78,2.65,4.78,7.97"/>
	<path class="st1" d="M62,119.43c0,5.31,1.59,7.97,4.78,7.97"/>
	<path class="st1" d="M62,111.46c0-5.31,1.59-7.97,4.78-7.97"/>
	<path class="st1" d="M54.04,135.36c0,5.31,2.66,7.97,7.97,7.97"/>
	<g>
		<path class="st1" d="M46.07,135.36c-5.31,0-7.97-2.66-7.97-7.97"/>
		<path class="st1" d="M38.11,103.5c0-5.31,2.66-7.97,7.97-7.97"/>
	</g>
	<path class="st1" d="M46.07,87.56c0-5.31,2.65-7.97,7.97-7.97"/>
	<path class="st1" d="M73.16,103.5c3.19,0,4.78,2.65,4.78,7.97"/>
	<path class="st1" d="M69.97,103.5c0,5.31,1.59,7.97,4.78,7.97"/>
	<path class="st1" d="M69.97,135.36c5.31,0,7.97-2.66,7.97-7.97"/>
	<path class="st1" d="M85.9,143.33c5.31,0,7.97-2.66,7.97-7.97"/>
	<path class="st1" d="M93.87,119.43c0-5.31-2.66-7.97-7.97-7.97"/>
	<path class="st1" d="M69.97,143.33c0,5.31,2.65,7.97,7.97,7.97"/>
	<path class="st1" d="M93.87,151.3c5.31,0,7.97-2.66,7.97-7.97"/>
	<path class="st1" d="M54.04,63.66c0-5.31,2.66-7.97,7.97-7.97"/>
	<path class="st1" d="M69.97,95.53c0-5.31,2.65-7.97,7.97-7.97"/>
	<path class="st1" d="M81.12,127.4c3.19,0,4.78-2.66,4.78-7.97"/>
	<path class="st1" d="M109.8,95.53c5.31,0,7.97-2.66,7.97-7.97"/>
	<path class="st1" d="M85.91,52.51c0-3.19,2.66-4.78,7.97-4.78"/>
	<path class="st1" d="M89.09,79.6c4.78,0,4.78,7.97,0,7.97"/>
	<path class="st1" d="M101.84,71.63c-7.97,0-7.97-7.97-3.19-7.97"/>
	<path class="st1" d="M117.77,71.63c5.31,0,7.97-2.66,7.97-7.97"/>
	<path class="st1" d="M125.74,55.7c0-5.31-1.59-7.97-4.78-7.97"/>
	<path class="st1" d="M101.84,44.54c0-3.19,2.65-4.78,7.97-4.78s7.97,2.66,7.97,7.97"/>
	<path class="st1" d="M101.84,55.7c7.97,0,7.97,7.97,3.19,7.97"/>
	<line class="st0" x1="57.23" y1="119.43" x2="58.82" y2="119.43"/>
	<line class="st0" x1="54.04" y1="119.43" x2="54.04" y2="135.36"/>
	<line class="st0" x1="46.07" y1="111.46" x2="46.07" y2="98.72"/>
	<line class="st0" x1="54.04" y1="119.43" x2="54.04" y2="98.72"/>
	<line class="st0" x1="69.97" y1="127.4" x2="69.97" y2="127.4"/>
	<line class="st0" x1="66.79" y1="127.4" x2="66.79" y2="127.4"/>
	<line class="st0" x1="62.01" y1="119.43" x2="62.01" y2="111.46"/>
	<line class="st0" x1="66.79" y1="103.5" x2="66.79" y2="103.5"/>
	<line class="st0" x1="57.23" y1="135.36" x2="69.97" y2="135.36"/>
	<line class="st0" x1="62.01" y1="143.33" x2="66.79" y2="143.33"/>
	<line class="st0" x1="50.85" y1="135.36" x2="46.07" y2="135.36"/>
	<g>
		<line class="st0" x1="38.11" y1="127.4" x2="38.11" y2="103.5"/>
	</g>
	<line class="st0" x1="46.07" y1="95.53" x2="46.07" y2="95.53"/>
	<line class="st0" x1="46.07" y1="92.34" x2="46.07" y2="87.56"/>
	<line class="st0" x1="54.04" y1="79.6" x2="54.04" y2="79.6"/>
	<line class="st0" x1="46.07" y1="95.53" x2="54.04" y2="95.53"/>
	<line class="st0" x1="54.04" y1="92.34" x2="54.04" y2="82.78"/>
	<line class="st0" x1="54.04" y1="95.53" x2="66.78" y2="95.53"/>
	<line class="st0" x1="73.16" y1="127.4" x2="74.75" y2="127.4"/>
	<line class="st0" x1="69.97" y1="127.4" x2="69.97" y2="132.18"/>
	<line class="st0" x1="69.97" y1="103.5" x2="69.97" y2="95.53"/>
	<line class="st0" x1="77.94" y1="111.46" x2="77.94" y2="111.46"/>
	<line class="st0" x1="74.75" y1="111.46" x2="74.75" y2="111.46"/>
	<line class="st0" x1="69.97" y1="138.55" x2="69.97" y2="143.33"/>
	<line class="st0" x1="77.94" y1="127.4" x2="77.94" y2="127.4"/>
	<line class="st0" x1="73.16" y1="143.33" x2="85.9" y2="143.33"/>
	<line class="st0" x1="93.87" y1="135.36" x2="93.87" y2="119.43"/>
	<line class="st0" x1="85.9" y1="111.46" x2="85.9" y2="111.46"/>
	<line class="st0" x1="77.94" y1="151.3" x2="93.87" y2="151.3"/>
	<line class="st0" x1="101.84" y1="143.33" x2="101.84" y2="98.72"/>
	<line class="st0" x1="54.04" y1="76.41" x2="54.04" y2="63.66"/>
	<line class="st0" x1="62" y1="55.7" x2="85.9" y2="55.7"/>
	<line class="st0" x1="54.04" y1="79.6" x2="82.72" y2="79.6"/>
	<line class="st0" x1="77.94" y1="87.56" x2="85.9" y2="87.56"/>
	<line class="st0" x1="73.16" y1="95.53" x2="82.72" y2="95.53"/>
	<line class="st0" x1="85.9" y1="119.43" x2="85.9" y2="114.65"/>
	<line class="st0" x1="77.94" y1="127.4" x2="77.94" y2="111.46"/>
	<line class="st0" x1="81.12" y1="111.46" x2="85.9" y2="111.46"/>
	<line class="st0" x1="85.9" y1="108.27" x2="85.9" y2="95.53"/>
	<line class="st0" x1="101.84" y1="92.34" x2="101.84" y2="74.82"/>
	<line class="st0" x1="101.84" y1="95.53" x2="109.8" y2="95.53"/>
	<line class="st0" x1="117.77" y1="87.56" x2="117.77" y2="74.82"/>
	<line class="st0" x1="101.84" y1="95.53" x2="89.09" y2="95.53"/>
	<line class="st0" x1="93.87" y1="47.73" x2="101.84" y2="47.73"/>
	<line class="st0" x1="85.9" y1="55.7" x2="101.84" y2="55.7"/>
	<line class="st0" x1="85.9" y1="58.88" x2="85.9" y2="79.6"/>
	<line class="st0" x1="89.09" y1="87.56" x2="85.9" y2="87.56"/>
	<line class="st0" x1="85.9" y1="79.6" x2="85.9" y2="84.38"/>
	<line class="st0" x1="85.9" y1="90.75" x2="85.9" y2="95.53"/>
	<line class="st0" x1="101.84" y1="68.44" x2="101.84" y2="63.66"/>
	<line class="st0" x1="101.84" y1="71.63" x2="117.77" y2="71.63"/>
	<line class="st0" x1="98.65" y1="63.66" x2="98.65" y2="63.66"/>
	<line class="st0" x1="117.77" y1="68.44" x2="117.77" y2="47.73"/>
	<line class="st0" x1="125.74" y1="63.66" x2="125.74" y2="55.7"/>
	<line class="st0" x1="120.96" y1="47.73" x2="120.96" y2="47.73"/>
	<g>
		<line class="st0" x1="109.8" y1="39.76" x2="109.8" y2="39.76"/>
	</g>
	<line class="st0" x1="117.77" y1="47.73" x2="117.77" y2="47.73"/>
	<line class="st0" x1="101.84" y1="47.73" x2="114.58" y2="47.73"/>
	<line class="st0" x1="101.84" y1="50.92" x2="101.84" y2="52.51"/>
	<line class="st0" x1="105.02" y1="63.66" x2="105.02" y2="63.66"/>
	<line class="st0" x1="101.84" y1="58.88" x2="101.84" y2="63.66"/>
</g>
</svg>
