<?xml version="1.0" encoding="utf-8"?>
<!-- Generator: Adobe Illustrator 28.1.0, SVG Export Plug-In . SVG Version: 6.00 Build 0)  -->
<svg version="1.1" id="Layer_1" xmlns="http://www.w3.org/2000/svg" xmlns:xlink="http://www.w3.org/1999/xlink" x="0px" y="0px"
	 viewBox="0 0 178.89 180" style="enable-background:new 0 0 178.89 180;" xml:space="preserve">
<style type="text/css">
	.st0{fill:none;stroke:#000000;stroke-width:0.5;stroke-linecap:square;stroke-linejoin:round;stroke-miterlimit:10;}
	.st1{fill:none;stroke:#000000;stroke-width:0.5;stroke-miterlimit:10;}
</style>
<g>
	<path class="st1" d="M53.43,95.02c0,7.43,7.43,7.43,7.43,0"/>
	<path class="st1" d="M38.56,102.45c0,4.96,2.48,7.44,7.43,7.44"/>
	<path class="st1" d="M83.17,109.89c4.96,0,7.44-2.48,7.44-7.44"/>
	<path class="st1" d="M31.13,95.02c-4.96,0-7.43-2.48-7.43-7.44"/>
	<path class="st1" d="M23.69,50.4c0-4.96,1.49-7.43,4.46-7.43"/>
	<path class="st1" d="M53.43,87.58c-4.96,0-7.44-2.48-7.44-7.44"/>
	<path class="st1" d="M53.43,80.15c0-4.96-2.48-7.43-7.44-7.43"/>
	<path class="st1" d="M90.61,50.4c0-4.96-2.48-7.43-7.44-7.43"/>
	<path class="st1" d="M60.87,84.61c0-2.97,2.48-4.46,7.44-4.46"/>
	<path class="st1" d="M60.87,87.58c4.96,0,7.44-1.49,7.44-4.46"/>
	<path class="st1" d="M31.13,35.53c0-4.96,2.48-7.43,7.44-7.43"/>
	<path class="st1" d="M135.22,28.1c4.96,0,7.43,2.48,7.43,7.43"/>
	<path class="st1" d="M31.13,65.28c0,4.96,2.48,7.43,7.44,7.43"/>
	<path class="st1" d="M46,65.28c0-4.96,2.48-7.44,7.44-7.44"/>
	<path class="st1" d="M68.3,42.97c0-4.96-2.48-7.44-7.44-7.44"/>
	<path class="st1" d="M46,35.53c-4.96,0-7.43,1.49-7.43,4.46"/>
	<path class="st1" d="M98.05,92.04c0-2.98,2.48-4.46,7.43-4.46"/>
	<path class="st1" d="M105.48,95.02c4.96,0,7.44-1.49,7.44-4.46"/>
	<path class="st1" d="M75.74,80.15c4.96,0,7.43-2.48,7.43-7.43"/>
	<path class="st1" d="M83.17,57.84c0-4.96-2.48-7.44-7.43-7.44"/>
	<path class="st1" d="M145.63,80.15c2.97,0,4.46,1.49,4.46,4.46"/>
	<path class="st1" d="M120.35,80.15c-4.96,0-7.43,1.49-7.43,4.46"/>
	<path class="st1" d="M60.87,57.84c0-4.96,2.48-7.44,7.44-7.44"/>
	<path class="st1" d="M60.87,57.84c0,4.96,2.48,7.44,7.44,7.44"/>
	<path class="st1" d="M98.05,102.45c-4.96,0-7.44,2.48-7.44,7.44"/>
	<path class="st1" d="M90.61,124.76c0,4.96,1.49,7.43,4.46,7.43"/>
	<path class="st1" d="M68.3,65.28c7.44,0,7.44-7.44,2.97-7.44"/>
	<path class="st1" d="M150.09,87.58c4.96,0,7.44,2.48,7.44,7.44"/>
	<path class="st1" d="M157.53,124.76c0,4.96-1.49,7.43-4.46,7.43"/>
	<path class="st1" d="M142.66,102.45c0,4.96-2.48,7.44-7.43,7.44"/>
	<path class="st1" d="M120.35,99.48c0-4.46,7.44-4.46,7.44,0"/>
	<path class="st1" d="M98.05,132.19c0,4.96,2.48,7.44,7.43,7.44"/>
	<path class="st1" d="M142.66,139.63c4.96,0,7.43-2.48,7.43-7.44"/>
	<path class="st1" d="M135.22,112.86c0,2.98-1.49,4.46-4.46,4.46"/>
	<path class="st1" d="M135.22,106.91c0-2.98-1.49-4.46-4.46-4.46"/>
	<path class="st1" d="M120.35,112.86c0,2.98,1.49,4.46,4.46,4.46"/>
	<path class="st1" d="M112.92,109.89c-4.96,0-7.44,2.48-7.44,7.43s2.48,7.44,7.44,7.44"/>
	<path class="st1" d="M120.35,124.76c4.96,0,7.44-2.48,7.44-7.44"/>
	<line class="st0" x1="56.41" y1="95.02" x2="57.89" y2="95.02"/>
	<line class="st0" x1="60.87" y1="95.02" x2="60.87" y2="95.02"/>
	<line class="st0" x1="50.46" y1="95.02" x2="38.56" y2="95.02"/>
	<line class="st0" x1="53.43" y1="95.02" x2="53.43" y2="90.56"/>
	<line class="st0" x1="63.84" y1="95.02" x2="90.61" y2="95.02"/>
	<line class="st0" x1="60.87" y1="95.02" x2="60.87" y2="90.56"/>
	<line class="st0" x1="38.56" y1="97.99" x2="38.56" y2="102.45"/>
	<line class="st0" x1="46" y1="109.89" x2="83.17" y2="109.89"/>
	<line class="st0" x1="90.61" y1="102.45" x2="90.61" y2="97.99"/>
	<line class="st0" x1="38.56" y1="95.02" x2="31.13" y2="95.02"/>
	<line class="st0" x1="23.69" y1="87.58" x2="23.69" y2="50.4"/>
	<line class="st0" x1="28.15" y1="42.97" x2="28.15" y2="42.97"/>
	<line class="st0" x1="38.56" y1="92.04" x2="38.56" y2="75.69"/>
	<line class="st0" x1="46" y1="80.15" x2="46" y2="75.69"/>
	<line class="st0" x1="53.43" y1="84.61" x2="53.43" y2="80.15"/>
	<line class="st0" x1="46" y1="72.71" x2="46" y2="72.71"/>
	<line class="st0" x1="53.43" y1="87.58" x2="60.87" y2="87.58"/>
	<line class="st0" x1="90.61" y1="92.04" x2="90.61" y2="50.4"/>
	<line class="st0" x1="83.17" y1="42.97" x2="71.28" y2="42.97"/>
	<line class="st0" x1="90.61" y1="95.02" x2="98.05" y2="95.02"/>
	<line class="st0" x1="68.3" y1="80.15" x2="68.3" y2="80.15"/>
	<line class="st0" x1="68.3" y1="83.12" x2="68.3" y2="83.12"/>
	<line class="st0" x1="31.13" y1="42.97" x2="31.13" y2="35.53"/>
	<line class="st0" x1="38.56" y1="28.1" x2="135.22" y2="28.1"/>
	<line class="st0" x1="142.66" y1="35.53" x2="142.66" y2="80.15"/>
	<line class="st0" x1="34.1" y1="42.97" x2="38.56" y2="42.97"/>
	<line class="st0" x1="31.13" y1="42.97" x2="31.13" y2="65.28"/>
	<line class="st0" x1="38.56" y1="72.71" x2="38.56" y2="72.71"/>
	<line class="st0" x1="38.56" y1="69.74" x2="38.56" y2="45.94"/>
	<line class="st0" x1="38.56" y1="72.71" x2="46" y2="72.71"/>
	<line class="st0" x1="46" y1="69.74" x2="46" y2="65.28"/>
	<line class="st0" x1="53.43" y1="57.84" x2="57.89" y2="57.84"/>
	<line class="st0" x1="65.33" y1="42.97" x2="38.56" y2="42.97"/>
	<line class="st0" x1="60.87" y1="35.53" x2="46" y2="35.53"/>
	<line class="st0" x1="38.56" y1="40" x2="38.56" y2="40"/>
	<line class="st0" x1="68.3" y1="42.97" x2="68.3" y2="47.43"/>
	<line class="st0" x1="105.48" y1="87.58" x2="112.92" y2="87.58"/>
	<line class="st0" x1="98.05" y1="95.02" x2="105.48" y2="95.02"/>
	<line class="st0" x1="112.92" y1="90.56" x2="112.92" y2="90.56"/>
	<line class="st0" x1="98.05" y1="97.99" x2="98.05" y2="99.48"/>
	<line class="st0" x1="68.3" y1="77.17" x2="68.3" y2="68.25"/>
	<line class="st0" x1="68.3" y1="80.15" x2="75.74" y2="80.15"/>
	<line class="st0" x1="83.17" y1="72.71" x2="83.17" y2="57.84"/>
	<line class="st0" x1="75.74" y1="50.4" x2="68.3" y2="50.4"/>
	<line class="st0" x1="150.09" y1="84.61" x2="150.09" y2="84.61"/>
	<line class="st0" x1="142.66" y1="80.15" x2="142.66" y2="87.58"/>
	<line class="st0" x1="139.68" y1="80.15" x2="120.35" y2="80.15"/>
	<line class="st0" x1="112.92" y1="84.61" x2="112.92" y2="84.61"/>
	<line class="st0" x1="68.3" y1="50.4" x2="68.3" y2="50.4"/>
	<line class="st0" x1="63.84" y1="57.84" x2="65.33" y2="57.84"/>
	<line class="st0" x1="68.3" y1="65.28" x2="68.3" y2="65.28"/>
	<line class="st0" x1="68.3" y1="53.38" x2="68.3" y2="57.84"/>
	<line class="st0" x1="112.92" y1="87.58" x2="139.68" y2="87.58"/>
	<line class="st0" x1="98.05" y1="102.45" x2="120.35" y2="102.45"/>
	<line class="st0" x1="98.05" y1="105.43" x2="98.05" y2="132.19"/>
	<line class="st0" x1="90.61" y1="109.89" x2="90.61" y2="124.76"/>
	<line class="st0" x1="95.07" y1="132.19" x2="95.07" y2="132.19"/>
	<line class="st0" x1="68.3" y1="62.3" x2="68.3" y2="57.84"/>
	<line class="st0" x1="71.28" y1="57.84" x2="71.28" y2="57.84"/>
	<line class="st0" x1="150.09" y1="90.56" x2="150.09" y2="132.19"/>
	<line class="st0" x1="150.09" y1="87.58" x2="145.63" y2="87.58"/>
	<line class="st0" x1="157.53" y1="95.02" x2="157.53" y2="124.76"/>
	<line class="st0" x1="153.07" y1="132.19" x2="153.07" y2="132.19"/>
	<line class="st0" x1="142.66" y1="87.58" x2="142.66" y2="102.45"/>
	<line class="st0" x1="135.22" y1="109.89" x2="135.22" y2="109.89"/>
	<line class="st0" x1="127.79" y1="99.48" x2="127.79" y2="102.45"/>
	<line class="st0" x1="120.35" y1="102.45" x2="124.81" y2="102.45"/>
	<line class="st0" x1="120.35" y1="105.43" x2="120.35" y2="106.91"/>
	<line class="st0" x1="101.02" y1="132.19" x2="147.12" y2="132.19"/>
	<line class="st0" x1="105.48" y1="139.63" x2="142.66" y2="139.63"/>
	<line class="st0" x1="150.09" y1="132.19" x2="150.09" y2="132.19"/>
	<line class="st0" x1="130.76" y1="117.32" x2="130.76" y2="117.32"/>
	<line class="st0" x1="135.22" y1="109.89" x2="130.76" y2="109.89"/>
	<line class="st0" x1="130.76" y1="102.45" x2="130.76" y2="102.45"/>
	<line class="st0" x1="127.79" y1="102.45" x2="127.79" y2="109.89"/>
	<line class="st0" x1="120.35" y1="109.89" x2="124.81" y2="109.89"/>
	<line class="st0" x1="124.81" y1="117.32" x2="124.81" y2="117.32"/>
	<line class="st0" x1="120.35" y1="109.89" x2="112.92" y2="109.89"/>
	<line class="st0" x1="105.48" y1="117.32" x2="105.48" y2="117.32"/>
	<line class="st0" x1="112.92" y1="124.76" x2="120.35" y2="124.76"/>
	<polyline class="st0" points="127.79,117.32 127.79,117.32 127.79,109.89 	"/>
</g>
</svg>
