<?xml version="1.0" encoding="utf-8"?>
<!-- Generator: Adobe Illustrator 28.1.0, SVG Export Plug-In . SVG Version: 6.00 Build 0)  -->
<svg version="1.1" id="Layer_1" xmlns="http://www.w3.org/2000/svg" xmlns:xlink="http://www.w3.org/1999/xlink" x="0px" y="0px"
	 viewBox="0 0 178.89 180" style="enable-background:new 0 0 178.89 180;" xml:space="preserve">
<style type="text/css">
	.st0{fill:none;stroke:#000000;stroke-width:0.5;stroke-linecap:square;stroke-linejoin:round;stroke-miterlimit:10;}
	.st1{fill:none;stroke:#000000;stroke-width:0.5;stroke-miterlimit:10;}
</style>
<g>
	<path class="st1" d="M131.55,98.27c8.14,0,12.21-5.82,12.21-17.44"/>
	<path class="st1" d="M126.31,115.71c0,11.63-4.07,17.44-12.21,17.44"/>
	<path class="st1" d="M148.99,80.83c8.14,0,12.21-5.81,12.21-17.44s-5.81-17.44-17.44-17.44"/>
	<path class="st1" d="M108.87,133.16c0,11.63-5.81,17.44-17.44,17.44c-11.63,0-17.44-4.07-17.44-12.21"/>
	<path class="st1" d="M126.31,75.6c0-8.14-4.07-12.21-12.21-12.21"/>
	<path class="st1" d="M143.76,40.71c0-8.14-5.82-12.21-17.44-12.21c-11.63,0-17.44,5.81-17.44,17.44"/>
	<path class="st1" d="M91.43,93.04c0-8.14,5.82-12.21,17.44-12.21"/>
	<path class="st1" d="M91.43,103.5c0,8.14-4.07,12.21-12.21,12.21"/>
	<path class="st1" d="M91.43,63.39c-11.63,0-17.44,5.82-17.44,17.44"/>
	<path class="st1" d="M39.1,45.94c-11.63,0-17.44,5.81-17.44,17.44"/>
	<path class="st1" d="M21.66,133.16c0,11.63,5.81,17.44,17.44,17.44c11.63,0,17.44-4.07,17.44-12.21"/>
	<path class="st1" d="M56.54,133.16c-17.44,0-17.44-17.44-5.23-17.44"/>
	<path class="st1" d="M73.98,98.27c-11.63,0-17.44,5.81-17.44,17.44"/>
	<line class="st0" x1="143.76" y1="80.83" x2="143.76" y2="80.83"/>
	<line class="st0" x1="126.31" y1="98.27" x2="126.31" y2="115.71"/>
	<line class="st0" x1="114.1" y1="133.16" x2="114.1" y2="133.16"/>
	<line class="st0" x1="121.08" y1="98.27" x2="114.1" y2="98.27"/>
	<line class="st0" x1="126.31" y1="98.27" x2="126.31" y2="86.06"/>
	<line class="st0" x1="161.2" y1="63.39" x2="161.2" y2="63.39"/>
	<line class="st0" x1="143.76" y1="45.94" x2="143.76" y2="45.94"/>
	<line class="st0" x1="138.52" y1="80.83" x2="126.31" y2="80.83"/>
	<line class="st0" x1="143.76" y1="80.83" x2="143.76" y2="51.18"/>
	<line class="st0" x1="103.64" y1="133.16" x2="73.98" y2="133.16"/>
	<line class="st0" x1="108.87" y1="133.16" x2="108.87" y2="98.27"/>
	<line class="st0" x1="91.43" y1="150.6" x2="91.43" y2="150.6"/>
	<line class="st0" x1="73.98" y1="138.39" x2="73.98" y2="138.39"/>
	<line class="st0" x1="103.64" y1="98.27" x2="91.43" y2="98.27"/>
	<line class="st0" x1="108.87" y1="98.27" x2="108.87" y2="86.06"/>
	<line class="st0" x1="126.31" y1="80.83" x2="108.87" y2="80.83"/>
	<line class="st0" x1="114.1" y1="63.39" x2="114.1" y2="63.39"/>
	<line class="st0" x1="126.31" y1="28.5" x2="126.31" y2="28.5"/>
	<line class="st0" x1="108.87" y1="45.94" x2="108.87" y2="45.94"/>
	<line class="st0" x1="143.76" y1="45.94" x2="114.1" y2="45.94"/>
	<line class="st0" x1="73.98" y1="127.92" x2="73.98" y2="115.71"/>
	<line class="st0" x1="73.98" y1="133.16" x2="56.54" y2="133.16"/>
	<line class="st0" x1="108.87" y1="80.83" x2="108.87" y2="80.83"/>
	<line class="st0" x1="79.22" y1="115.71" x2="79.22" y2="115.71"/>
	<line class="st0" x1="91.43" y1="98.27" x2="73.98" y2="98.27"/>
	<line class="st0" x1="108.87" y1="75.6" x2="108.87" y2="63.39"/>
	<line class="st0" x1="103.64" y1="63.39" x2="91.43" y2="63.39"/>
	<line class="st0" x1="73.98" y1="80.83" x2="73.98" y2="93.04"/>
	<line class="st0" x1="108.87" y1="63.39" x2="108.87" y2="45.94"/>
	<line class="st0" x1="103.64" y1="45.94" x2="39.1" y2="45.94"/>
	<line class="st0" x1="21.66" y1="63.39" x2="21.66" y2="133.16"/>
	<line class="st0" x1="39.1" y1="150.6" x2="39.1" y2="150.6"/>
	<line class="st0" x1="56.54" y1="138.39" x2="56.54" y2="138.39"/>
	<line class="st0" x1="68.75" y1="115.71" x2="61.77" y2="115.71"/>
	<line class="st0" x1="73.98" y1="115.71" x2="73.98" y2="103.5"/>
	<line class="st0" x1="56.54" y1="127.92" x2="56.54" y2="115.71"/>
	<line class="st0" x1="51.31" y1="115.71" x2="51.31" y2="115.71"/>
	<line class="st0" x1="56.54" y1="115.71" x2="56.54" y2="115.71"/>
</g>
</svg>
