<?xml version="1.0" encoding="utf-8"?>
<!-- Generator: Adobe Illustrator 28.1.0, SVG Export Plug-In . SVG Version: 6.00 Build 0)  -->
<svg version="1.1" id="Layer_1" xmlns="http://www.w3.org/2000/svg" xmlns:xlink="http://www.w3.org/1999/xlink" x="0px" y="0px"
	 viewBox="0 0 178.89 180" style="enable-background:new 0 0 178.89 180;" xml:space="preserve">
<style type="text/css">
	.st0{fill:none;stroke:#000000;stroke-width:0.5;stroke-linecap:square;stroke-linejoin:round;stroke-miterlimit:10;}
	.st1{fill:none;stroke:#000000;stroke-width:0.5;stroke-miterlimit:10;}
</style>
<g>
	<path class="st1" d="M153.15,95.77c10.19,0,15.29,6.37,15.29,19.11c0,12.74-5.1,19.11-15.29,19.11"/>
	<path class="st1" d="M149.33,95.77c0-19.11-19.11-19.11-19.11-3.82"/>
	<path class="st1" d="M149.33,133.99c0,12.74-6.37,19.11-19.11,19.11c-12.74,0-19.11-5.1-19.11-15.29"/>
	<path class="st1" d="M130.22,99.59c0,10.19-5.1,15.28-15.29,15.28"/>
	<path class="st1" d="M111.11,133.99c-19.11,0-19.11-19.11-3.82-19.11"/>
	<path class="st1" d="M111.11,57.55c0-12.74-6.37-19.11-19.11-19.11"/>
	<path class="st1" d="M34.68,38.45c-12.74,0-19.11,6.37-19.11,19.11"/>
	<path class="st1" d="M15.57,114.88c0,12.74,6.37,19.11,19.11,19.11"/>
	<path class="st1" d="M53.79,133.99c12.74,0,19.11-5.1,19.11-15.29"/>
	<path class="st1" d="M92,95.77c0,12.74-6.37,19.11-19.11,19.11"/>
	<path class="st1" d="M92,76.66c0-12.74-6.37-19.11-19.11-19.11"/>
	<path class="st1" d="M53.79,57.55c-12.74,0-19.11,6.37-19.11,19.11c0,12.74,6.37,19.11,19.11,19.11"/>
	<path class="st1" d="M72.89,114.88c-12.74,0-19.11-5.09-19.11-15.29"/>
	<path class="st1" d="M72.89,95.77c0-19.11-19.11-19.11-19.11-3.82"/>
	<line class="st0" x1="168.44" y1="114.88" x2="168.44" y2="114.88"/>
	<line class="st0" x1="153.15" y1="133.99" x2="153.15" y2="133.99"/>
	<line class="st0" x1="149.33" y1="95.77" x2="149.33" y2="133.99"/>
	<line class="st0" x1="145.51" y1="95.77" x2="130.22" y2="95.77"/>
	<line class="st0" x1="130.22" y1="91.95" x2="130.22" y2="91.95"/>
	<line class="st0" x1="145.51" y1="133.99" x2="111.11" y2="133.99"/>
	<line class="st0" x1="130.22" y1="153.09" x2="130.22" y2="153.09"/>
	<line class="st0" x1="111.11" y1="137.81" x2="111.11" y2="137.81"/>
	<line class="st0" x1="114.93" y1="114.88" x2="114.93" y2="114.88"/>
	<line class="st0" x1="130.22" y1="95.77" x2="114.93" y2="95.77"/>
	<line class="st0" x1="111.11" y1="130.16" x2="111.11" y2="114.88"/>
	<line class="st0" x1="107.29" y1="114.88" x2="107.29" y2="114.88"/>
	<line class="st0" x1="111.11" y1="114.88" x2="111.11" y2="95.77"/>
	<line class="st0" x1="107.29" y1="95.77" x2="95.82" y2="95.77"/>
	<line class="st0" x1="111.11" y1="95.77" x2="111.11" y2="57.55"/>
	<line class="st0" x1="92" y1="38.45" x2="34.68" y2="38.45"/>
	<line class="st0" x1="15.57" y1="57.55" x2="15.57" y2="114.88"/>
	<line class="st0" x1="34.68" y1="133.99" x2="53.79" y2="133.99"/>
	<line class="st0" x1="72.89" y1="118.7" x2="72.89" y2="118.7"/>
	<line class="st0" x1="72.89" y1="114.88" x2="72.89" y2="114.88"/>
	<line class="st0" x1="88.18" y1="95.77" x2="76.72" y2="95.77"/>
	<line class="st0" x1="92" y1="95.77" x2="92" y2="76.66"/>
	<line class="st0" x1="72.89" y1="57.55" x2="53.79" y2="57.55"/>
	<line class="st0" x1="34.68" y1="76.66" x2="34.68" y2="76.66"/>
	<line class="st0" x1="53.79" y1="95.77" x2="53.79" y2="95.77"/>
	<line class="st0" x1="72.89" y1="111.06" x2="72.89" y2="95.77"/>
	<line class="st0" x1="53.79" y1="99.59" x2="53.79" y2="99.59"/>
	<line class="st0" x1="69.07" y1="95.77" x2="53.79" y2="95.77"/>
	<line class="st0" x1="53.79" y1="91.95" x2="53.79" y2="91.95"/>
</g>
</svg>
