<?xml version="1.0" encoding="utf-8"?>
<!-- Generator: Adobe Illustrator 28.1.0, SVG Export Plug-In . SVG Version: 6.00 Build 0)  -->
<svg version="1.1" id="Layer_1" xmlns="http://www.w3.org/2000/svg" xmlns:xlink="http://www.w3.org/1999/xlink" x="0px" y="0px"
	 viewBox="0 0 178.89 180" style="enable-background:new 0 0 178.89 180;" xml:space="preserve">
<style type="text/css">
	.st0{fill:none;stroke:#000000;stroke-width:0.5;stroke-linecap:square;stroke-linejoin:round;stroke-miterlimit:10;}
	.st1{fill:none;stroke:#000000;stroke-width:0.5;stroke-miterlimit:10;}
</style>
<g>
	<path class="st1" d="M78.47,69.33c-12.74,0-19.11,5.09-19.11,15.29"/>
	<path class="st1" d="M97.58,69.33c0-19.11,19.11-19.11,19.11-3.82"/>
	<path class="st1" d="M116.69,69.33c12.74,0,19.11-6.37,19.11-19.11s-6.37-19.11-19.11-19.11"/>
	<path class="st1" d="M59.37,31.12c-12.74,0-19.11,6.37-19.11,19.11"/>
	<path class="st1" d="M40.26,69.33c0,12.74,6.37,19.11,19.11,19.11"/>
	<path class="st1" d="M116.69,73.16c0,10.19-6.37,15.29-19.11,15.29"/>
	<path class="st1" d="M97.58,126.66c0,12.74-6.37,19.11-19.11,19.11"/>
	<path class="st1" d="M59.37,145.77c-12.74,0-19.11-6.37-19.11-19.11c0-12.74,6.37-19.11,19.11-19.11c19.11,0,0,19.11,0,3.82"/>
	<line class="st0" x1="101.4" y1="69.33" x2="116.69" y2="69.33"/>
	<line class="st0" x1="97.58" y1="69.33" x2="97.58" y2="84.62"/>
	<line class="st0" x1="93.76" y1="69.33" x2="78.47" y2="69.33"/>
	<line class="st0" x1="59.37" y1="84.62" x2="59.37" y2="84.62"/>
	<line class="st0" x1="116.69" y1="65.51" x2="116.69" y2="65.51"/>
	<line class="st0" x1="135.8" y1="50.23" x2="135.8" y2="50.23"/>
	<line class="st0" x1="116.69" y1="31.12" x2="59.37" y2="31.12"/>
	<line class="st0" x1="40.26" y1="50.23" x2="40.26" y2="69.33"/>
	<line class="st0" x1="59.37" y1="88.44" x2="59.37" y2="88.44"/>
	<line class="st0" x1="97.58" y1="88.44" x2="97.58" y2="88.44"/>
	<line class="st0" x1="97.58" y1="92.26" x2="97.58" y2="126.66"/>
	<line class="st0" x1="78.47" y1="145.77" x2="59.37" y2="145.77"/>
	<line class="st0" x1="40.26" y1="126.66" x2="40.26" y2="126.66"/>
	<line class="st0" x1="59.37" y1="107.55" x2="59.37" y2="107.55"/>
	<line class="st0" x1="97.58" y1="88.44" x2="59.37" y2="88.44"/>
	<line class="st0" x1="59.37" y1="92.26" x2="59.37" y2="103.73"/>
	<line class="st0" x1="59.37" y1="111.37" x2="59.37" y2="111.37"/>
</g>
</svg>
