<?xml version="1.0" encoding="utf-8"?>
<!-- Generator: Adobe Illustrator 28.1.0, SVG Export Plug-In . SVG Version: 6.00 Build 0)  -->
<svg version="1.1" id="Layer_1" xmlns="http://www.w3.org/2000/svg" xmlns:xlink="http://www.w3.org/1999/xlink" x="0px" y="0px"
	 viewBox="0 0 178.89 180" style="enable-background:new 0 0 178.89 180;" xml:space="preserve">
<style type="text/css">
	.st0{fill:none;stroke:#000000;stroke-width:0.5;stroke-linecap:square;stroke-linejoin:round;stroke-miterlimit:10;}
	.st1{fill:none;stroke:#000000;stroke-width:0.5;stroke-miterlimit:10;}
</style>
<g>
	<path class="st1" d="M148.06,55.16c10.19,0,15.29,6.37,15.29,19.11"/>
	<path class="st1" d="M163.34,112.48c0,12.74-6.37,19.11-19.11,19.11"/>
	<path class="st1" d="M144.24,55.16c0-19.11-19.11-19.11-19.11-3.82"/>
	<path class="st1" d="M144.24,135.41c0,10.19-6.37,15.29-19.11,15.29"/>
	<path class="st1" d="M106.02,150.69c-12.74,0-19.11-6.37-19.11-19.11"/>
	<path class="st1" d="M125.13,93.37c0,12.74-6.37,19.11-19.11,19.11"/>
	<path class="st1" d="M86.91,108.66c0-10.19-5.09-15.29-15.29-15.29"/>
	<path class="st1" d="M106.02,51.33c0-10.19-6.37-15.29-19.11-15.29"/>
	<path class="st1" d="M29.59,36.05c-12.74,0-19.11,6.37-19.11,19.11"/>
	<path class="st1" d="M10.48,131.59c0,12.74,6.37,19.11,19.11,19.11"/>
	<path class="st1" d="M48.7,150.69c12.74,0,19.11-5.09,19.11-15.29"/>
	<path class="st1" d="M106.02,58.98c0,10.19-6.37,15.29-19.11,15.29"/>
	<path class="st1" d="M86.91,55.16c-12.74,0-19.11,5.1-19.11,15.29"/>
	<path class="st1" d="M48.7,131.59c-19.11,0-19.11-19.11-3.82-19.11"/>
	<path class="st1" d="M63.98,93.37c-15.29,0-15.29-19.11,0-19.11"/>
	<line class="st0" x1="163.34" y1="74.26" x2="163.34" y2="112.48"/>
	<line class="st0" x1="144.24" y1="131.59" x2="144.24" y2="131.59"/>
	<line class="st0" x1="144.24" y1="55.16" x2="144.24" y2="127.77"/>
	<line class="st0" x1="140.41" y1="55.16" x2="125.13" y2="55.16"/>
	<line class="st0" x1="125.13" y1="51.33" x2="125.13" y2="51.33"/>
	<line class="st0" x1="125.13" y1="150.69" x2="106.02" y2="150.69"/>
	<line class="st0" x1="86.91" y1="131.59" x2="86.91" y2="131.59"/>
	<line class="st0" x1="144.24" y1="131.59" x2="90.73" y2="131.59"/>
	<line class="st0" x1="125.13" y1="58.98" x2="125.13" y2="93.37"/>
	<line class="st0" x1="106.02" y1="112.48" x2="86.91" y2="112.48"/>
	<line class="st0" x1="125.13" y1="55.16" x2="106.02" y2="55.16"/>
	<line class="st0" x1="83.09" y1="131.59" x2="67.8" y2="131.59"/>
	<line class="st0" x1="86.91" y1="131.59" x2="86.91" y2="116.3"/>
	<line class="st0" x1="71.63" y1="93.37" x2="71.63" y2="93.37"/>
	<line class="st0" x1="86.91" y1="112.48" x2="71.63" y2="112.48"/>
	<line class="st0" x1="86.91" y1="36.05" x2="29.59" y2="36.05"/>
	<line class="st0" x1="10.48" y1="55.16" x2="10.48" y2="131.59"/>
	<line class="st0" x1="29.59" y1="150.69" x2="48.7" y2="150.69"/>
	<line class="st0" x1="67.8" y1="135.41" x2="67.8" y2="135.41"/>
	<line class="st0" x1="86.91" y1="74.26" x2="67.8" y2="74.26"/>
	<line class="st0" x1="106.02" y1="55.16" x2="86.91" y2="55.16"/>
	<line class="st0" x1="67.8" y1="70.44" x2="67.8" y2="70.44"/>
	<line class="st0" x1="67.8" y1="127.77" x2="67.8" y2="112.48"/>
	<line class="st0" x1="67.8" y1="131.59" x2="48.7" y2="131.59"/>
	<line class="st0" x1="44.87" y1="112.48" x2="63.98" y2="112.48"/>
	<line class="st0" x1="63.98" y1="74.26" x2="67.8" y2="74.26"/>
	<line class="st0" x1="67.8" y1="93.37" x2="67.8" y2="78.08"/>
	<line class="st0" x1="67.8" y1="93.37" x2="67.8" y2="112.48"/>
</g>
</svg>
