<?xml version="1.0" encoding="utf-8"?>
<!-- Generator: Adobe Illustrator 28.1.0, SVG Export Plug-In . SVG Version: 6.00 Build 0)  -->
<svg version="1.1" id="Layer_1" xmlns="http://www.w3.org/2000/svg" xmlns:xlink="http://www.w3.org/1999/xlink" x="0px" y="0px"
	 viewBox="0 0 178.89 180" style="enable-background:new 0 0 178.89 180;" xml:space="preserve">
<style type="text/css">
	.st0{fill:none;stroke:#000000;stroke-width:0.5;stroke-linecap:square;stroke-linejoin:round;stroke-miterlimit:10;}
	.st1{fill:none;stroke:#000000;stroke-width:0.5;stroke-miterlimit:10;}
</style>
<line class="st0" x1="42.33" y1="98.73" x2="42.33" y2="98.73"/>
<g>
	<path class="st1" d="M136.98,132.83c2.48,0,3.72-1.24,3.72-3.72"/>
	<path class="st1" d="M134.5,132.83c0,4.13-2.06,6.2-6.2,6.2c-4.13,0-6.2-2.07-6.2-6.2"/>
	<path class="st1" d="M132.02,132.83c-3.72,0-3.72-6.2,0-6.2"/>
	<path class="st1" d="M140.69,124.16c0-2.48-1.24-3.72-3.72-3.72"/>
	<path class="st1" d="M140.69,126.64c4.13,0,6.2,2.07,6.2,6.2"/>
	<path class="st1" d="M146.89,139.03c0,4.13-2.07,6.2-6.2,6.2"/>
	<path class="st1" d="M122.1,145.23c-4.13,0-6.2-2.07-6.2-6.2"/>
	<path class="st1" d="M122.1,52.28c0-4.13-1.24-6.2-3.72-6.2"/>
	<path class="st1" d="M134.5,46.09c0-4.13-2.06-6.2-6.2-6.2"/>
	<path class="st1" d="M122.1,39.89c-4.13,0-6.2,2.07-6.2,6.2"/>
	<path class="st1" d="M109.71,70.87c0-4.13-1.24-6.2-3.72-6.2"/>
	<path class="st1" d="M109.71,120.44c0,4.13-2.06,6.2-6.2,6.2"/>
	<path class="st1" d="M47.75,126.64c-4.13,0-6.2-2.07-6.2-6.2"/>
	<path class="st1" d="M103.52,46.09c0-4.13-2.07-6.2-6.2-6.2"/>
	<path class="st1" d="M39.07,120.44c-2.48,0-3.72-2.07-3.72-6.2"/>
	<path class="st1" d="M35.36,39.89c0-4.13,2.06-6.2,6.2-6.2"/>
	<path class="st1" d="M84.93,33.69c4.13,0,6.2,2.07,6.2,6.2"/>
	<path class="st1" d="M41.55,46.09c0-4.13,2.06-6.2,6.2-6.2"/>
	<path class="st1" d="M103.52,108.05c0,4.13-2.07,6.2-6.2,6.2"/>
	<path class="st1" d="M66.34,114.24c-4.13,0-6.2-1.24-6.2-3.72"/>
	<path class="st1" d="M66.34,46.09c-4.13,0-6.2,1.24-6.2,3.72"/>
	<path class="st1" d="M84.93,108.05c4.13,0,6.2-2.07,6.2-6.2"/>
	<path class="st1" d="M60.14,108.05c-4.13,0-6.2-1.24-6.2-3.72"/>
	<path class="st1" d="M88.65,64.68c-3.72,0-3.72-6.2,0-6.2"/>
	<path class="st1" d="M93.6,52.28c3.72,0,3.72,6.2,0,6.2"/>
	<path class="st1" d="M53.95,52.28c-4.13,0-6.2,2.07-6.2,6.2"/>
	<path class="st1" d="M47.75,95.66c0,4.13,2.07,6.2,6.2,6.2"/>
	<path class="st1" d="M93.6,101.85c2.48,0,3.72-2.07,3.72-6.2"/>
	<path class="st1" d="M97.32,89.46c0-4.13-2.06-6.2-6.2-6.2"/>
	<path class="st1" d="M53.95,77.07c0-4.13,1.24-6.2,3.72-6.2"/>
	<path class="st1" d="M78.73,70.87c4.13,0,6.2,2.07,6.2,6.2"/>
	<path class="st1" d="M84.93,89.46c0,4.13-2.07,6.2-6.2,6.2"/>
	<path class="st1" d="M72.53,95.66c-4.13,0-6.2-2.07-6.2-6.2"/>
	<path class="st1" d="M66.34,83.26c0-4.13,2.07-6.2,6.2-6.2s6.2,2.07,6.2,6.2c0,6.2-6.2,0-2.48,0"/>
	<line class="st0" x1="140.69" y1="129.12" x2="140.69" y2="129.12"/>
	<line class="st0" x1="128.3" y1="139.03" x2="128.3" y2="139.03"/>
	<line class="st0" x1="122.1" y1="132.83" x2="122.1" y2="120.44"/>
	<line class="st0" x1="132.02" y1="126.64" x2="134.5" y2="126.64"/>
	<line class="st0" x1="134.5" y1="132.83" x2="134.5" y2="129.12"/>
	<line class="st0" x1="136.98" y1="120.44" x2="136.98" y2="120.44"/>
	<line class="st0" x1="146.89" y1="132.83" x2="146.89" y2="139.03"/>
	<line class="st0" x1="140.69" y1="145.23" x2="122.1" y2="145.23"/>
	<line class="st0" x1="115.91" y1="139.03" x2="115.91" y2="122.92"/>
	<line class="st0" x1="140.69" y1="126.64" x2="134.5" y2="126.64"/>
	<line class="st0" x1="119.63" y1="120.44" x2="115.91" y2="120.44"/>
	<line class="st0" x1="122.1" y1="120.44" x2="122.1" y2="52.28"/>
	<line class="st0" x1="118.39" y1="46.09" x2="118.39" y2="46.09"/>
	<line class="st0" x1="124.58" y1="120.44" x2="132.02" y2="120.44"/>
	<polyline class="st0" points="134.5,124.16 134.5,120.44 134.5,46.09 	"/>
	<line class="st0" x1="128.3" y1="39.89" x2="122.1" y2="39.89"/>
	<line class="st0" x1="115.91" y1="46.09" x2="115.91" y2="46.09"/>
	<line class="st0" x1="115.91" y1="120.44" x2="112.19" y2="120.44"/>
	<line class="st0" x1="115.91" y1="117.96" x2="115.91" y2="46.09"/>
	<line class="st0" x1="113.43" y1="46.09" x2="105.99" y2="46.09"/>
	<line class="st0" x1="107.23" y1="120.44" x2="44.03" y2="120.44"/>
	<line class="st0" x1="109.71" y1="120.44" x2="109.71" y2="70.87"/>
	<line class="st0" x1="105.99" y1="64.68" x2="105.99" y2="64.68"/>
	<line class="st0" x1="103.52" y1="126.64" x2="47.75" y2="126.64"/>
	<line class="st0" x1="41.55" y1="120.44" x2="41.55" y2="120.44"/>
	<line class="st0" x1="103.52" y1="46.09" x2="103.52" y2="64.68"/>
	<line class="st0" x1="101.04" y1="46.09" x2="91.12" y2="46.09"/>
	<line class="st0" x1="97.32" y1="39.89" x2="93.6" y2="39.89"/>
	<line class="st0" x1="35.36" y1="114.24" x2="35.36" y2="39.89"/>
	<line class="st0" x1="41.55" y1="33.69" x2="84.93" y2="33.69"/>
	<line class="st0" x1="91.12" y1="39.89" x2="91.12" y2="39.89"/>
	<line class="st0" x1="41.55" y1="120.44" x2="41.55" y2="46.09"/>
	<line class="st0" x1="47.75" y1="39.89" x2="88.65" y2="39.89"/>
	<line class="st0" x1="103.52" y1="64.68" x2="103.52" y2="108.05"/>
	<line class="st0" x1="97.32" y1="114.24" x2="66.34" y2="114.24"/>
	<line class="st0" x1="60.14" y1="110.53" x2="60.14" y2="110.53"/>
	<line class="st0" x1="101.04" y1="64.68" x2="93.6" y2="64.68"/>
	<line class="st0" x1="91.12" y1="48.57" x2="91.12" y2="52.28"/>
	<line class="st0" x1="91.12" y1="46.09" x2="66.34" y2="46.09"/>
	<line class="st0" x1="60.14" y1="49.8" x2="60.14" y2="49.8"/>
	<line class="st0" x1="91.12" y1="43.61" x2="91.12" y2="39.89"/>
	<line class="st0" x1="60.14" y1="105.57" x2="60.14" y2="104.33"/>
	<line class="st0" x1="60.14" y1="108.05" x2="84.93" y2="108.05"/>
	<line class="st0" x1="91.12" y1="101.85" x2="91.12" y2="101.85"/>
	<line class="st0" x1="53.95" y1="104.33" x2="53.95" y2="104.33"/>
	<line class="st0" x1="91.12" y1="64.68" x2="91.12" y2="80.79"/>
	<line class="st0" x1="88.65" y1="58.48" x2="91.12" y2="58.48"/>
	<line class="st0" x1="91.12" y1="64.68" x2="91.12" y2="60.96"/>
	<line class="st0" x1="93.6" y1="58.48" x2="91.12" y2="58.48"/>
	<line class="st0" x1="91.12" y1="52.28" x2="91.12" y2="56"/>
	<line class="st0" x1="88.65" y1="52.28" x2="60.14" y2="52.28"/>
	<line class="st0" x1="60.14" y1="54.76" x2="60.14" y2="70.87"/>
	<line class="st0" x1="60.14" y1="52.28" x2="53.95" y2="52.28"/>
	<line class="st0" x1="47.75" y1="58.48" x2="47.75" y2="95.66"/>
	<line class="st0" x1="53.95" y1="101.85" x2="53.95" y2="101.85"/>
	<line class="st0" x1="60.14" y1="99.37" x2="60.14" y2="70.87"/>
	<line class="st0" x1="60.14" y1="101.85" x2="88.65" y2="101.85"/>
	<line class="st0" x1="60.14" y1="101.85" x2="53.95" y2="101.85"/>
	<line class="st0" x1="91.12" y1="101.85" x2="91.12" y2="85.74"/>
	<line class="st0" x1="97.32" y1="95.66" x2="97.32" y2="89.46"/>
	<line class="st0" x1="91.12" y1="83.26" x2="91.12" y2="83.26"/>
	<line class="st0" x1="53.95" y1="99.37" x2="53.95" y2="77.07"/>
	<line class="st0" x1="57.66" y1="70.87" x2="57.66" y2="70.87"/>
	<line class="st0" x1="91.12" y1="83.26" x2="87.41" y2="83.26"/>
	<line class="st0" x1="62.62" y1="70.87" x2="78.73" y2="70.87"/>
	<polyline class="st0" points="84.93,77.07 84.93,83.26 84.93,89.46 	"/>
	<line class="st0" x1="78.73" y1="95.66" x2="72.53" y2="95.66"/>
	<line class="st0" x1="66.34" y1="89.46" x2="66.34" y2="83.26"/>
	<line class="st0" x1="72.53" y1="77.07" x2="72.53" y2="77.07"/>
	<line class="st0" x1="78.73" y1="83.26" x2="78.73" y2="83.26"/>
	<line class="st0" x1="82.45" y1="83.26" x2="81.21" y2="83.26"/>
	<line class="st0" x1="76.25" y1="83.26" x2="76.25" y2="83.26"/>
</g>
</svg>
