<?xml version="1.0" encoding="utf-8"?>
<!-- Generator: Adobe Illustrator 28.1.0, SVG Export Plug-In . SVG Version: 6.00 Build 0)  -->
<svg version="1.1" id="Layer_1" xmlns="http://www.w3.org/2000/svg" xmlns:xlink="http://www.w3.org/1999/xlink" x="0px" y="0px"
	 viewBox="0 0 178.89 180" style="enable-background:new 0 0 178.89 180;" xml:space="preserve">
<style type="text/css">
	.st0{fill:none;stroke:#000000;stroke-width:0.5;stroke-linecap:square;stroke-linejoin:round;stroke-miterlimit:10;}
	.st1{fill:none;stroke:#000000;stroke-width:0.5;stroke-miterlimit:10;}
</style>
<g>
	<path class="st1" d="M109.14,124.78c12.23,0,18.34-6.11,18.34-18.34"/>
	<path class="st1" d="M104.55,124.78c0,15.29-7.64,22.93-22.93,22.93"/>
	<path class="st1" d="M58.69,147.71c-15.29,0-22.93-7.64-22.93-22.93"/>
	<path class="st1" d="M35.76,55.99c0-15.29,7.64-22.93,22.93-22.93"/>
	<path class="st1" d="M127.48,33.06c15.29,0,22.93,7.64,22.93,22.93"/>
	<path class="st1" d="M99.97,124.78c-12.23,0-18.34-7.64-18.34-22.93"/>
	<path class="st1" d="M127.48,78.92c0-15.29-7.64-22.93-22.93-22.93"/>
	<path class="st1" d="M81.62,55.99c-15.29,0-22.93,7.64-22.93,22.93c0,15.29,6.11,22.93,18.34,22.93"/>
	<path class="st1" d="M150.41,101.85c22.93,0,0,22.93,0,4.59"/>
	<path class="st1" d="M81.62,101.85c0-22.93,22.93-22.93,22.93-4.59"/>
	<line class="st0" x1="127.48" y1="106.44" x2="127.48" y2="106.44"/>
	<line class="st0" x1="81.62" y1="147.71" x2="58.69" y2="147.71"/>
	<line class="st0" x1="35.76" y1="124.78" x2="35.76" y2="55.99"/>
	<line class="st0" x1="58.69" y1="33.06" x2="127.48" y2="33.06"/>
	<line class="st0" x1="150.41" y1="55.99" x2="150.41" y2="97.27"/>
	<line class="st0" x1="81.62" y1="101.85" x2="81.62" y2="101.85"/>
	<line class="st0" x1="104.55" y1="124.78" x2="104.55" y2="106.44"/>
	<line class="st0" x1="127.48" y1="97.27" x2="127.48" y2="78.92"/>
	<line class="st0" x1="104.55" y1="55.99" x2="81.62" y2="55.99"/>
	<line class="st0" x1="58.69" y1="78.92" x2="58.69" y2="78.92"/>
	<line class="st0" x1="77.04" y1="101.85" x2="77.04" y2="101.85"/>
	<line class="st0" x1="127.48" y1="101.85" x2="150.41" y2="101.85"/>
	<line class="st0" x1="127.48" y1="101.85" x2="104.55" y2="101.85"/>
	<line class="st0" x1="150.41" y1="106.44" x2="150.41" y2="106.44"/>
	<line class="st0" x1="86.21" y1="101.85" x2="104.55" y2="101.85"/>
	<line class="st0" x1="104.55" y1="97.27" x2="104.55" y2="97.27"/>
</g>
</svg>
