<?xml version="1.0" encoding="utf-8"?>
<!-- Generator: Adobe Illustrator 28.1.0, SVG Export Plug-In . SVG Version: 6.00 Build 0)  -->
<svg version="1.1" id="Layer_1" xmlns="http://www.w3.org/2000/svg" xmlns:xlink="http://www.w3.org/1999/xlink" x="0px" y="0px"
	 viewBox="0 0 178.89 180" style="enable-background:new 0 0 178.89 180;" xml:space="preserve">
<style type="text/css">
	.st0{fill:none;stroke:#000000;stroke-width:0.5;stroke-linecap:square;stroke-linejoin:round;stroke-miterlimit:10;}
	.st1{fill:none;stroke:#000000;stroke-width:0.5;stroke-miterlimit:10;}
</style>
<g>
	<path class="st1" d="M145.94,39.65c2.62,0,3.94,2.19,3.94,6.56c0,4.37-2.19,6.56-6.56,6.56"/>
	<path class="st1" d="M143.32,39.65c0-4.37-2.19-6.56-6.56-6.56c-4.37,0-6.56,1.31-6.56,3.94"/>
	<path class="st1" d="M143.32,55.4c0,3.94-6.56,3.94-6.56,0"/>
	<path class="st1" d="M130.2,39.65c-6.56,0-6.56,6.56-2.63,6.56"/>
	<path class="st1" d="M136.76,52.77c0-4.37-1.31-6.56-3.94-6.56"/>
	<path class="st1" d="M51.47,52.77c-4.37,0-6.56,2.19-6.56,6.56"/>
	<path class="st1" d="M44.91,131.5c0,4.37,1.31,6.56,3.94,6.56"/>
	<path class="st1" d="M51.47,138.06c0,4.38,2.19,6.56,6.56,6.56"/>
	<path class="st1" d="M123.64,144.62c4.37,0,6.56-1.31,6.56-3.94"/>
	<path class="st1" d="M51.47,65.89c0-4.37,2.19-6.56,6.56-6.56"/>
	<path class="st1" d="M97.39,59.33c4.37,0,6.56,2.19,6.56,6.56"/>
	<path class="st1" d="M132.82,72.45c2.62,0,3.94,2.19,3.94,6.56"/>
	<path class="st1" d="M136.76,131.5c0,4.37-2.19,6.56-6.56,6.56"/>
	<path class="st1" d="M77.71,65.89c-4.37,0-6.56,2.19-6.56,6.56"/>
	<path class="st1" d="M110.51,65.89c4.37,0,6.56,2.19,6.56,6.56"/>
	<path class="st1" d="M64.59,72.45c-4.37,0-6.56,2.19-6.56,6.56"/>
	<path class="st1" d="M58.03,118.38c0,4.37,2.19,6.56,6.56,6.56"/>
	<path class="st1" d="M119.7,92.14c2.62,0,3.94,2.19,3.94,6.56"/>
	<path class="st1" d="M123.64,118.38c0,4.37-2.19,6.56-6.56,6.56"/>
	<path class="st1" d="M117.07,98.7c0,4.37-2.19,6.56-6.56,6.56"/>
	<path class="st1" d="M71.15,127.56c0,2.62,2.19,3.94,6.56,3.94"/>
	<path class="st1" d="M97.39,131.5c4.37,0,6.56-2.19,6.56-6.56"/>
	<path class="st1" d="M71.15,92.14c-4.37,0-6.56,2.19-6.56,6.56"/>
	<path class="st1" d="M64.59,105.26c0,4.37,1.31,6.56,3.94,6.56"/>
	<path class="st1" d="M103.95,79.02c4.37,0,6.56,2.19,6.56,6.56"/>
	<path class="st1" d="M84.27,79.02c-4.38,0-6.56,2.19-6.56,6.56"/>
	<path class="st1" d="M110.51,92.14c0,4.37-2.19,6.56-6.56,6.56"/>
	<path class="st1" d="M97.39,105.26c0,4.37-2.19,6.56-6.56,6.56"/>
	<path class="st1" d="M90.83,105.26c-4.37,0-6.56,2.19-6.56,6.56"/>
	<path class="st1" d="M77.71,111.82c0,6.56,6.56,6.56,6.56,0"/>
	<path class="st1" d="M90.83,94.76c0,2.62,1.31,3.94,3.94,3.94"/>
	<path class="st1" d="M90.83,89.51c0-3.94,6.56-3.94,6.56,0"/>
	<line class="st0" x1="149.88" y1="46.21" x2="149.88" y2="46.21"/>
	<line class="st0" x1="143.32" y1="52.77" x2="143.32" y2="52.77"/>
	<line class="st0" x1="143.32" y1="39.65" x2="143.32" y2="50.15"/>
	<line class="st0" x1="140.69" y1="39.65" x2="130.2" y2="39.65"/>
	<line class="st0" x1="136.76" y1="33.09" x2="136.76" y2="33.09"/>
	<line class="st0" x1="130.2" y1="37.03" x2="130.2" y2="37.03"/>
	<line class="st0" x1="136.76" y1="55.4" x2="136.76" y2="52.77"/>
	<line class="st0" x1="143.32" y1="52.77" x2="139.38" y2="52.77"/>
	<line class="st0" x1="130.2" y1="42.28" x2="130.2" y2="46.21"/>
	<line class="st0" x1="127.57" y1="46.21" x2="127.57" y2="46.21"/>
	<line class="st0" x1="134.13" y1="52.77" x2="132.82" y2="52.77"/>
	<line class="st0" x1="132.82" y1="46.21" x2="132.82" y2="46.21"/>
	<line class="st0" x1="130.2" y1="46.21" x2="130.2" y2="52.77"/>
	<line class="st0" x1="127.57" y1="52.77" x2="51.47" y2="52.77"/>
	<line class="st0" x1="44.91" y1="59.33" x2="44.91" y2="131.5"/>
	<line class="st0" x1="48.84" y1="138.06" x2="48.84" y2="138.06"/>
	<line class="st0" x1="130.2" y1="52.77" x2="130.2" y2="72.45"/>
	<line class="st0" x1="54.09" y1="138.06" x2="130.2" y2="138.06"/>
	<line class="st0" x1="58.03" y1="144.62" x2="123.64" y2="144.62"/>
	<line class="st0" x1="130.2" y1="140.69" x2="130.2" y2="140.69"/>
	<line class="st0" x1="51.47" y1="138.06" x2="51.47" y2="65.89"/>
	<line class="st0" x1="58.03" y1="59.33" x2="97.39" y2="59.33"/>
	<line class="st0" x1="103.95" y1="65.89" x2="103.95" y2="65.89"/>
	<line class="st0" x1="127.57" y1="72.45" x2="119.7" y2="72.45"/>
	<line class="st0" x1="136.76" y1="79.02" x2="136.76" y2="131.5"/>
	<line class="st0" x1="130.2" y1="138.06" x2="130.2" y2="138.06"/>
	<line class="st0" x1="130.2" y1="72.45" x2="130.2" y2="135.44"/>
	<line class="st0" x1="101.33" y1="65.89" x2="77.71" y2="65.89"/>
	<line class="st0" x1="71.15" y1="72.45" x2="71.15" y2="72.45"/>
	<line class="st0" x1="106.58" y1="65.89" x2="110.51" y2="65.89"/>
	<line class="st0" x1="117.07" y1="72.45" x2="117.07" y2="72.45"/>
	<line class="st0" x1="103.95" y1="65.89" x2="103.95" y2="69.83"/>
	<line class="st0" x1="114.45" y1="72.45" x2="103.95" y2="72.45"/>
	<line class="st0" x1="117.07" y1="72.45" x2="117.07" y2="92.14"/>
	<line class="st0" x1="68.53" y1="72.45" x2="64.59" y2="72.45"/>
	<line class="st0" x1="58.03" y1="79.02" x2="58.03" y2="118.38"/>
	<line class="st0" x1="64.59" y1="124.94" x2="71.15" y2="124.94"/>
	<line class="st0" x1="73.78" y1="72.45" x2="103.95" y2="72.45"/>
	<line class="st0" x1="71.15" y1="72.45" x2="71.15" y2="89.51"/>
	<line class="st0" x1="103.95" y1="75.08" x2="103.95" y2="76.39"/>
	<line class="st0" x1="114.45" y1="92.14" x2="113.14" y2="92.14"/>
	<line class="st0" x1="123.64" y1="98.7" x2="123.64" y2="118.38"/>
	<line class="st0" x1="117.07" y1="124.94" x2="106.58" y2="124.94"/>
	<line class="st0" x1="117.07" y1="92.14" x2="117.07" y2="98.7"/>
	<line class="st0" x1="110.51" y1="105.26" x2="103.95" y2="105.26"/>
	<line class="st0" x1="77.71" y1="131.5" x2="97.39" y2="131.5"/>
	<line class="st0" x1="103.95" y1="124.94" x2="103.95" y2="124.94"/>
	<line class="st0" x1="71.15" y1="122.32" x2="71.15" y2="111.82"/>
	<line class="st0" x1="71.15" y1="124.94" x2="101.33" y2="124.94"/>
	<line class="st0" x1="71.15" y1="94.76" x2="71.15" y2="111.82"/>
	<line class="st0" x1="64.59" y1="98.7" x2="64.59" y2="105.26"/>
	<line class="st0" x1="68.53" y1="111.82" x2="68.53" y2="111.82"/>
	<line class="st0" x1="71.15" y1="92.14" x2="75.09" y2="92.14"/>
	<line class="st0" x1="110.52" y1="85.58" x2="110.52" y2="92.14"/>
	<line class="st0" x1="103.95" y1="81.64" x2="103.95" y2="89.51"/>
	<line class="st0" x1="103.95" y1="79.02" x2="84.27" y2="79.02"/>
	<line class="st0" x1="77.71" y1="85.58" x2="77.71" y2="92.14"/>
	<line class="st0" x1="107.89" y1="92.14" x2="103.95" y2="92.14"/>
	<line class="st0" x1="103.95" y1="98.7" x2="103.95" y2="98.7"/>
	<line class="st0" x1="103.95" y1="124.94" x2="103.95" y2="107.88"/>
	<line class="st0" x1="103.95" y1="102.63" x2="103.95" y2="101.32"/>
	<line class="st0" x1="103.95" y1="105.26" x2="100.02" y2="105.26"/>
	<line class="st0" x1="73.78" y1="111.82" x2="75.09" y2="111.82"/>
	<line class="st0" x1="80.34" y1="92.14" x2="90.83" y2="92.14"/>
	<line class="st0" x1="77.71" y1="92.14" x2="77.71" y2="111.82"/>
	<line class="st0" x1="103.95" y1="94.76" x2="103.95" y2="96.07"/>
	<line class="st0" x1="103.95" y1="92.14" x2="100.02" y2="92.14"/>
	<line class="st0" x1="103.95" y1="98.7" x2="100.02" y2="98.7"/>
	<line class="st0" x1="90.83" y1="111.82" x2="86.9" y2="111.82"/>
	<line class="st0" x1="94.77" y1="105.26" x2="90.83" y2="105.26"/>
	<line class="st0" x1="84.27" y1="111.82" x2="84.27" y2="111.82"/>
	<line class="st0" x1="97.39" y1="105.26" x2="97.39" y2="98.7"/>
	<line class="st0" x1="80.34" y1="111.82" x2="81.65" y2="111.82"/>
	<line class="st0" x1="84.27" y1="111.82" x2="84.27" y2="111.82"/>
	<line class="st0" x1="94.77" y1="98.7" x2="94.77" y2="98.7"/>
	<line class="st0" x1="97.39" y1="89.51" x2="97.39" y2="92.14"/>
	<line class="st0" x1="90.83" y1="92.14" x2="94.77" y2="92.14"/>
	<line class="st0" x1="97.39" y1="92.14" x2="97.39" y2="98.7"/>
</g>
</svg>
