<?xml version="1.0" encoding="utf-8"?>
<!-- Generator: Adobe Illustrator 28.1.0, SVG Export Plug-In . SVG Version: 6.00 Build 0)  -->
<svg version="1.1" id="Layer_1" xmlns="http://www.w3.org/2000/svg" xmlns:xlink="http://www.w3.org/1999/xlink" x="0px" y="0px"
	 viewBox="0 0 178.89 180" style="enable-background:new 0 0 178.89 180;" xml:space="preserve">
<style type="text/css">
	.st0{fill:none;stroke:#000000;stroke-width:0.5;stroke-linecap:square;stroke-linejoin:round;stroke-miterlimit:10;}
	.st1{fill:none;stroke:#000000;stroke-width:0.5;stroke-miterlimit:10;}
</style>
<g>
	<path class="st1" d="M84.35,85.17c2.79,0,4.18-1.39,4.18-4.18"/>
	<path class="st1" d="M88.53,71.23c0-4.65,1.39-6.97,4.18-6.97"/>
	<path class="st1" d="M81.56,94.93c0,2.79-2.32,4.18-6.97,4.18"/>
	<path class="st1" d="M71.8,85.17c-2.79,0-4.18-2.32-4.18-6.97"/>
	<path class="st1" d="M67.62,50.31c0-4.65,2.32-6.97,6.97-6.97"/>
	<path class="st1" d="M130.36,43.34c4.65,0,6.97,2.32,6.97,6.97"/>
	<path class="st1" d="M137.33,64.25c0,4.65-2.32,6.97-6.97,6.97"/>
	<path class="st1" d="M74.59,85.17c0-4.65,1.39-6.97,4.18-6.97"/>
	<path class="st1" d="M81.56,57.28c0-4.65,2.32-6.97,6.97-6.97c4.65,0,6.97,2.32,6.97,6.97"/>
	<path class="st1" d="M98.29,78.2c2.79,0,4.18,2.32,4.18,6.97"/>
	<path class="st1" d="M95.5,106.08c0,4.65,2.32,6.97,6.97,6.97"/>
	<path class="st1" d="M53.68,92.14c-4.65,0-6.97,1.39-6.97,4.18"/>
	<path class="st1" d="M130.36,64.25c0-4.65-1.39-6.97-4.18-6.97"/>
	<path class="st1" d="M130.36,85.17c0,4.65-2.32,6.97-6.97,6.97"/>
	<path class="st1" d="M109.44,67.04c0,2.79,2.32,4.18,6.97,4.18"/>
	<path class="st1" d="M109.44,61.47c0-2.79,1.4-4.18,4.18-4.18"/>
	<path class="st1" d="M74.59,120.02c0,6.97-6.97,6.97-6.97,2.79"/>
	<path class="st1" d="M46.71,133.96c0,4.65,2.32,6.97,6.97,6.97"/>
	<path class="st1" d="M46.71,99.11c-4.65,0-6.97,2.32-6.97,6.97"/>
	<path class="st1" d="M39.74,147.9c0,4.65,2.32,6.97,6.97,6.97"/>
	<path class="st1" d="M109.44,154.87c4.65,0,6.97-2.32,6.97-6.97"/>
	<path class="st1" d="M123.39,57.28c0-6.97-6.97-6.97-6.97,0"/>
	<path class="st1" d="M123.39,57.28c0,4.65-2.32,6.97-6.97,6.97"/>
	<path class="st1" d="M105.26,120.02c2.79,0,4.18,2.32,4.18,6.97"/>
	<path class="st1" d="M116.42,113.05c4.65,0,6.97,2.32,6.97,6.97"/>
	<path class="st1" d="M123.39,126.99c0,4.65-1.4,6.97-4.18,6.97"/>
	<path class="st1" d="M67.62,113.05c0-6.97-6.97-6.97-6.97,0"/>
	<path class="st1" d="M95.5,140.93c4.65,0,6.97-1.4,6.97-4.18"/>
	<path class="st1" d="M60.65,140.93c0,4.65,2.32,6.97,6.97,6.97"/>
	<path class="st1" d="M102.47,147.9c4.65,0,6.97-2.32,6.97-6.97"/>
	<path class="st1" d="M57.86,120.02c-2.79,0-4.18,2.32-4.18,6.97c0,4.65,2.32,6.97,6.97,6.97"/>
	<line class="st0" x1="88.53" y1="80.98" x2="88.53" y2="80.98"/>
	<line class="st0" x1="81.56" y1="85.17" x2="81.56" y2="89.35"/>
	<line class="st0" x1="78.77" y1="85.17" x2="77.38" y2="85.17"/>
	<line class="st0" x1="81.56" y1="85.17" x2="81.56" y2="78.2"/>
	<line class="st0" x1="88.53" y1="75.41" x2="88.53" y2="71.23"/>
	<line class="st0" x1="92.71" y1="64.25" x2="92.71" y2="64.25"/>
	<line class="st0" x1="88.53" y1="78.2" x2="92.71" y2="78.2"/>
	<line class="st0" x1="88.53" y1="78.2" x2="84.35" y2="78.2"/>
	<line class="st0" x1="81.56" y1="92.14" x2="95.5" y2="92.14"/>
	<line class="st0" x1="74.59" y1="99.11" x2="74.59" y2="99.11"/>
	<line class="st0" x1="81.56" y1="92.14" x2="74.59" y2="92.14"/>
	<line class="st0" x1="74.59" y1="85.17" x2="74.59" y2="89.35"/>
	<line class="st0" x1="67.62" y1="78.2" x2="67.62" y2="50.31"/>
	<line class="st0" x1="74.59" y1="43.34" x2="130.36" y2="43.34"/>
	<line class="st0" x1="137.33" y1="50.31" x2="137.33" y2="64.25"/>
	<line class="st0" x1="130.36" y1="71.23" x2="130.36" y2="71.23"/>
	<line class="st0" x1="78.77" y1="78.2" x2="78.77" y2="78.2"/>
	<line class="st0" x1="81.56" y1="78.2" x2="81.56" y2="57.28"/>
	<line class="st0" x1="88.53" y1="50.31" x2="88.53" y2="50.31"/>
	<line class="st0" x1="95.5" y1="57.28" x2="95.5" y2="64.25"/>
	<line class="st0" x1="98.29" y1="64.25" x2="109.44" y2="64.25"/>
	<line class="st0" x1="95.5" y1="64.25" x2="95.5" y2="78.2"/>
	<line class="st0" x1="102.47" y1="85.17" x2="102.47" y2="89.35"/>
	<line class="st0" x1="95.5" y1="78.2" x2="95.5" y2="89.35"/>
	<line class="st0" x1="95.5" y1="94.93" x2="95.5" y2="106.08"/>
	<line class="st0" x1="102.47" y1="113.05" x2="102.47" y2="113.05"/>
	<line class="st0" x1="95.5" y1="92.14" x2="102.47" y2="92.14"/>
	<line class="st0" x1="74.59" y1="96.32" x2="74.59" y2="94.93"/>
	<line class="st0" x1="74.59" y1="101.9" x2="74.59" y2="120.02"/>
	<line class="st0" x1="74.59" y1="99.11" x2="46.71" y2="99.11"/>
	<line class="st0" x1="74.59" y1="92.14" x2="53.68" y2="92.14"/>
	<line class="st0" x1="46.71" y1="96.32" x2="46.71" y2="96.32"/>
	<line class="st0" x1="130.36" y1="68.44" x2="130.36" y2="64.25"/>
	<line class="st0" x1="126.17" y1="57.28" x2="126.17" y2="57.28"/>
	<line class="st0" x1="130.36" y1="74.01" x2="130.36" y2="85.17"/>
	<line class="st0" x1="123.39" y1="92.14" x2="116.42" y2="92.14"/>
	<line class="st0" x1="130.36" y1="71.23" x2="116.42" y2="71.23"/>
	<line class="st0" x1="113.63" y1="57.28" x2="113.63" y2="57.28"/>
	<line class="st0" x1="109.44" y1="64.25" x2="116.42" y2="64.25"/>
	<line class="st0" x1="102.47" y1="94.93" x2="102.47" y2="110.26"/>
	<line class="st0" x1="102.47" y1="92.14" x2="116.42" y2="92.14"/>
	<line class="st0" x1="102.47" y1="115.84" x2="102.47" y2="120.02"/>
	<line class="st0" x1="102.47" y1="113.05" x2="116.42" y2="113.05"/>
	<line class="st0" x1="77.38" y1="120.02" x2="99.69" y2="120.02"/>
	<line class="st0" x1="67.62" y1="122.81" x2="67.62" y2="122.81"/>
	<line class="st0" x1="71.8" y1="120.02" x2="67.62" y2="120.02"/>
	<line class="st0" x1="46.71" y1="101.9" x2="46.71" y2="133.96"/>
	<line class="st0" x1="53.68" y1="140.93" x2="57.86" y2="140.93"/>
	<line class="st0" x1="39.74" y1="106.08" x2="39.74" y2="147.9"/>
	<line class="st0" x1="46.71" y1="154.87" x2="109.45" y2="154.87"/>
	<line class="st0" x1="116.42" y1="147.9" x2="116.42" y2="133.96"/>
	<line class="st0" x1="120.6" y1="57.28" x2="119.2" y2="57.28"/>
	<line class="st0" x1="116.42" y1="57.28" x2="116.42" y2="57.28"/>
	<line class="st0" x1="116.42" y1="64.25" x2="116.42" y2="64.25"/>
	<line class="st0" x1="116.42" y1="94.93" x2="116.42" y2="110.26"/>
	<line class="st0" x1="116.42" y1="89.35" x2="116.42" y2="74.01"/>
	<line class="st0" x1="116.42" y1="68.44" x2="116.42" y2="67.04"/>
	<line class="st0" x1="116.42" y1="57.28" x2="116.42" y2="61.47"/>
	<line class="st0" x1="109.45" y1="126.99" x2="109.45" y2="131.17"/>
	<line class="st0" x1="102.48" y1="120.02" x2="102.48" y2="131.17"/>
	<line class="st0" x1="116.42" y1="115.84" x2="116.42" y2="133.96"/>
	<line class="st0" x1="123.39" y1="120.02" x2="123.39" y2="126.99"/>
	<line class="st0" x1="119.2" y1="133.96" x2="119.2" y2="133.96"/>
	<line class="st0" x1="67.62" y1="120.02" x2="63.44" y2="120.02"/>
	<line class="st0" x1="67.62" y1="117.23" x2="67.62" y2="113.05"/>
	<line class="st0" x1="60.65" y1="113.05" x2="60.65" y2="120.02"/>
	<line class="st0" x1="60.65" y1="140.93" x2="60.65" y2="136.75"/>
	<line class="st0" x1="63.44" y1="140.93" x2="95.5" y2="140.93"/>
	<line class="st0" x1="102.48" y1="136.75" x2="102.48" y2="136.75"/>
	<line class="st0" x1="67.62" y1="147.9" x2="102.48" y2="147.9"/>
	<line class="st0" x1="109.45" y1="140.93" x2="109.45" y2="136.75"/>
	<polyline class="st0" points="113.63,133.96 109.45,133.96 102.48,133.96 60.65,133.96 	"/>
	<line class="st0" x1="60.65" y1="120.02" x2="60.65" y2="131.17"/>
	<line class="st0" x1="53.68" y1="126.99" x2="53.68" y2="126.99"/>
	<line class="st0" x1="60.65" y1="133.96" x2="60.65" y2="133.96"/>
</g>
</svg>
