<?xml version="1.0" encoding="utf-8"?>
<!-- Generator: Adobe Illustrator 28.1.0, SVG Export Plug-In . SVG Version: 6.00 Build 0)  -->
<svg version="1.1" id="Layer_1" xmlns="http://www.w3.org/2000/svg" xmlns:xlink="http://www.w3.org/1999/xlink" x="0px" y="0px"
	 viewBox="0 0 178.89 180" style="enable-background:new 0 0 178.89 180;" xml:space="preserve">
<style type="text/css">
	.st0{fill:none;stroke:#000000;stroke-width:0.5;stroke-linecap:square;stroke-linejoin:round;stroke-miterlimit:10;}
	.st1{fill:none;stroke:#000000;stroke-width:0.5;stroke-miterlimit:10;}
</style>
<g>
	<path class="st1" d="M149.58,92.14c6.2,0,9.29,3.1,9.29,9.29"/>
	<path class="st1" d="M158.87,120.02c0,6.2-1.86,9.29-5.58,9.29"/>
	<path class="st1" d="M149.58,110.73c0-6.2-1.86-9.29-5.58-9.29"/>
	<path class="st1" d="M149.58,138.61c0,6.2-3.1,9.29-9.29,9.29"/>
	<path class="st1" d="M112.4,147.9c-6.2,0-9.29-3.1-9.29-9.29"/>
	<path class="st1" d="M121.7,73.55c0-6.2-3.1-9.29-9.29-9.29"/>
	<path class="st1" d="M140.29,51.24c0-3.72-3.1-5.58-9.29-5.58"/>
	<path class="st1" d="M112.4,45.67c-6.2,0-9.29,3.1-9.29,9.29"/>
	<path class="st1" d="M140.29,54.96c6.2,0,9.29-3.1,9.29-9.29c0-6.2-3.1-9.29-9.29-9.29"/>
	<path class="st1" d="M84.52,36.37c-6.2,0-9.29,1.86-9.29,5.58"/>
	<path class="st1" d="M140.29,129.31c0,6.2-3.1,9.29-9.29,9.29c-6.2,0-9.29-1.86-9.29-5.58"/>
	<path class="st1" d="M103.11,110.73c-6.2,0-9.29-1.86-9.29-5.58"/>
	<path class="st1" d="M99.39,54.96c-3.72,0-5.58,3.1-5.58,9.29"/>
	<path class="st1" d="M56.64,45.67c-6.2,0-9.29,3.1-9.29,9.29"/>
	<path class="st1" d="M75.22,45.67c6.2,0,9.29,3.1,9.29,9.29"/>
	<path class="st1" d="M121.7,129.31c-9.3,0-9.3-9.29-3.72-9.29"/>
	<path class="st1" d="M121.7,110.73c9.29,0,9.29,9.29,3.72,9.29"/>
	<path class="st1" d="M75.22,73.55c0,6.2-1.86,9.29-5.58,9.29"/>
	<path class="st1" d="M38.05,64.25c-6.2,0-9.29,3.1-9.29,9.3"/>
	<path class="st1" d="M28.75,110.73c0,6.2,3.1,9.29,9.29,9.29"/>
	<path class="st1" d="M75.22,120.02c6.2,0,9.29-3.1,9.29-9.29"/>
	<path class="st1" d="M65.93,82.84c0-9.29-9.3-9.29-9.3-3.72"/>
	<path class="st1" d="M47.34,82.84c-6.2,0-9.29,3.1-9.29,9.29c0,6.2,1.86,9.3,5.58,9.3"/>
	<path class="st1" d="M65.93,105.15c0,3.72-3.1,5.58-9.3,5.58c-6.2,0-9.29-3.1-9.29-9.29"/>
	<path class="st1" d="M65.93,92.14c-6.2,0-9.3-1.86-9.3-5.58"/>
	<line class="st0" x1="144" y1="92.14" x2="149.58" y2="92.14"/>
	<line class="st0" x1="158.87" y1="101.43" x2="158.87" y2="120.02"/>
	<line class="st0" x1="153.3" y1="129.31" x2="153.3" y2="129.31"/>
	<line class="st0" x1="140.29" y1="92.14" x2="140.29" y2="101.43"/>
	<line class="st0" x1="136.57" y1="92.14" x2="121.7" y2="92.14"/>
	<line class="st0" x1="140.29" y1="92.14" x2="140.29" y2="58.68"/>
	<line class="st0" x1="145.86" y1="129.31" x2="144" y2="129.31"/>
	<line class="st0" x1="149.58" y1="129.31" x2="149.58" y2="110.73"/>
	<line class="st0" x1="144" y1="101.43" x2="144" y2="101.43"/>
	<line class="st0" x1="149.58" y1="129.31" x2="149.58" y2="138.61"/>
	<line class="st0" x1="140.29" y1="147.9" x2="112.4" y2="147.9"/>
	<line class="st0" x1="103.11" y1="138.61" x2="103.11" y2="114.44"/>
	<line class="st0" x1="140.29" y1="101.43" x2="140.29" y2="129.31"/>
	<line class="st0" x1="136.57" y1="101.43" x2="121.7" y2="101.43"/>
	<line class="st0" x1="121.7" y1="88.42" x2="121.7" y2="73.55"/>
	<line class="st0" x1="112.4" y1="64.25" x2="103.11" y2="64.25"/>
	<line class="st0" x1="121.7" y1="95.86" x2="121.7" y2="97.71"/>
	<line class="st0" x1="121.7" y1="92.14" x2="106.83" y2="92.14"/>
	<line class="st0" x1="140.29" y1="54.96" x2="106.83" y2="54.96"/>
	<line class="st0" x1="130.99" y1="45.67" x2="112.4" y2="45.67"/>
	<line class="st0" x1="103.11" y1="54.96" x2="103.11" y2="54.96"/>
	<line class="st0" x1="149.58" y1="45.67" x2="149.58" y2="45.67"/>
	<line class="st0" x1="140.29" y1="36.37" x2="84.52" y2="36.37"/>
	<line class="st0" x1="75.22" y1="41.95" x2="75.22" y2="41.95"/>
	<line class="st0" x1="136.57" y1="129.31" x2="121.7" y2="129.31"/>
	<line class="st0" x1="130.99" y1="138.61" x2="130.99" y2="138.61"/>
	<line class="st0" x1="121.7" y1="133.03" x2="121.7" y2="133.03"/>
	<line class="st0" x1="103.11" y1="107.01" x2="103.11" y2="105.15"/>
	<line class="st0" x1="103.11" y1="110.73" x2="121.7" y2="110.73"/>
	<line class="st0" x1="93.81" y1="105.15" x2="93.81" y2="105.15"/>
	<line class="st0" x1="121.7" y1="105.15" x2="121.7" y2="107.01"/>
	<line class="st0" x1="121.7" y1="101.43" x2="103.11" y2="101.43"/>
	<line class="st0" x1="103.11" y1="60.54" x2="103.11" y2="54.96"/>
	<line class="st0" x1="103.11" y1="67.97" x2="103.11" y2="92.14"/>
	<line class="st0" x1="103.11" y1="64.25" x2="97.53" y2="64.25"/>
	<line class="st0" x1="103.11" y1="92.14" x2="103.11" y2="97.71"/>
	<line class="st0" x1="99.39" y1="92.14" x2="93.81" y2="92.14"/>
	<line class="st0" x1="93.81" y1="64.25" x2="93.81" y2="64.25"/>
	<line class="st0" x1="75.23" y1="49.38" x2="75.23" y2="64.25"/>
	<line class="st0" x1="75.23" y1="45.67" x2="56.64" y2="45.67"/>
	<line class="st0" x1="47.34" y1="54.96" x2="47.34" y2="60.54"/>
	<line class="st0" x1="84.52" y1="54.96" x2="84.52" y2="60.54"/>
	<line class="st0" x1="121.7" y1="125.6" x2="121.7" y2="120.02"/>
	<line class="st0" x1="117.98" y1="120.02" x2="117.98" y2="120.02"/>
	<line class="st0" x1="103.11" y1="101.43" x2="93.81" y2="101.43"/>
	<line class="st0" x1="125.42" y1="120.02" x2="125.42" y2="120.02"/>
	<line class="st0" x1="121.7" y1="114.44" x2="121.7" y2="120.02"/>
	<line class="st0" x1="93.81" y1="97.71" x2="93.81" y2="95.86"/>
	<line class="st0" x1="93.81" y1="101.43" x2="88.24" y2="101.43"/>
	<line class="st0" x1="90.1" y1="64.25" x2="84.52" y2="64.25"/>
	<line class="st0" x1="93.81" y1="64.25" x2="93.81" y2="88.42"/>
	<line class="st0" x1="93.81" y1="92.14" x2="84.52" y2="92.14"/>
	<line class="st0" x1="71.51" y1="64.25" x2="47.34" y2="64.25"/>
	<line class="st0" x1="78.94" y1="64.25" x2="84.52" y2="64.25"/>
	<line class="st0" x1="75.22" y1="64.25" x2="75.22" y2="73.55"/>
	<line class="st0" x1="69.65" y1="82.84" x2="69.65" y2="82.84"/>
	<line class="st0" x1="47.34" y1="67.97" x2="47.34" y2="79.13"/>
	<line class="st0" x1="47.34" y1="64.25" x2="38.05" y2="64.25"/>
	<line class="st0" x1="28.75" y1="73.55" x2="28.75" y2="110.73"/>
	<line class="st0" x1="38.05" y1="120.02" x2="75.22" y2="120.02"/>
	<line class="st0" x1="84.52" y1="110.73" x2="84.52" y2="101.43"/>
	<line class="st0" x1="84.52" y1="67.97" x2="84.52" y2="88.42"/>
	<line class="st0" x1="80.8" y1="101.43" x2="65.93" y2="101.43"/>
	<line class="st0" x1="84.52" y1="101.43" x2="84.52" y2="95.86"/>
	<line class="st0" x1="84.52" y1="92.14" x2="65.93" y2="92.14"/>
	<line class="st0" x1="62.21" y1="82.84" x2="56.64" y2="82.84"/>
	<line class="st0" x1="56.64" y1="79.13" x2="56.64" y2="79.13"/>
	<line class="st0" x1="65.93" y1="82.84" x2="65.93" y2="88.42"/>
	<line class="st0" x1="47.34" y1="86.56" x2="47.34" y2="101.43"/>
	<line class="st0" x1="38.05" y1="92.14" x2="38.05" y2="92.14"/>
	<line class="st0" x1="43.63" y1="101.43" x2="43.63" y2="101.43"/>
	<line class="st0" x1="47.34" y1="82.84" x2="56.64" y2="82.84"/>
	<line class="st0" x1="65.93" y1="97.71" x2="65.93" y2="95.86"/>
	<line class="st0" x1="56.64" y1="110.73" x2="56.64" y2="110.73"/>
	<line class="st0" x1="47.34" y1="101.43" x2="47.34" y2="101.43"/>
	<line class="st0" x1="65.93" y1="101.43" x2="51.06" y2="101.43"/>
	<line class="st0" x1="56.64" y1="86.56" x2="56.64" y2="86.56"/>
</g>
</svg>
