<?xml version="1.0" encoding="utf-8"?>
<!-- Generator: Adobe Illustrator 28.1.0, SVG Export Plug-In . SVG Version: 6.00 Build 0)  -->
<svg version="1.1" id="Layer_1" xmlns="http://www.w3.org/2000/svg" xmlns:xlink="http://www.w3.org/1999/xlink" x="0px" y="0px"
	 viewBox="0 0 178.89 180" style="enable-background:new 0 0 178.89 180;" xml:space="preserve">
<style type="text/css">
	.st0{fill:none;stroke:#000000;stroke-width:0.5;stroke-linecap:square;stroke-linejoin:round;stroke-miterlimit:10;}
	.st1{fill:none;stroke:#000000;stroke-width:0.5;stroke-miterlimit:10;}
</style>
<g>
	<path class="st1" d="M118.58,130.62c3.72,0,5.58-3.1,5.58-9.29"/>
	<path class="st1" d="M114.86,130.62c0,6.2,3.1,9.29,9.29,9.29s9.29-3.1,9.29-9.29"/>
	<path class="st1" d="M111.14,130.62c-3.72,0-5.58-3.1-5.58-9.29"/>
	<path class="st1" d="M124.15,121.32c0-9.29-9.29-9.29-9.29,0"/>
	<path class="st1" d="M137.17,121.32c3.72,0,5.58-3.1,5.58-9.29"/>
	<path class="st1" d="M142.74,102.73c0-6.2-3.1-9.29-9.29-9.29"/>
	<path class="st1" d="M114.86,93.44c-6.2,0-9.29,3.1-9.29,9.29"/>
	<path class="st1" d="M133.45,112.03c0-6.2-3.1-9.29-9.29-9.29"/>
	<path class="st1" d="M101.85,121.32c-3.72,0-5.58-3.1-5.58-9.29"/>
	<path class="st1" d="M96.27,93.44c0-6.2,3.1-9.29,9.29-9.29"/>
	<path class="st1" d="M142.74,84.14c6.2,0,9.29,3.1,9.29,9.29"/>
	<path class="st1" d="M152.04,139.91c0,6.2-3.1,9.29-9.29,9.29"/>
	<path class="st1" d="M96.27,149.2c-6.2,0-9.29-3.1-9.29-9.29"/>
	<path class="st1" d="M86.98,65.56c0-6.2-3.1-9.3-9.3-9.3"/>
	<path class="st1" d="M68.39,106.45c0,3.72-3.1,5.58-9.3,5.58"/>
	<path class="st1" d="M40.51,112.03c-6.2,0-9.3-3.1-9.3-9.29"/>
	<path class="st1" d="M49.8,102.73c-6.2,0-9.29-1.86-9.29-5.58"/>
	<path class="st1" d="M68.39,46.97c0-6.2-3.1-9.29-9.3-9.29"/>
	<path class="st1" d="M49.8,37.67c-6.2,0-9.29,1.86-9.29,5.58"/>
	<path class="st1" d="M21.92,93.44c-6.2,0-9.29-3.1-9.29-9.3"/>
	<path class="st1" d="M12.62,65.56c0-6.2,3.1-9.29,9.29-9.29"/>
	<path class="st1" d="M40.51,93.44c6.2,0,9.29-1.86,9.29-5.58"/>
	<path class="st1" d="M68.39,74.85c9.29,0,9.29-9.29,3.72-9.29"/>
	<path class="st1" d="M59.09,52.54c0-3.72-3.1-5.58-9.29-5.58"/>
	<path class="st1" d="M40.51,46.97c-6.2,0-9.3,1.86-9.3,5.58"/>
	<path class="st1" d="M31.21,84.14c-6.2,0-9.29-3.1-9.29-9.29c0-6.2,1.86-9.29,5.58-9.29"/>
	<path class="st1" d="M49.8,80.43c0-3.72,3.1-5.58,9.29-5.58"/>
	<path class="st1" d="M49.8,84.14c6.2,0,9.29-1.86,9.29-5.58"/>
	<line class="st0" x1="124.15" y1="121.32" x2="124.15" y2="121.32"/>
	<line class="st0" x1="124.15" y1="139.91" x2="124.15" y2="139.91"/>
	<line class="st0" x1="133.45" y1="130.62" x2="133.45" y2="121.32"/>
	<line class="st0" x1="105.57" y1="121.32" x2="105.57" y2="121.32"/>
	<line class="st0" x1="114.86" y1="130.62" x2="114.86" y2="121.32"/>
	<line class="st0" x1="127.87" y1="121.32" x2="129.73" y2="121.32"/>
	<line class="st0" x1="120.44" y1="121.32" x2="118.58" y2="121.32"/>
	<line class="st0" x1="114.86" y1="121.32" x2="114.86" y2="121.32"/>
	<line class="st0" x1="142.74" y1="112.03" x2="142.74" y2="102.73"/>
	<line class="st0" x1="133.45" y1="93.44" x2="114.86" y2="93.44"/>
	<line class="st0" x1="105.57" y1="102.73" x2="105.57" y2="102.73"/>
	<line class="st0" x1="133.45" y1="121.32" x2="133.45" y2="112.03"/>
	<line class="st0" x1="124.15" y1="102.73" x2="109.28" y2="102.73"/>
	<line class="st0" x1="109.28" y1="121.32" x2="111.14" y2="121.32"/>
	<line class="st0" x1="96.27" y1="112.03" x2="96.27" y2="102.73"/>
	<line class="st0" x1="105.57" y1="121.32" x2="105.57" y2="102.73"/>
	<line class="st0" x1="101.85" y1="102.73" x2="99.99" y2="102.73"/>
	<line class="st0" x1="92.55" y1="102.73" x2="86.98" y2="102.73"/>
	<line class="st0" x1="96.27" y1="102.73" x2="96.27" y2="93.44"/>
	<line class="st0" x1="105.57" y1="84.14" x2="142.74" y2="84.14"/>
	<line class="st0" x1="152.04" y1="93.44" x2="152.04" y2="139.91"/>
	<line class="st0" x1="142.74" y1="149.2" x2="96.27" y2="149.2"/>
	<line class="st0" x1="86.98" y1="139.91" x2="86.98" y2="106.45"/>
	<line class="st0" x1="86.98" y1="102.73" x2="68.39" y2="102.73"/>
	<line class="st0" x1="86.98" y1="99.01" x2="86.98" y2="65.56"/>
	<line class="st0" x1="77.68" y1="56.26" x2="68.39" y2="56.26"/>
	<line class="st0" x1="59.09" y1="112.03" x2="40.51" y2="112.03"/>
	<line class="st0" x1="31.21" y1="102.73" x2="31.21" y2="93.44"/>
	<line class="st0" x1="68.39" y1="102.73" x2="49.8" y2="102.73"/>
	<line class="st0" x1="40.51" y1="97.16" x2="40.51" y2="97.16"/>
	<line class="st0" x1="68.39" y1="99.01" x2="68.39" y2="78.57"/>
	<line class="st0" x1="68.39" y1="59.98" x2="68.39" y2="65.56"/>
	<line class="st0" x1="68.39" y1="56.26" x2="59.09" y2="56.26"/>
	<line class="st0" x1="68.39" y1="52.54" x2="68.39" y2="46.97"/>
	<line class="st0" x1="59.09" y1="37.67" x2="49.8" y2="37.67"/>
	<line class="st0" x1="40.51" y1="43.25" x2="40.51" y2="43.25"/>
	<line class="st0" x1="27.49" y1="93.44" x2="21.92" y2="93.44"/>
	<line class="st0" x1="12.62" y1="84.14" x2="12.62" y2="65.56"/>
	<line class="st0" x1="21.92" y1="56.26" x2="31.21" y2="56.26"/>
	<line class="st0" x1="31.21" y1="93.44" x2="31.21" y2="87.86"/>
	<line class="st0" x1="34.93" y1="93.44" x2="40.51" y2="93.44"/>
	<line class="st0" x1="40.51" y1="89.72" x2="40.51" y2="87.86"/>
	<line class="st0" x1="49.8" y1="87.86" x2="49.8" y2="87.86"/>
	<line class="st0" x1="68.39" y1="74.85" x2="59.09" y2="74.85"/>
	<line class="st0" x1="68.39" y1="71.13" x2="68.39" y2="65.56"/>
	<line class="st0" x1="72.11" y1="65.56" x2="72.11" y2="65.56"/>
	<line class="st0" x1="64.67" y1="65.56" x2="62.81" y2="65.56"/>
	<line class="st0" x1="59.09" y1="59.98" x2="59.09" y2="65.56"/>
	<line class="st0" x1="59.09" y1="56.26" x2="40.51" y2="56.26"/>
	<line class="st0" x1="49.8" y1="46.97" x2="40.51" y2="46.97"/>
	<line class="st0" x1="40.51" y1="50.68" x2="40.51" y2="52.54"/>
	<line class="st0" x1="31.21" y1="52.54" x2="31.21" y2="52.54"/>
	<line class="st0" x1="31.21" y1="56.26" x2="40.51" y2="56.26"/>
	<line class="st0" x1="31.21" y1="59.98" x2="31.21" y2="65.56"/>
	<line class="st0" x1="31.21" y1="80.43" x2="31.21" y2="65.56"/>
	<line class="st0" x1="31.21" y1="84.14" x2="40.51" y2="84.14"/>
	<line class="st0" x1="21.92" y1="74.85" x2="21.92" y2="74.85"/>
	<line class="st0" x1="27.49" y1="65.56" x2="27.49" y2="65.56"/>
	<line class="st0" x1="40.51" y1="80.43" x2="40.51" y2="65.56"/>
	<line class="st0" x1="40.51" y1="84.14" x2="49.8" y2="84.14"/>
	<line class="st0" x1="59.09" y1="74.85" x2="59.09" y2="74.85"/>
	<line class="st0" x1="59.09" y1="78.57" x2="59.09" y2="78.57"/>
	<line class="st0" x1="59.09" y1="71.13" x2="59.09" y2="65.56"/>
	<line class="st0" x1="55.38" y1="65.56" x2="44.22" y2="65.56"/>
	<line class="st0" x1="40.51" y1="59.98" x2="40.51" y2="65.56"/>
	<line class="st0" x1="34.93" y1="65.56" x2="36.79" y2="65.56"/>
</g>
</svg>
