<?xml version="1.0" encoding="utf-8"?>
<!-- Generator: Adobe Illustrator 28.1.0, SVG Export Plug-In . SVG Version: 6.00 Build 0)  -->
<svg version="1.1" id="Layer_1" xmlns="http://www.w3.org/2000/svg" xmlns:xlink="http://www.w3.org/1999/xlink" x="0px" y="0px"
	 viewBox="0 0 178.89 180" style="enable-background:new 0 0 178.89 180;" xml:space="preserve">
<style type="text/css">
	.st0{fill:none;stroke:#000000;stroke-width:0.5;stroke-linecap:square;stroke-linejoin:round;stroke-miterlimit:10;}
	.st1{fill:none;stroke:#000000;stroke-width:0.5;stroke-miterlimit:10;}
</style>
<g>
	<path class="st1" d="M156.23,129.54c4.06,0,6.08-3.38,6.08-10.14c0-6.76-3.38-10.14-10.14-10.14"/>
	<path class="st1" d="M152.18,139.68c0,6.76-3.38,10.14-10.14,10.14c-6.76,0-10.14-2.03-10.14-6.08"/>
	<path class="st1" d="M152.18,129.54c0-6.76-2.03-10.14-6.08-10.14"/>
	<path class="st1" d="M137.98,109.27c-4.05,0-6.08,2.03-6.08,6.08"/>
	<path class="st1" d="M142.04,109.27c0-6.76-3.38-10.14-10.14-10.14c-6.76,0-10.14,3.38-10.14,10.14"/>
	<path class="st1" d="M121.76,139.68c-6.76,0-10.14-3.38-10.14-10.14"/>
	<path class="st1" d="M131.9,139.68c6.76,0,10.14-3.38,10.14-10.14"/>
	<path class="st1" d="M121.76,119.41c0,6.76,2.03,10.14,6.08,10.14"/>
	<path class="st1" d="M111.62,78.85c0-6.76-3.38-10.14-10.14-10.14"/>
	<path class="st1" d="M101.48,88.99c0-6.76-3.38-10.14-10.14-10.14"/>
	<path class="st1" d="M101.48,139.68c0,6.76-3.38,10.14-10.14,10.14"/>
	<path class="st1" d="M30.51,149.82c-6.76,0-10.14-3.38-10.14-10.14"/>
	<path class="st1" d="M20.37,58.57c0-6.76,3.38-10.14,10.14-10.14"/>
	<path class="st1" d="M87.29,68.71c-6.08,0-6.08-10.14,0-10.14"/>
	<path class="st1" d="M91.34,129.54c0,6.76-3.38,10.14-10.14,10.14"/>
	<path class="st1" d="M40.65,139.68c-6.76,0-10.14-3.38-10.14-10.14"/>
	<path class="st1" d="M30.51,88.99c0-6.76,3.38-10.14,10.14-10.14"/>
	<path class="st1" d="M60.93,48.43c0-6.76,3.38-10.14,10.14-10.14"/>
	<path class="st1" d="M81.2,38.29c6.76,0,10.14,2.03,10.14,6.08"/>
	<path class="st1" d="M91.34,58.57c10.14,0,10.14-10.14,0-10.14"/>
	<path class="st1" d="M71.06,123.46c0,6.08-10.14,6.08-10.14,0"/>
	<path class="st1" d="M64.98,88.99c4.06,0,6.08,2.03,6.08,6.08"/>
	<path class="st1" d="M56.87,88.99c-4.06,0-6.08,3.38-6.08,10.14"/>
	<path class="st1" d="M50.79,119.41c-6.76,0-10.14-3.38-10.14-10.14c0-6.76,2.03-10.14,6.08-10.14"/>
	<path class="st1" d="M71.06,109.27c10.14,0,10.14-10.14,0-10.14"/>
	<path class="st1" d="M50.79,99.13c0,6.76,3.38,10.14,10.14,10.14"/>
	<line class="st0" x1="162.32" y1="119.41" x2="162.32" y2="119.41"/>
	<line class="st0" x1="152.18" y1="109.27" x2="146.09" y2="109.27"/>
	<line class="st0" x1="152.18" y1="129.54" x2="152.18" y2="139.68"/>
	<line class="st0" x1="142.04" y1="149.82" x2="142.04" y2="149.82"/>
	<line class="st0" x1="131.9" y1="143.74" x2="131.9" y2="143.74"/>
	<line class="st0" x1="148.12" y1="129.54" x2="146.1" y2="129.54"/>
	<line class="st0" x1="146.1" y1="119.41" x2="146.1" y2="119.41"/>
	<line class="st0" x1="131.9" y1="115.35" x2="131.9" y2="115.35"/>
	<line class="st0" x1="131.9" y1="99.13" x2="131.9" y2="99.13"/>
	<line class="st0" x1="121.76" y1="109.27" x2="121.76" y2="119.4"/>
	<line class="st0" x1="142.04" y1="109.27" x2="142.04" y2="119.4"/>
	<line class="st0" x1="131.9" y1="139.68" x2="121.76" y2="139.68"/>
	<line class="st0" x1="111.62" y1="129.54" x2="111.62" y2="123.46"/>
	<line class="st0" x1="131.9" y1="135.63" x2="131.9" y2="129.54"/>
	<line class="st0" x1="142.04" y1="129.54" x2="142.04" y2="129.54"/>
	<line class="st0" x1="137.98" y1="129.54" x2="135.96" y2="129.54"/>
	<line class="st0" x1="142.04" y1="129.54" x2="142.04" y2="119.4"/>
	<line class="st0" x1="137.98" y1="119.4" x2="131.9" y2="119.4"/>
	<line class="st0" x1="131.9" y1="123.46" x2="131.9" y2="129.54"/>
	<line class="st0" x1="131.9" y1="119.4" x2="125.82" y2="119.4"/>
	<line class="st0" x1="117.7" y1="119.4" x2="111.62" y2="119.4"/>
	<line class="st0" x1="127.84" y1="129.54" x2="127.84" y2="129.54"/>
	<line class="st0" x1="111.62" y1="119.4" x2="105.54" y2="119.4"/>
	<line class="st0" x1="111.62" y1="115.35" x2="111.62" y2="78.85"/>
	<line class="st0" x1="101.48" y1="68.71" x2="95.4" y2="68.71"/>
	<line class="st0" x1="97.43" y1="119.4" x2="91.34" y2="119.4"/>
	<line class="st0" x1="101.48" y1="119.4" x2="101.48" y2="88.99"/>
	<line class="st0" x1="91.34" y1="78.85" x2="91.34" y2="78.85"/>
	<line class="st0" x1="101.48" y1="119.4" x2="101.48" y2="139.68"/>
	<line class="st0" x1="91.34" y1="149.82" x2="30.51" y2="149.82"/>
	<line class="st0" x1="20.37" y1="139.68" x2="20.37" y2="58.57"/>
	<line class="st0" x1="30.51" y1="48.43" x2="56.87" y2="48.43"/>
	<line class="st0" x1="91.34" y1="68.71" x2="91.34" y2="74.79"/>
	<line class="st0" x1="87.29" y1="58.57" x2="91.34" y2="58.57"/>
	<line class="st0" x1="91.34" y1="68.71" x2="91.34" y2="62.62"/>
	<line class="st0" x1="91.34" y1="123.46" x2="91.34" y2="129.54"/>
	<line class="st0" x1="81.2" y1="139.68" x2="40.65" y2="139.68"/>
	<line class="st0" x1="30.51" y1="129.54" x2="30.51" y2="88.99"/>
	<line class="st0" x1="40.65" y1="78.85" x2="60.92" y2="78.85"/>
	<line class="st0" x1="91.34" y1="119.4" x2="71.06" y2="119.4"/>
	<line class="st0" x1="91.34" y1="115.35" x2="91.34" y2="82.9"/>
	<line class="st0" x1="91.34" y1="78.85" x2="60.92" y2="78.85"/>
	<line class="st0" x1="64.98" y1="48.43" x2="91.34" y2="48.43"/>
	<line class="st0" x1="60.92" y1="48.43" x2="60.92" y2="74.79"/>
	<line class="st0" x1="71.06" y1="38.29" x2="81.2" y2="38.29"/>
	<line class="st0" x1="91.34" y1="44.37" x2="91.34" y2="44.37"/>
	<line class="st0" x1="91.34" y1="54.51" x2="91.34" y2="52.48"/>
	<line class="st0" x1="91.34" y1="48.43" x2="91.34" y2="48.43"/>
	<line class="st0" x1="60.92" y1="82.9" x2="60.92" y2="88.98"/>
	<line class="st0" x1="60.92" y1="123.46" x2="60.92" y2="119.4"/>
	<line class="st0" x1="71.06" y1="119.4" x2="64.98" y2="119.4"/>
	<line class="st0" x1="71.06" y1="115.35" x2="71.06" y2="113.32"/>
	<line class="st0" x1="71.06" y1="95.07" x2="71.06" y2="95.07"/>
	<line class="st0" x1="60.92" y1="88.99" x2="60.92" y2="95.07"/>
	<line class="st0" x1="50.79" y1="99.13" x2="50.79" y2="99.13"/>
	<line class="st0" x1="56.87" y1="119.4" x2="50.79" y2="119.4"/>
	<line class="st0" x1="40.65" y1="109.26" x2="40.65" y2="109.26"/>
	<line class="st0" x1="46.73" y1="99.13" x2="46.73" y2="99.13"/>
	<line class="st0" x1="60.92" y1="119.4" x2="60.92" y2="113.32"/>
	<line class="st0" x1="71.06" y1="109.26" x2="60.92" y2="109.26"/>
	<line class="st0" x1="71.06" y1="105.21" x2="71.06" y2="103.18"/>
	<polyline class="st0" points="71.06,99.12 71.06,99.12 60.92,99.12 	"/>
	<line class="st0" x1="60.92" y1="103.18" x2="60.92" y2="105.21"/>
	<line class="st0" x1="60.92" y1="99.12" x2="54.84" y2="99.12"/>
	<line class="st0" x1="60.92" y1="109.26" x2="60.92" y2="109.26"/>
</g>
</svg>
