<?xml version="1.0" encoding="utf-8"?>
<!-- Generator: Adobe Illustrator 28.1.0, SVG Export Plug-In . SVG Version: 6.00 Build 0)  -->
<svg version="1.1" id="Layer_1" xmlns="http://www.w3.org/2000/svg" xmlns:xlink="http://www.w3.org/1999/xlink" x="0px" y="0px"
	 viewBox="0 0 178.89 180" style="enable-background:new 0 0 178.89 180;" xml:space="preserve">
<style type="text/css">
	.st0{fill:none;stroke:#000000;stroke-width:0.5;stroke-linecap:square;stroke-linejoin:round;stroke-miterlimit:10;}
	.st1{fill:none;stroke:#000000;stroke-width:0.5;stroke-miterlimit:10;}
</style>
<g>
	<path class="st1" d="M109.48,70.82c-10.17,0-15.26-5.09-15.26-15.26"/>
	<path class="st1" d="M140.01,101.34c0,10.18-3.56,15.26-10.68,15.26"/>
	<path class="st1" d="M140.01,66.24c0-7.12-3.56-10.68-10.68-10.68"/>
	<g>
		<path class="st1" d="M140.01,70.82c10.18,0,15.26,5.09,15.26,15.26"/>
		<path class="st1" d="M155.27,116.61c0,10.17-5.09,15.26-15.26,15.26"/>
	</g>
	<path class="st1" d="M124.75,55.55c0-10.17-5.09-15.26-15.26-15.26"/>
	<path class="st1" d="M124.75,136.45c0,10.68-15.26,10.68-15.26,0"/>
	<path class="st1" d="M109.48,116.61c0-10.18-5.09-15.26-15.26-15.26"/>
	<path class="st1" d="M94.22,35.71c0-10.68-15.26-10.68-15.26,0"/>
	<path class="st1" d="M104.9,131.87c-7.12,0-10.68-5.09-10.68-15.26"/>
	<path class="st1" d="M94.22,96.76c0-7.12-5.09-10.68-15.26-10.68c-10.18,0-15.26-5.09-15.26-15.26"/>
	<path class="st1" d="M59.12,55.55c-7.12,0-10.68,5.09-10.68,15.26"/>
	<path class="st1" d="M63.69,55.55c0-10.17,3.56-15.26,10.68-15.26"/>
	<path class="st1" d="M78.96,131.87c0,10.18-5.09,15.26-15.26,15.26"/>
	<path class="st1" d="M33.17,147.13c-10.18,0-15.26-5.09-15.26-15.26c0-10.17,5.09-15.26,15.26-15.26"/>
	<path class="st1" d="M48.43,101.34c-10.17,0-15.26,3.56-15.26,10.68"/>
	<path class="st1" d="M48.43,116.61c0,15.26-15.26,15.26-15.26,4.58"/>
	<line class="st0" x1="129.32" y1="70.82" x2="140.01" y2="70.82"/>
	<line class="st0" x1="124.75" y1="70.82" x2="124.75" y2="116.61"/>
	<line class="st0" x1="120.17" y1="70.82" x2="109.48" y2="70.82"/>
	<line class="st0" x1="94.22" y1="55.55" x2="94.22" y2="55.55"/>
	<line class="st0" x1="124.75" y1="70.82" x2="124.75" y2="55.55"/>
	<line class="st0" x1="140.01" y1="75.4" x2="140.01" y2="101.34"/>
	<line class="st0" x1="129.32" y1="116.61" x2="129.32" y2="116.61"/>
	<line class="st0" x1="129.32" y1="55.55" x2="129.32" y2="55.55"/>
	<g>
		<line class="st0" x1="155.27" y1="86.08" x2="155.27" y2="116.61"/>
	</g>
	<line class="st0" x1="140.01" y1="131.87" x2="124.75" y2="131.87"/>
	<line class="st0" x1="120.17" y1="116.61" x2="114.06" y2="116.61"/>
	<line class="st0" x1="124.75" y1="116.61" x2="124.75" y2="127.29"/>
	<line class="st0" x1="98.8" y1="55.55" x2="120.17" y2="55.55"/>
	<line class="st0" x1="89.64" y1="55.55" x2="83.54" y2="55.55"/>
	<line class="st0" x1="94.22" y1="55.55" x2="94.22" y2="44.87"/>
	<line class="st0" x1="109.48" y1="40.29" x2="94.22" y2="40.29"/>
	<line class="st0" x1="109.48" y1="136.45" x2="109.48" y2="131.87"/>
	<line class="st0" x1="124.75" y1="131.87" x2="114.06" y2="131.87"/>
	<line class="st0" x1="104.9" y1="116.61" x2="98.8" y2="116.61"/>
	<line class="st0" x1="94.22" y1="101.34" x2="94.22" y2="101.34"/>
	<line class="st0" x1="109.48" y1="116.61" x2="109.48" y2="131.87"/>
	<line class="st0" x1="78.96" y1="55.55" x2="78.96" y2="81.5"/>
	<line class="st0" x1="74.38" y1="55.55" x2="68.27" y2="55.55"/>
	<line class="st0" x1="78.96" y1="55.55" x2="78.96" y2="40.29"/>
	<line class="st0" x1="94.22" y1="40.29" x2="83.54" y2="40.29"/>
	<line class="st0" x1="78.96" y1="35.71" x2="78.96" y2="40.29"/>
	<line class="st0" x1="94.22" y1="116.61" x2="94.22" y2="116.61"/>
	<line class="st0" x1="89.64" y1="116.61" x2="83.54" y2="116.61"/>
	<line class="st0" x1="94.22" y1="116.61" x2="94.22" y2="105.92"/>
	<line class="st0" x1="78.96" y1="86.08" x2="78.96" y2="86.08"/>
	<line class="st0" x1="94.22" y1="101.34" x2="83.54" y2="101.34"/>
	<line class="st0" x1="78.96" y1="90.66" x2="78.96" y2="101.34"/>
	<line class="st0" x1="63.69" y1="70.82" x2="63.69" y2="55.55"/>
	<line class="st0" x1="48.43" y1="70.82" x2="48.43" y2="96.76"/>
	<line class="st0" x1="74.38" y1="40.29" x2="74.38" y2="40.29"/>
	<line class="st0" x1="74.38" y1="116.61" x2="53.01" y2="116.61"/>
	<line class="st0" x1="78.96" y1="116.61" x2="78.96" y2="101.34"/>
	<line class="st0" x1="78.96" y1="116.61" x2="78.96" y2="131.87"/>
	<line class="st0" x1="63.69" y1="147.13" x2="33.17" y2="147.13"/>
	<line class="st0" x1="17.91" y1="131.87" x2="17.91" y2="131.87"/>
	<line class="st0" x1="33.17" y1="116.61" x2="33.17" y2="116.61"/>
	<line class="st0" x1="74.38" y1="101.34" x2="48.43" y2="101.34"/>
	<line class="st0" x1="48.43" y1="105.92" x2="48.43" y2="116.61"/>
	<line class="st0" x1="33.17" y1="112.03" x2="33.17" y2="112.03"/>
	<line class="st0" x1="43.85" y1="116.61" x2="33.17" y2="116.61"/>
	<line class="st0" x1="33.17" y1="121.18" x2="33.17" y2="121.18"/>
</g>
</svg>
