<?xml version="1.0" encoding="utf-8"?>
<!-- Generator: Adobe Illustrator 28.1.0, SVG Export Plug-In . SVG Version: 6.00 Build 0)  -->
<svg version="1.1" id="Layer_1" xmlns="http://www.w3.org/2000/svg" xmlns:xlink="http://www.w3.org/1999/xlink" x="0px" y="0px"
	 viewBox="0 0 178.89 180" style="enable-background:new 0 0 178.89 180;" xml:space="preserve">
<style type="text/css">
	.st0{fill:none;stroke:#000000;stroke-width:0.5;stroke-linecap:square;stroke-linejoin:round;stroke-miterlimit:10;}
	.st1{fill:none;stroke:#000000;stroke-width:0.5;stroke-miterlimit:10;}
</style>
<g>
	<path class="st1" d="M62.51,116.8c0,5.81,2.03,8.72,6.1,8.72"/>
	<path class="st1" d="M62.51,108.07c0-5.81,2.91-8.72,8.72-8.72"/>
	<path class="st1" d="M79.95,99.35c5.82,0,8.72,2.91,8.72,8.72c0,5.82-2.91,8.72-8.72,8.72"/>
	<path class="st1" d="M71.23,116.8c0-8.72,8.72-8.72,8.72-2.62"/>
	<path class="st1" d="M71.23,125.52c0,5.81-2.91,8.72-8.72,8.72c-5.82,0-8.72-2.91-8.72-8.72"/>
	<path class="st1" d="M53.79,99.35c0-5.82,2.91-8.72,8.72-8.72"/>
	<path class="st1" d="M88.67,90.63c5.81,0,8.72,2.91,8.72,8.72"/>
	<path class="st1" d="M97.39,116.8c0,5.81-2.91,8.72-8.72,8.72"/>
	<path class="st1" d="M45.06,134.24c0,5.81,2.91,8.72,8.72,8.72"/>
	<path class="st1" d="M42.45,116.8c-4.07,0-6.1-2.91-6.1-8.72"/>
	<path class="st1" d="M36.34,90.63c0-5.81,2.91-8.72,8.72-8.72"/>
	<path class="st1" d="M79.95,145.58c0,4.07,2.91,6.11,8.72,6.11"/>
	<path class="st1" d="M97.39,151.68c5.82,0,8.72-2.91,8.72-8.72"/>
	<path class="st1" d="M45.06,79.29c0-4.07,2.91-6.11,8.72-6.11"/>
	<path class="st1" d="M108.73,142.96c4.07,0,6.11-2.91,6.11-8.72"/>
	<path class="st1" d="M114.84,90.63c0-5.81-2.91-8.72-8.72-8.72"/>
	<path class="st1" d="M106.12,73.19c5.82,0,8.72-2.91,8.72-8.72"/>
	<path class="st1" d="M97.39,64.47c-5.81,0-8.72-2.91-8.72-8.72s2.91-8.72,8.72-8.72"/>
	<path class="st1" d="M117.45,64.47c4.07,0,6.11-2.03,6.11-6.1"/>
	<path class="st1" d="M97.39,44.41c0-4.07,2.04-6.11,6.11-6.11"/>
	<path class="st1" d="M97.39,49.64c0,4.07,2.04,6.11,6.11,6.11"/>
	<path class="st1" d="M114.84,55.75c0-5.81-2.91-8.72-8.72-8.72"/>
	<path class="st1" d="M123.56,47.03c0-5.82-2.91-8.72-8.72-8.72"/>
	<path class="st1" d="M123.56,55.75c5.81,0,8.72-2.91,8.72-8.72"/>
	<path class="st1" d="M132.28,38.3c0-5.82-2.91-8.72-8.72-8.72"/>
	<path class="st1" d="M114.84,29.58c-5.82,0-8.72,2.91-8.72,8.72"/>
	<line class="st0" x1="65.12" y1="116.8" x2="68.61" y2="116.8"/>
	<line class="st0" x1="68.61" y1="125.52" x2="68.61" y2="125.52"/>
	<line class="st0" x1="59.89" y1="116.8" x2="56.4" y2="116.8"/>
	<line class="st0" x1="62.51" y1="116.8" x2="62.51" y2="108.07"/>
	<line class="st0" x1="71.23" y1="99.35" x2="79.95" y2="99.35"/>
	<line class="st0" x1="88.67" y1="108.07" x2="88.67" y2="108.07"/>
	<line class="st0" x1="79.95" y1="116.8" x2="79.95" y2="116.8"/>
	<line class="st0" x1="73.85" y1="116.8" x2="79.95" y2="116.8"/>
	<line class="st0" x1="71.23" y1="116.8" x2="71.23" y2="125.52"/>
	<line class="st0" x1="79.95" y1="114.18" x2="79.95" y2="114.18"/>
	<line class="st0" x1="73.85" y1="125.52" x2="79.95" y2="125.52"/>
	<line class="st0" x1="62.51" y1="134.24" x2="62.51" y2="134.24"/>
	<line class="st0" x1="53.79" y1="125.52" x2="53.79" y2="116.8"/>
	<line class="st0" x1="51.17" y1="116.8" x2="47.68" y2="116.8"/>
	<line class="st0" x1="53.79" y1="116.8" x2="53.79" y2="99.35"/>
	<line class="st0" x1="62.51" y1="90.63" x2="88.67" y2="90.63"/>
	<line class="st0" x1="97.39" y1="99.35" x2="97.39" y2="116.8"/>
	<line class="st0" x1="88.67" y1="125.52" x2="79.95" y2="125.52"/>
	<line class="st0" x1="79.95" y1="119.41" x2="79.95" y2="122.9"/>
	<line class="st0" x1="79.95" y1="128.13" x2="79.95" y2="140.34"/>
	<line class="st0" x1="45.06" y1="116.8" x2="45.06" y2="134.24"/>
	<line class="st0" x1="53.79" y1="142.96" x2="79.95" y2="142.96"/>
	<line class="st0" x1="36.34" y1="108.07" x2="36.34" y2="90.63"/>
	<line class="st0" x1="45.06" y1="81.91" x2="45.06" y2="81.91"/>
	<line class="st0" x1="45.06" y1="116.8" x2="45.06" y2="84.53"/>
	<line class="st0" x1="88.67" y1="151.68" x2="97.39" y2="151.68"/>
	<line class="st0" x1="106.12" y1="142.96" x2="106.12" y2="142.96"/>
	<line class="st0" x1="79.95" y1="142.96" x2="103.5" y2="142.96"/>
	<line class="st0" x1="53.79" y1="73.19" x2="106.12" y2="73.19"/>
	<line class="st0" x1="45.06" y1="81.91" x2="106.12" y2="81.91"/>
	<line class="st0" x1="114.84" y1="134.24" x2="114.84" y2="90.63"/>
	<line class="st0" x1="106.12" y1="81.91" x2="106.12" y2="81.91"/>
	<line class="st0" x1="106.12" y1="142.96" x2="106.12" y2="84.53"/>
	<line class="st0" x1="106.12" y1="70.57" x2="106.12" y2="64.47"/>
	<line class="st0" x1="114.84" y1="64.47" x2="114.84" y2="64.47"/>
	<line class="st0" x1="106.12" y1="75.81" x2="106.12" y2="79.29"/>
	<line class="st0" x1="103.5" y1="64.47" x2="97.39" y2="64.47"/>
	<line class="st0" x1="88.67" y1="55.75" x2="88.67" y2="55.75"/>
	<line class="st0" x1="97.39" y1="47.03" x2="97.39" y2="47.03"/>
	<line class="st0" x1="106.12" y1="64.47" x2="106.12" y2="55.75"/>
	<line class="st0" x1="108.73" y1="64.47" x2="112.22" y2="64.47"/>
	<line class="st0" x1="114.84" y1="64.47" x2="114.84" y2="55.75"/>
	<line class="st0" x1="123.56" y1="58.36" x2="123.56" y2="58.36"/>
	<line class="st0" x1="103.5" y1="38.3" x2="103.5" y2="38.3"/>
	<line class="st0" x1="97.39" y1="47.03" x2="106.12" y2="47.03"/>
	<line class="st0" x1="103.5" y1="55.75" x2="103.5" y2="55.75"/>
	<line class="st0" x1="106.12" y1="55.75" x2="106.12" y2="49.64"/>
	<line class="st0" x1="108.73" y1="55.75" x2="112.22" y2="55.75"/>
	<line class="st0" x1="106.12" y1="47.03" x2="106.12" y2="47.03"/>
	<line class="st0" x1="117.45" y1="55.75" x2="123.56" y2="55.75"/>
	<line class="st0" x1="123.56" y1="53.13" x2="123.56" y2="47.03"/>
	<line class="st0" x1="114.84" y1="38.3" x2="108.73" y2="38.3"/>
	<line class="st0" x1="132.28" y1="47.03" x2="132.28" y2="38.3"/>
	<line class="st0" x1="123.56" y1="29.58" x2="114.84" y2="29.58"/>
	<polyline class="st0" points="106.12,38.3 106.12,38.3 106.12,44.41 	"/>
</g>
</svg>
