<?xml version="1.0" encoding="utf-8"?>
<!-- Generator: Adobe Illustrator 28.1.0, SVG Export Plug-In . SVG Version: 6.00 Build 0)  -->
<svg version="1.1" id="Layer_1" xmlns="http://www.w3.org/2000/svg" xmlns:xlink="http://www.w3.org/1999/xlink" x="0px" y="0px"
	 viewBox="0 0 178.89 180" style="enable-background:new 0 0 178.89 180;" xml:space="preserve">
<style type="text/css">
	.st0{fill:none;stroke:#000000;stroke-width:0.5;stroke-linecap:square;stroke-linejoin:round;stroke-miterlimit:10;}
	.st1{fill:none;stroke:#000000;stroke-width:0.5;stroke-miterlimit:10;}
</style>
<g>
	<path class="st1" d="M133.55,103.48c15.6,0,15.6-19.51,0-19.51"/>
	<path class="st1" d="M129.65,103.48c0,13.01-6.5,19.51-19.51,19.51"/>
	<path class="st1" d="M129.65,80.07c0-15.61-19.51-15.61-19.51,0"/>
	<path class="st1" d="M110.15,126.89c0,10.41,6.5,15.61,19.51,15.61"/>
	<g>
		<path class="st1" d="M149.16,142.5c13,0,19.51-6.5,19.51-19.51"/>
		<path class="st1" d="M168.67,64.47c0-13.01-6.5-19.51-19.51-19.51"/>
	</g>
	<path class="st1" d="M110.15,44.96c-13.01,0-19.51,6.5-19.51,19.51"/>
	<path class="st1" d="M90.64,122.99c-13.01,0-19.51-6.5-19.51-19.51"/>
	<path class="st1" d="M110.15,103.48c-13.01,0-19.51-6.5-19.51-19.51"/>
	<path class="st1" d="M71.13,83.97c0-13-5.2-19.51-15.61-19.51"/>
	<path class="st1" d="M51.62,83.97c0,19.51-19.51,19.51-19.51,0"/>
	<path class="st1" d="M47.72,64.47c-10.41,0-15.61,6.5-15.61,19.51"/>
	<path class="st1" d="M51.62,64.47c0-13.01-6.5-19.51-19.51-19.51c-13.01,0-19.51,6.5-19.51,19.51c0,13,5.2,19.51,15.61,19.51"/>
	<line class="st0" x1="133.55" y1="83.97" x2="129.65" y2="83.97"/>
	<line class="st0" x1="110.15" y1="122.99" x2="110.15" y2="122.99"/>
	<line class="st0" x1="125.75" y1="103.48" x2="110.15" y2="103.48"/>
	<line class="st0" x1="129.65" y1="103.48" x2="129.65" y2="87.88"/>
	<line class="st0" x1="110.15" y1="80.07" x2="110.15" y2="83.97"/>
	<line class="st0" x1="129.65" y1="83.97" x2="114.05" y2="83.97"/>
	<line class="st0" x1="129.65" y1="142.5" x2="149.16" y2="142.5"/>
	<g>
		<line class="st0" x1="168.67" y1="122.99" x2="168.67" y2="64.47"/>
	</g>
	<line class="st0" x1="149.16" y1="44.96" x2="110.15" y2="44.96"/>
	<line class="st0" x1="90.64" y1="64.47" x2="90.64" y2="83.97"/>
	<line class="st0" x1="110.15" y1="122.99" x2="90.64" y2="122.99"/>
	<line class="st0" x1="71.13" y1="103.48" x2="71.13" y2="83.97"/>
	<line class="st0" x1="110.15" y1="119.09" x2="110.15" y2="107.38"/>
	<line class="st0" x1="90.64" y1="83.97" x2="90.64" y2="83.97"/>
	<line class="st0" x1="110.15" y1="99.58" x2="110.15" y2="83.97"/>
	<line class="st0" x1="106.24" y1="83.97" x2="94.54" y2="83.97"/>
	<line class="st0" x1="86.74" y1="83.97" x2="75.03" y2="83.97"/>
	<line class="st0" x1="67.23" y1="83.97" x2="55.52" y2="83.97"/>
	<line class="st0" x1="55.52" y1="64.47" x2="55.52" y2="64.47"/>
	<line class="st0" x1="47.72" y1="83.97" x2="36.02" y2="83.97"/>
	<line class="st0" x1="51.62" y1="83.97" x2="51.62" y2="64.47"/>
	<line class="st0" x1="32.12" y1="83.97" x2="32.12" y2="83.97"/>
	<line class="st0" x1="32.12" y1="44.96" x2="32.12" y2="44.96"/>
	<line class="st0" x1="12.61" y1="64.47" x2="12.61" y2="64.47"/>
	<line class="st0" x1="28.22" y1="83.97" x2="28.22" y2="83.97"/>
</g>
</svg>
