<?xml version="1.0" encoding="utf-8"?>
<!-- Generator: Adobe Illustrator 28.1.0, SVG Export Plug-In . SVG Version: 6.00 Build 0)  -->
<svg version="1.1" id="Layer_1" xmlns="http://www.w3.org/2000/svg" xmlns:xlink="http://www.w3.org/1999/xlink" x="0px" y="0px"
	 viewBox="0 0 178.89 180" style="enable-background:new 0 0 178.89 180;" xml:space="preserve">
<style type="text/css">
	.st0{fill:none;stroke:#000000;stroke-width:0.5;stroke-linecap:square;stroke-linejoin:round;stroke-miterlimit:10;}
	.st1{fill:none;stroke:#000000;stroke-width:0.5;stroke-miterlimit:10;}
</style>
<g>
	<path class="st1" d="M132.86,40.34c0-7.97,7.97-7.97,7.97,0"/>
	<path class="st1" d="M148.8,40.34c5.31,0,7.97,2.65,7.97,7.97"/>
	<path class="st1" d="M156.76,127.97c0,5.31-2.66,7.97-7.97,7.97"/>
	<path class="st1" d="M132.86,64.24c0,7.97-7.97,7.97-7.97,0"/>
	<path class="st1" d="M61.16,40.34c-5.31,0-7.97,2.65-7.97,7.97"/>
	<path class="st1" d="M124.9,40.34c0-5.31-2.65-7.97-7.97-7.97"/>
	<path class="st1" d="M53.2,32.37c-5.31,0-7.97,2.65-7.97,7.97"/>
	<path class="st1" d="M140.83,135.94c0,5.31-2.65,7.97-7.97,7.97"/>
	<path class="st1" d="M45.23,143.91c-5.31,0-7.97-1.59-7.97-4.78"/>
	<path class="st1" d="M140.83,56.27c5.31,0,7.97,2.65,7.97,7.97"/>
	<path class="st1" d="M148.8,96.11c0,5.31-1.59,7.97-4.78,7.97"/>
	<path class="st1" d="M37.26,64.24c-5.31,0-7.97,2.65-7.97,7.97"/>
	<path class="st1" d="M37.26,135.94c-5.31,0-7.97-2.65-7.97-7.97"/>
	<path class="st1" d="M116.93,53.09c0-3.19-2.66-4.78-7.97-4.78"/>
	<path class="st1" d="M85.06,48.31c-5.31,0-7.97,2.66-7.97,7.97"/>
	<path class="st1" d="M69.13,61.05c0-3.19,1.59-4.78,4.78-4.78"/>
	<path class="st1" d="M45.23,96.11c0,5.31-2.65,7.97-7.97,7.97"/>
	<path class="st1" d="M45.23,80.17c-5.31,0-7.97,2.66-7.97,7.97"/>
	<path class="st1" d="M29.3,104.07c-7.97,0-7.97,7.97-3.19,7.97"/>
	<path class="st1" d="M116.93,120.01c0,5.31-2.66,7.97-7.97,7.97"/>
	<path class="st1" d="M77.1,127.97c-5.31,0-7.97-2.66-7.97-7.97"/>
	<path class="st1" d="M101,64.24c5.31,0,7.97,2.66,7.97,7.97"/>
	<path class="st1" d="M53.2,115.23c0,4.78,7.97,4.78,7.97,0"/>
	<path class="st1" d="M101,112.04c5.31,0,7.97-1.59,7.97-4.78"/>
	<path class="st1" d="M77.1,88.14c0,5.31,2.66,7.97,7.97,7.97"/>
	<path class="st1" d="M93.03,96.11c5.31,0,7.97-2.65,7.97-7.97"/>
	<path class="st1" d="M101,80.17c0-5.31-2.65-7.97-7.97-7.97s-7.97,2.65-7.97,7.97"/>
	<path class="st1" d="M65.94,104.07c-3.19,0-4.78,2.66-4.78,7.97"/>
	<path class="st1" d="M88.25,80.17c4.78,0-3.19,7.97-3.19,0"/>
	<line class="st0" x1="136.05" y1="40.34" x2="137.64" y2="40.34"/>
	<line class="st0" x1="132.86" y1="40.34" x2="132.86" y2="53.09"/>
	<line class="st0" x1="129.68" y1="40.34" x2="128.08" y2="40.34"/>
	<line class="st0" x1="140.83" y1="40.34" x2="140.83" y2="40.34"/>
	<line class="st0" x1="144.01" y1="40.34" x2="148.8" y2="40.34"/>
	<line class="st0" x1="156.76" y1="48.31" x2="156.76" y2="127.97"/>
	<line class="st0" x1="148.8" y1="135.94" x2="144.01" y2="135.94"/>
	<line class="st0" x1="140.83" y1="40.34" x2="140.83" y2="53.09"/>
	<line class="st0" x1="132.86" y1="56.27" x2="140.83" y2="56.27"/>
	<line class="st0" x1="132.86" y1="59.46" x2="132.86" y2="64.24"/>
	<line class="st0" x1="124.9" y1="64.24" x2="124.9" y2="56.27"/>
	<line class="st0" x1="132.86" y1="56.27" x2="128.08" y2="56.27"/>
	<line class="st0" x1="124.9" y1="40.34" x2="124.9" y2="56.27"/>
	<line class="st0" x1="121.71" y1="40.34" x2="61.16" y2="40.34"/>
	<line class="st0" x1="53.2" y1="48.31" x2="53.2" y2="64.24"/>
	<line class="st0" x1="116.93" y1="32.37" x2="53.2" y2="32.37"/>
	<line class="st0" x1="45.23" y1="40.34" x2="45.23" y2="64.24"/>
	<line class="st0" x1="137.64" y1="135.94" x2="37.26" y2="135.94"/>
	<line class="st0" x1="140.83" y1="135.94" x2="140.83" y2="104.07"/>
	<line class="st0" x1="132.86" y1="143.91" x2="45.23" y2="143.91"/>
	<line class="st0" x1="37.26" y1="139.13" x2="37.26" y2="139.13"/>
	<line class="st0" x1="140.83" y1="59.46" x2="140.83" y2="104.07"/>
	<line class="st0" x1="148.8" y1="64.24" x2="148.8" y2="96.11"/>
	<line class="st0" x1="144.01" y1="104.07" x2="144.01" y2="104.07"/>
	<line class="st0" x1="121.71" y1="56.27" x2="116.93" y2="56.27"/>
	<line class="st0" x1="56.38" y1="64.24" x2="69.13" y2="64.24"/>
	<line class="st0" x1="53.2" y1="64.24" x2="53.2" y2="76.99"/>
	<line class="st0" x1="50.01" y1="64.24" x2="48.42" y2="64.24"/>
	<line class="st0" x1="45.23" y1="64.24" x2="45.23" y2="76.99"/>
	<line class="st0" x1="42.04" y1="64.24" x2="37.26" y2="64.24"/>
	<line class="st0" x1="29.3" y1="72.21" x2="29.3" y2="100.89"/>
	<line class="st0" x1="37.26" y1="132.75" x2="37.26" y2="112.04"/>
	<line class="st0" x1="29.3" y1="127.97" x2="29.3" y2="112.04"/>
	<line class="st0" x1="137.64" y1="104.07" x2="116.93" y2="104.07"/>
	<line class="st0" x1="116.93" y1="59.46" x2="116.93" y2="100.89"/>
	<line class="st0" x1="116.93" y1="56.27" x2="80.28" y2="56.27"/>
	<line class="st0" x1="108.96" y1="48.31" x2="85.06" y2="48.31"/>
	<line class="st0" x1="77.1" y1="56.27" x2="77.1" y2="56.27"/>
	<line class="st0" x1="73.91" y1="56.27" x2="73.91" y2="56.27"/>
	<line class="st0" x1="69.13" y1="64.24" x2="73.91" y2="64.24"/>
	<line class="st0" x1="69.13" y1="67.43" x2="69.13" y2="76.99"/>
	<line class="st0" x1="53.2" y1="80.17" x2="69.13" y2="80.17"/>
	<line class="st0" x1="53.2" y1="83.36" x2="53.2" y2="108.85"/>
	<line class="st0" x1="53.2" y1="80.17" x2="45.23" y2="80.17"/>
	<line class="st0" x1="45.23" y1="83.36" x2="45.23" y2="96.11"/>
	<line class="st0" x1="37.26" y1="104.07" x2="37.26" y2="104.07"/>
	<line class="st0" x1="37.26" y1="88.14" x2="37.26" y2="100.89"/>
	<line class="st0" x1="29.3" y1="104.07" x2="37.26" y2="104.07"/>
	<line class="st0" x1="29.3" y1="107.26" x2="29.3" y2="112.04"/>
	<line class="st0" x1="26.11" y1="112.04" x2="26.11" y2="112.04"/>
	<line class="st0" x1="34.08" y1="112.04" x2="32.48" y2="112.04"/>
	<line class="st0" x1="37.26" y1="112.04" x2="37.26" y2="107.26"/>
	<line class="st0" x1="40.45" y1="112.04" x2="53.2" y2="112.04"/>
	<line class="st0" x1="116.93" y1="107.26" x2="116.93" y2="120.01"/>
	<line class="st0" x1="108.96" y1="127.97" x2="77.1" y2="127.97"/>
	<line class="st0" x1="69.13" y1="120.01" x2="69.13" y2="112.04"/>
	<line class="st0" x1="116.93" y1="104.07" x2="108.96" y2="104.07"/>
	<line class="st0" x1="77.1" y1="56.27" x2="77.1" y2="64.24"/>
	<line class="st0" x1="80.28" y1="64.24" x2="101" y2="64.24"/>
	<line class="st0" x1="108.96" y1="72.21" x2="108.96" y2="100.89"/>
	<line class="st0" x1="77.1" y1="64.24" x2="77.1" y2="80.17"/>
	<line class="st0" x1="69.13" y1="80.17" x2="73.91" y2="80.17"/>
	<line class="st0" x1="69.13" y1="83.36" x2="69.13" y2="104.07"/>
	<line class="st0" x1="53.2" y1="112.04" x2="57.98" y2="112.04"/>
	<line class="st0" x1="61.16" y1="115.23" x2="61.16" y2="112.04"/>
	<line class="st0" x1="65.94" y1="112.04" x2="64.35" y2="112.04"/>
	<line class="st0" x1="69.13" y1="112.04" x2="69.13" y2="104.07"/>
	<line class="st0" x1="72.32" y1="112.04" x2="101" y2="112.04"/>
	<line class="st0" x1="108.96" y1="107.26" x2="108.96" y2="107.26"/>
	<line class="st0" x1="108.96" y1="104.07" x2="72.32" y2="104.07"/>
	<line class="st0" x1="80.28" y1="80.17" x2="81.88" y2="80.17"/>
	<line class="st0" x1="77.1" y1="80.17" x2="77.1" y2="88.14"/>
	<line class="st0" x1="85.06" y1="96.11" x2="93.03" y2="96.11"/>
	<line class="st0" x1="101" y1="88.14" x2="101" y2="80.17"/>
	<line class="st0" x1="93.03" y1="72.21" x2="93.03" y2="72.21"/>
	<line class="st0" x1="85.06" y1="80.17" x2="85.06" y2="80.17"/>
	<line class="st0" x1="61.16" y1="112.04" x2="61.16" y2="112.04"/>
	<line class="st0" x1="85.06" y1="80.17" x2="85.06" y2="80.17"/>
</g>
</svg>
