<?xml version="1.0" encoding="utf-8"?>
<!-- Generator: Adobe Illustrator 28.1.0, SVG Export Plug-In . SVG Version: 6.00 Build 0)  -->
<svg version="1.1" id="Layer_1" xmlns="http://www.w3.org/2000/svg" xmlns:xlink="http://www.w3.org/1999/xlink" x="0px" y="0px"
	 viewBox="0 0 178.89 180" style="enable-background:new 0 0 178.89 180;" xml:space="preserve">
<style type="text/css">
	.st0{fill:none;stroke:#000000;stroke-width:0.5;stroke-linecap:square;stroke-linejoin:round;stroke-miterlimit:10;}
	.st1{fill:none;stroke:#000000;stroke-width:0.5;stroke-miterlimit:10;}
</style>
<g>
	<path class="st1" d="M65.29,79.7c0,9.55,3.82,14.33,11.46,14.33"/>
	<g>
		<path class="st1" d="M62.42,79.7c-7.64,0-11.46-4.78-11.46-14.33"/>
		<path class="st1" d="M50.95,51.04c0-9.55,4.78-14.33,14.33-14.33"/>
	</g>
	<path class="st1" d="M108.28,36.71c9.55,0,14.33,4.78,14.33,14.33"/>
	<path class="st1" d="M122.61,108.36c0,9.55-4.78,14.33-14.33,14.33"/>
	<path class="st1" d="M65.29,79.7c0-9.55,4.78-14.33,14.33-14.33"/>
	<path class="st1" d="M79.62,79.7c14.33,0,14.33-14.33,0-14.33"/>
	<path class="st1" d="M93.95,94.03c9.55,0,14.33-4.78,14.33-14.33"/>
	<path class="st1" d="M108.28,65.37c0-9.55-4.78-14.33-14.33-14.33c-9.55,0-14.33,3.82-14.33,11.46"/>
	<path class="st1" d="M93.95,122.69c0,9.55-3.82,14.33-11.46,14.33"/>
	<path class="st1" d="M93.95,122.69c0-9.55-3.82-14.33-11.46-14.33"/>
	<path class="st1" d="M76.75,108.36c-7.64,0-11.46,4.78-11.46,14.33"/>
	<path class="st1" d="M79.62,137.02c0,14.33-14.33,14.33-14.33,2.87"/>
	<path class="st1" d="M62.42,122.69c-11.46,0-11.46,14.33,0,14.33"/>
	<line class="st0" x1="68.15" y1="79.7" x2="79.62" y2="79.7"/>
	<line class="st0" x1="76.75" y1="94.03" x2="76.75" y2="94.03"/>
	<g>
		<line class="st0" x1="50.95" y1="65.37" x2="50.95" y2="51.04"/>
	</g>
	<line class="st0" x1="65.29" y1="36.71" x2="108.28" y2="36.71"/>
	<line class="st0" x1="122.61" y1="51.04" x2="122.61" y2="108.36"/>
	<line class="st0" x1="108.28" y1="122.69" x2="96.81" y2="122.69"/>
	<line class="st0" x1="79.62" y1="65.37" x2="79.62" y2="65.37"/>
	<line class="st0" x1="79.62" y1="82.56" x2="79.62" y2="94.03"/>
	<line class="st0" x1="79.62" y1="76.83" x2="79.62" y2="68.23"/>
	<line class="st0" x1="79.62" y1="65.37" x2="79.62" y2="65.37"/>
	<line class="st0" x1="82.48" y1="94.03" x2="93.95" y2="94.03"/>
	<line class="st0" x1="108.28" y1="79.7" x2="108.28" y2="65.37"/>
	<line class="st0" x1="93.95" y1="51.04" x2="93.95" y2="51.04"/>
	<line class="st0" x1="79.62" y1="62.5" x2="79.62" y2="62.5"/>
	<line class="st0" x1="79.62" y1="94.03" x2="79.62" y2="108.36"/>
	<line class="st0" x1="82.48" y1="137.02" x2="82.48" y2="137.02"/>
	<line class="st0" x1="91.08" y1="122.69" x2="82.48" y2="122.69"/>
	<line class="st0" x1="82.48" y1="108.36" x2="82.48" y2="108.36"/>
	<line class="st0" x1="79.62" y1="108.36" x2="79.62" y2="122.69"/>
	<line class="st0" x1="65.29" y1="122.69" x2="65.29" y2="122.69"/>
	<line class="st0" x1="76.75" y1="137.02" x2="65.29" y2="137.02"/>
	<line class="st0" x1="79.62" y1="137.02" x2="79.62" y2="122.69"/>
	<line class="st0" x1="65.28" y1="139.89" x2="65.28" y2="139.89"/>
	<line class="st0" x1="76.75" y1="122.69" x2="68.15" y2="122.69"/>
	<line class="st0" x1="65.28" y1="122.69" x2="65.28" y2="134.16"/>
	<line class="st0" x1="62.42" y1="137.02" x2="65.28" y2="137.02"/>
</g>
</svg>
