<?xml version="1.0" encoding="utf-8"?>
<!-- Generator: Adobe Illustrator 28.1.0, SVG Export Plug-In . SVG Version: 6.00 Build 0)  -->
<svg version="1.1" id="Layer_1" xmlns="http://www.w3.org/2000/svg" xmlns:xlink="http://www.w3.org/1999/xlink" x="0px" y="0px"
	 viewBox="0 0 178.89 180" style="enable-background:new 0 0 178.89 180;" xml:space="preserve">
<style type="text/css">
	.st0{fill:none;stroke:#000000;stroke-width:0.5;stroke-linecap:square;stroke-linejoin:round;stroke-miterlimit:10;}
	.st1{fill:none;stroke:#000000;stroke-width:0.5;stroke-miterlimit:10;}
</style>
<g>
	<path class="st1" d="M60.15,73.92c15.29,0,22.93-9.55,22.93-28.66"/>
	<path class="st1" d="M48.69,73.92c-22.93,0-22.93,28.66,0,28.66"/>
	<path class="st1" d="M54.42,73.92c0-19.11,7.64-28.66,22.93-28.66"/>
	<path class="st1" d="M83.08,45.26c0-28.66,28.66-28.66,28.66-5.73"/>
	<path class="st1" d="M54.42,108.32c0,15.29,9.55,22.93,28.66,22.93c19.11,0,28.66-9.55,28.66-28.66"/>
	<path class="st1" d="M111.74,45.26c19.11,0,28.66,9.55,28.66,28.66c0,19.11-7.64,28.66-22.93,28.66"/>
	<line class="st0" x1="83.08" y1="45.26" x2="83.08" y2="45.26"/>
	<line class="st0" x1="54.42" y1="73.92" x2="54.42" y2="96.85"/>
	<line class="st0" x1="48.69" y1="102.58" x2="54.42" y2="102.58"/>
	<line class="st0" x1="77.35" y1="45.26" x2="77.35" y2="45.26"/>
	<line class="st0" x1="88.81" y1="45.26" x2="111.74" y2="45.26"/>
	<line class="st0" x1="111.74" y1="39.53" x2="111.74" y2="39.53"/>
	<line class="st0" x1="54.42" y1="102.58" x2="106.01" y2="102.58"/>
	<line class="st0" x1="83.08" y1="131.24" x2="83.08" y2="131.24"/>
	<line class="st0" x1="111.74" y1="102.58" x2="111.74" y2="102.58"/>
	<line class="st0" x1="111.74" y1="50.99" x2="111.74" y2="102.58"/>
	<line class="st0" x1="140.41" y1="73.92" x2="140.41" y2="73.92"/>
	<line class="st0" x1="117.48" y1="102.58" x2="117.48" y2="102.58"/>
</g>
</svg>
