<?xml version="1.0" encoding="utf-8"?>
<!-- Generator: Adobe Illustrator 28.1.0, SVG Export Plug-In . SVG Version: 6.00 Build 0)  -->
<svg version="1.1" id="Layer_1" xmlns="http://www.w3.org/2000/svg" xmlns:xlink="http://www.w3.org/1999/xlink" x="0px" y="0px"
	 viewBox="0 0 178.89 180" style="enable-background:new 0 0 178.89 180;" xml:space="preserve">
<style type="text/css">
	.st0{fill:none;stroke:#000000;stroke-width:0.5;stroke-linecap:square;stroke-linejoin:round;stroke-miterlimit:10;}
	.st1{fill:none;stroke:#000000;stroke-width:0.5;stroke-miterlimit:10;}
</style>
<g>
	<path class="st1" d="M54.15,69.04c5.7,0,8.55,4.07,8.55,12.21"/>
	<path class="st1" d="M50.49,69.04c0,8.14,2.85,12.21,8.55,12.21"/>
	<path class="st1" d="M46.83,69.04c-5.7,0-8.55,4.07-8.55,12.21"/>
	<g>
		<path class="st1" d="M38.28,105.67c-8.14,0-12.21-4.07-12.21-12.21"/>
		<path class="st1" d="M26.07,69.04c0-8.14,4.07-12.21,12.21-12.21"/>
	</g>
	<path class="st1" d="M50.49,44.62c0-8.14,4.07-12.21,12.21-12.21"/>
	<path class="st1" d="M123.75,32.41c8.14,0,12.21,4.07,12.21,12.21"/>
	<path class="st1" d="M135.96,81.25c0,8.14-4.07,12.21-12.21,12.21"/>
	<path class="st1" d="M78.57,81.25c5.7,0,8.55,4.07,8.55,12.21"/>
	<path class="st1" d="M74.91,81.25c0,8.14,2.85,12.21,8.55,12.21"/>
	<path class="st1" d="M66.36,105.67c5.7,0,8.55,2.85,8.55,8.55"/>
	<g>
		<path class="st1" d="M34.62,117.88c-5.7,0-8.55,4.07-8.55,12.21c0,8.14,4.07,12.21,12.21,12.21"/>
	</g>
	<path class="st1" d="M123.75,69.04c0-8.14-4.07-12.21-12.21-12.21"/>
	<path class="st1" d="M123.75,142.3c0,8.14-4.07,12.21-12.21,12.21"/>
	<path class="st1" d="M99.33,154.51c-8.14,0-12.21-4.07-12.21-12.21"/>
	<path class="st1" d="M74.91,56.83c0-8.14,4.07-12.21,12.21-12.21"/>
	<path class="st1" d="M99.33,44.62c8.14,0,12.21,2.85,12.21,8.55"/>
	<path class="st1" d="M62.7,121.54c0,5.7,4.07,8.55,12.21,8.55"/>
	<path class="st1" d="M38.28,145.96c0,5.7,4.07,8.55,12.21,8.55"/>
	<path class="st1" d="M62.7,154.51c8.14,0,12.21-4.07,12.21-12.21"/>
	<path class="st1" d="M90.78,142.3c8.55,0,8.55-12.21,0-12.21"/>
	<path class="st1" d="M111.54,105.67c0,8.14-4.07,12.21-12.21,12.21"/>
	<line class="st0" x1="62.7" y1="81.25" x2="62.7" y2="81.25"/>
	<line class="st0" x1="59.04" y1="81.25" x2="59.04" y2="81.25"/>
	<line class="st0" x1="38.28" y1="81.25" x2="38.28" y2="102"/>
	<line class="st0" x1="50.49" y1="69.04" x2="50.49" y2="60.49"/>
	<line class="st0" x1="66.36" y1="81.25" x2="71.25" y2="81.25"/>
	<line class="st0" x1="62.7" y1="81.25" x2="62.7" y2="105.67"/>
	<line class="st0" x1="38.28" y1="105.67" x2="59.04" y2="105.67"/>
	<line class="st0" x1="38.28" y1="109.33" x2="38.28" y2="117.88"/>
	<g>
		<line class="st0" x1="26.07" y1="93.46" x2="26.07" y2="69.04"/>
	</g>
	<line class="st0" x1="38.28" y1="56.83" x2="50.49" y2="56.83"/>
	<line class="st0" x1="50.49" y1="53.16" x2="50.49" y2="44.62"/>
	<line class="st0" x1="62.7" y1="32.41" x2="123.75" y2="32.41"/>
	<line class="st0" x1="135.96" y1="44.62" x2="135.96" y2="81.25"/>
	<line class="st0" x1="123.75" y1="93.46" x2="123.75" y2="93.46"/>
	<line class="st0" x1="50.49" y1="56.83" x2="71.25" y2="56.83"/>
	<line class="st0" x1="87.12" y1="93.46" x2="87.12" y2="93.46"/>
	<line class="st0" x1="83.46" y1="93.46" x2="83.46" y2="93.46"/>
	<line class="st0" x1="74.91" y1="81.25" x2="74.91" y2="56.83"/>
	<line class="st0" x1="74.91" y1="114.21" x2="74.91" y2="114.21"/>
	<line class="st0" x1="62.7" y1="105.67" x2="62.7" y2="114.21"/>
	<line class="st0" x1="41.94" y1="117.88" x2="62.7" y2="117.88"/>
	<line class="st0" x1="38.28" y1="117.88" x2="38.28" y2="138.63"/>
	<g>
		<line class="st0" x1="26.07" y1="130.09" x2="26.07" y2="130.09"/>
	</g>
	<line class="st0" x1="38.28" y1="142.3" x2="38.28" y2="142.3"/>
	<line class="st0" x1="123.75" y1="89.79" x2="123.75" y2="69.04"/>
	<line class="st0" x1="111.54" y1="56.83" x2="111.54" y2="56.83"/>
	<line class="st0" x1="123.75" y1="97.12" x2="123.75" y2="142.3"/>
	<line class="st0" x1="111.54" y1="154.51" x2="99.33" y2="154.51"/>
	<line class="st0" x1="87.12" y1="142.3" x2="87.12" y2="142.3"/>
	<line class="st0" x1="123.75" y1="93.46" x2="115.2" y2="93.46"/>
	<line class="st0" x1="87.12" y1="44.62" x2="99.33" y2="44.62"/>
	<line class="st0" x1="111.54" y1="53.16" x2="111.54" y2="53.16"/>
	<line class="st0" x1="78.57" y1="56.83" x2="111.54" y2="56.83"/>
	<line class="st0" x1="90.78" y1="93.46" x2="107.88" y2="93.46"/>
	<line class="st0" x1="87.12" y1="93.46" x2="87.12" y2="114.21"/>
	<line class="st0" x1="74.91" y1="121.54" x2="74.91" y2="126.42"/>
	<line class="st0" x1="74.91" y1="117.88" x2="62.7" y2="117.88"/>
	<line class="st0" x1="74.91" y1="117.88" x2="87.12" y2="117.88"/>
	<line class="st0" x1="74.91" y1="130.09" x2="74.91" y2="130.09"/>
	<line class="st0" x1="38.28" y1="142.3" x2="71.25" y2="142.3"/>
	<line class="st0" x1="50.49" y1="154.51" x2="62.7" y2="154.51"/>
	<line class="st0" x1="74.91" y1="142.3" x2="74.91" y2="142.3"/>
	<line class="st0" x1="111.54" y1="60.49" x2="111.54" y2="93.46"/>
	<line class="st0" x1="83.46" y1="142.3" x2="78.57" y2="142.3"/>
	<line class="st0" x1="87.12" y1="142.3" x2="87.12" y2="133.75"/>
	<line class="st0" x1="90.78" y1="130.09" x2="87.12" y2="130.09"/>
	<line class="st0" x1="111.54" y1="93.46" x2="111.54" y2="105.67"/>
	<line class="st0" x1="99.33" y1="117.88" x2="87.12" y2="117.88"/>
	<line class="st0" x1="87.12" y1="121.54" x2="87.12" y2="126.42"/>
	<line class="st0" x1="74.91" y1="133.75" x2="74.91" y2="142.3"/>
	<line class="st0" x1="74.91" y1="130.09" x2="87.12" y2="130.09"/>
</g>
</svg>
