<?xml version="1.0" encoding="utf-8"?>
<!-- Generator: Adobe Illustrator 28.1.0, SVG Export Plug-In . SVG Version: 6.00 Build 0)  -->
<svg version="1.1" id="Layer_1" xmlns="http://www.w3.org/2000/svg" xmlns:xlink="http://www.w3.org/1999/xlink" x="0px" y="0px"
	 viewBox="0 0 178.89 180" style="enable-background:new 0 0 178.89 180;" xml:space="preserve">
<style type="text/css">
	.st0{fill:none;stroke:#000000;stroke-width:0.5;stroke-linecap:square;stroke-linejoin:round;stroke-miterlimit:10;}
	.st1{fill:none;stroke:#000000;stroke-width:0.5;stroke-miterlimit:10;}
</style>
<g>
	<path class="st1" d="M73.48,135.48c0,19.11,19.11,19.11,19.11,3.82"/>
	<path class="st1" d="M69.66,135.48c-10.19,0-15.29-6.37-15.29-19.11s6.37-19.11,19.11-19.11"/>
	<path class="st1" d="M73.48,135.48c0-12.74,5.1-19.11,15.29-19.11"/>
	<path class="st1" d="M92.59,135.48c19.11,0,19.11-19.11,3.82-19.11"/>
	<path class="st1" d="M111.7,97.27c12.74,0,19.11-6.37,19.11-19.11"/>
	<path class="st1" d="M130.81,59.05c0-12.74-6.37-19.11-19.11-19.11"/>
	<path class="st1" d="M92.59,39.94c-12.74,0-19.11,6.37-19.11,19.11c0,12.74,5.1,19.11,15.29,19.11"/>
	<path class="st1" d="M92.59,78.16c0-19.11,19.11,0,3.82,0"/>
	<line class="st0" x1="77.31" y1="135.48" x2="92.59" y2="135.48"/>
	<line class="st0" x1="92.59" y1="139.3" x2="92.59" y2="139.3"/>
	<line class="st0" x1="54.38" y1="116.37" x2="54.38" y2="116.37"/>
	<line class="st0" x1="73.48" y1="97.27" x2="88.77" y2="97.27"/>
	<line class="st0" x1="88.77" y1="116.37" x2="88.77" y2="116.37"/>
	<line class="st0" x1="92.59" y1="131.66" x2="92.59" y2="116.37"/>
	<line class="st0" x1="96.41" y1="116.37" x2="96.41" y2="116.37"/>
	<line class="st0" x1="92.59" y1="97.27" x2="92.59" y2="78.16"/>
	<line class="st0" x1="96.41" y1="97.27" x2="111.7" y2="97.27"/>
	<line class="st0" x1="130.81" y1="78.16" x2="130.81" y2="59.05"/>
	<line class="st0" x1="111.7" y1="39.94" x2="92.59" y2="39.94"/>
	<line class="st0" x1="73.48" y1="59.05" x2="73.48" y2="59.05"/>
	<line class="st0" x1="88.77" y1="78.16" x2="88.77" y2="78.16"/>
	<line class="st0" x1="92.59" y1="97.27" x2="92.59" y2="116.37"/>
	<line class="st0" x1="96.41" y1="78.16" x2="96.41" y2="78.16"/>
</g>
</svg>
