<?xml version="1.0" encoding="utf-8"?>
<!-- Generator: Adobe Illustrator 28.1.0, SVG Export Plug-In . SVG Version: 6.00 Build 0)  -->
<svg version="1.1" id="Layer_1" xmlns="http://www.w3.org/2000/svg" xmlns:xlink="http://www.w3.org/1999/xlink" x="0px" y="0px"
	 viewBox="0 0 178.89 180" style="enable-background:new 0 0 178.89 180;" xml:space="preserve">
<style type="text/css">
	.st0{fill:none;stroke:#000000;stroke-width:0.5;stroke-linecap:square;stroke-linejoin:round;stroke-miterlimit:10;}
	.st1{fill:none;stroke:#000000;stroke-width:0.5;stroke-miterlimit:10;}
</style>
<g>
	<path class="st1" d="M136.65,83.78c9.7,0,9.7,13.85,4.15,13.85"/>
	<path class="st1" d="M128.34,97.63c-6.46,0-9.7-4.62-9.7-13.85"/>
	<path class="st1" d="M132.49,97.63c0,9.23,4.62,13.85,13.85,13.85c9.23,0,13.85-4.62,13.85-13.85"/>
	<path class="st1" d="M160.2,83.78c0-9.23-4.62-13.85-13.85-13.85"/>
	<path class="st1" d="M118.64,83.78c0-9.23,4.62-13.85,13.85-13.85"/>
	<path class="st1" d="M132.49,65.77c0-6.46,4.62-9.7,13.85-9.7"/>
	<path class="st1" d="M160.2,56.08c9.23,0,13.85,4.62,13.85,13.85"/>
	<path class="st1" d="M174.04,111.48c0,9.23-4.62,13.85-13.85,13.85"/>
	<path class="st1" d="M118.64,125.33c-9.23,0-13.85-4.62-13.85-13.85"/>
	<path class="st1" d="M104.79,69.93c0-9.23-4.61-13.85-13.85-13.85"/>
	<path class="st1" d="M90.94,97.63c0,9.23-3.23,13.85-9.7,13.85"/>
	<path class="st1" d="M90.94,83.78c0-9.23-4.62-13.85-13.85-13.85"/>
	<path class="st1" d="M49.39,56.08c-9.23,0-13.85,3.23-13.85,9.7"/>
	<path class="st1" d="M63.24,56.08c0-9.23-4.61-13.85-13.85-13.85"/>
	<path class="st1" d="M35.54,42.23c-9.23,0-13.85,4.62-13.85,13.85"/>
	<path class="st1" d="M77.09,125.33c0,9.23-4.62,13.85-13.85,13.85"/>
	<path class="st1" d="M21.69,139.18c-9.23,0-13.85-4.62-13.85-13.85"/>
	<path class="st1" d="M7.84,83.78c0-9.23,4.62-13.85,13.85-13.85"/>
	<path class="st1" d="M77.09,111.48c0-9.23-4.62-13.85-13.85-13.85"/>
	<path class="st1" d="M59.09,83.78c-9.7,0-9.7,13.85,0,13.85"/>
	<path class="st1" d="M21.69,97.63c0,9.23,4.62,13.85,13.85,13.85"/>
	<path class="st1" d="M63.24,115.63c0,6.46-4.61,9.69-13.85,9.69c-9.23,0-13.85-3.23-13.85-9.69"/>
	<line class="st0" x1="140.8" y1="97.63" x2="136.65" y2="97.63"/>
	<line class="st0" x1="132.49" y1="83.78" x2="132.49" y2="97.63"/>
	<line class="st0" x1="128.34" y1="83.78" x2="122.8" y2="83.78"/>
	<line class="st0" x1="132.49" y1="83.78" x2="132.49" y2="74.08"/>
	<line class="st0" x1="118.64" y1="83.78" x2="118.64" y2="83.78"/>
	<line class="st0" x1="146.34" y1="111.48" x2="146.34" y2="111.48"/>
	<line class="st0" x1="160.2" y1="97.63" x2="160.2" y2="83.78"/>
	<line class="st0" x1="146.34" y1="69.93" x2="132.49" y2="69.93"/>
	<line class="st0" x1="114.49" y1="83.78" x2="108.95" y2="83.78"/>
	<line class="st0" x1="132.49" y1="69.93" x2="132.49" y2="69.93"/>
	<line class="st0" x1="146.34" y1="56.08" x2="160.2" y2="56.08"/>
	<line class="st0" x1="174.04" y1="69.93" x2="174.04" y2="111.48"/>
	<line class="st0" x1="160.2" y1="125.33" x2="118.64" y2="125.33"/>
	<line class="st0" x1="104.79" y1="111.48" x2="104.79" y2="83.78"/>
	<line class="st0" x1="100.64" y1="83.78" x2="95.1" y2="83.78"/>
	<line class="st0" x1="104.79" y1="83.78" x2="104.79" y2="69.93"/>
	<line class="st0" x1="90.94" y1="56.08" x2="67.4" y2="56.08"/>
	<line class="st0" x1="90.94" y1="83.78" x2="90.94" y2="97.63"/>
	<line class="st0" x1="81.25" y1="111.48" x2="81.25" y2="111.48"/>
	<line class="st0" x1="86.79" y1="83.78" x2="67.4" y2="83.78"/>
	<line class="st0" x1="77.09" y1="69.93" x2="63.24" y2="69.93"/>
	<line class="st0" x1="59.09" y1="56.08" x2="49.39" y2="56.08"/>
	<line class="st0" x1="35.54" y1="65.77" x2="35.54" y2="65.77"/>
	<line class="st0" x1="49.39" y1="42.23" x2="35.54" y2="42.23"/>
	<line class="st0" x1="21.69" y1="56.08" x2="21.69" y2="65.77"/>
	<line class="st0" x1="63.24" y1="56.08" x2="63.24" y2="65.77"/>
	<line class="st0" x1="77.09" y1="111.48" x2="77.09" y2="125.33"/>
	<line class="st0" x1="63.24" y1="139.18" x2="21.69" y2="139.18"/>
	<line class="st0" x1="7.84" y1="125.33" x2="7.84" y2="83.78"/>
	<line class="st0" x1="21.69" y1="69.93" x2="21.69" y2="69.93"/>
	<line class="st0" x1="72.94" y1="111.48" x2="63.24" y2="111.48"/>
	<line class="st0" x1="63.24" y1="97.63" x2="63.24" y2="97.63"/>
	<line class="st0" x1="63.24" y1="83.78" x2="63.24" y2="93.47"/>
	<line class="st0" x1="59.09" y1="97.63" x2="63.24" y2="97.63"/>
	<line class="st0" x1="63.24" y1="83.78" x2="63.24" y2="74.08"/>
	<line class="st0" x1="63.24" y1="69.93" x2="35.54" y2="69.93"/>
	<line class="st0" x1="35.54" y1="74.08" x2="35.54" y2="107.32"/>
	<line class="st0" x1="35.54" y1="69.93" x2="21.69" y2="69.93"/>
	<line class="st0" x1="21.69" y1="74.08" x2="21.69" y2="97.63"/>
	<line class="st0" x1="35.54" y1="111.48" x2="35.54" y2="111.48"/>
	<line class="st0" x1="63.24" y1="107.32" x2="63.24" y2="101.78"/>
	<line class="st0" x1="49.39" y1="125.33" x2="49.39" y2="125.33"/>
	<line class="st0" x1="35.54" y1="115.63" x2="35.54" y2="115.63"/>
	<line class="st0" x1="63.24" y1="111.48" x2="35.54" y2="111.48"/>
</g>
</svg>
