<?xml version="1.0" encoding="utf-8"?>
<!-- Generator: Adobe Illustrator 28.1.0, SVG Export Plug-In . SVG Version: 6.00 Build 0)  -->
<svg version="1.1" id="Layer_1" xmlns="http://www.w3.org/2000/svg" xmlns:xlink="http://www.w3.org/1999/xlink" x="0px" y="0px"
	 viewBox="0 0 178.89 180" style="enable-background:new 0 0 178.89 180;" xml:space="preserve">
<style type="text/css">
	.st0{fill:none;stroke:#000000;stroke-width:0.5;stroke-linecap:square;stroke-linejoin:round;stroke-miterlimit:10;}
	.st1{fill:none;stroke:#000000;stroke-width:0.5;stroke-miterlimit:10;}
</style>
<g>
	<line class="st0" x1="132.89" y1="151.03" x2="99.59" y2="151.03"/>
	<line class="st0" x1="32.99" y1="84.43" x2="32.99" y2="84.43"/>
	<line class="st0" x1="40.76" y1="73.33" x2="40.76" y2="73.33"/>
	<g>
		<path class="st1" d="M91.82,40.03c5.18,0,7.77,3.7,7.77,11.1"/>
		<path class="st1" d="M88.49,40.03c0-7.4-3.7-11.1-11.1-11.1"/>
		<path class="st1" d="M66.29,28.93c-7.4,0-11.1,2.59-11.1,7.77"/>
		<path class="st1" d="M132.89,95.53c7.4,0,11.1,3.7,11.1,11.1"/>
		<path class="st1" d="M143.99,139.93c0,7.4-3.7,11.1-11.1,11.1"/>
		<path class="st1" d="M99.59,151.03c-7.4,0-11.1-3.7-11.1-11.1"/>
		<path class="st1" d="M55.19,40.03c-11.1,0-11.1,11.1-3.33,11.1"/>
		<path class="st1" d="M99.59,128.83c0,7.4,3.7,11.1,11.1,11.1c7.4,0,11.1-3.7,11.1-11.1"/>
		<path class="st1" d="M55.19,117.73c-7.4,0-11.1-3.7-11.1-11.1"/>
		<path class="st1" d="M44.09,95.53c-7.4,0-11.1-3.7-11.1-11.1c0-7.4,2.59-11.1,7.77-11.1"/>
		<path class="st1" d="M66.29,51.13c7.4,0,11.1,3.7,11.1,11.1c0,7.4-3.7,11.1-11.1,11.1"/>
		<path class="st1" d="M125.12,128.83c7.77,0,7.77-11.1,0-11.1"/>
		<path class="st1" d="M118.46,128.83c-5.18,0-7.77-3.7-7.77-11.1c0-11.1,11.1-11.1,11.1-3.33"/>
		<path class="st1" d="M44.09,73.33c0-7.4,3.7-11.1,11.1-11.1"/>
		<path class="st1" d="M66.29,76.66c0,7.77-11.1,7.77-11.1,3.33"/>
		<path class="st1" d="M66.29,70c0-5.18-3.7-7.77-11.1-7.77"/>
		<line class="st0" x1="99.59" y1="51.13" x2="99.59" y2="92.2"/>
		<line class="st0" x1="88.49" y1="40.03" x2="88.49" y2="92.2"/>
		<line class="st0" x1="85.16" y1="40.03" x2="55.19" y2="40.03"/>
		<line class="st0" x1="77.39" y1="28.93" x2="66.29" y2="28.93"/>
		<line class="st0" x1="55.19" y1="36.7" x2="55.19" y2="36.7"/>
		<line class="st0" x1="99.59" y1="98.86" x2="99.59" y2="114.4"/>
		<line class="st0" x1="99.59" y1="95.53" x2="88.49" y2="95.53"/>
		<line class="st0" x1="99.59" y1="95.53" x2="132.89" y2="95.53"/>
		<line class="st0" x1="143.99" y1="106.63" x2="143.99" y2="139.93"/>
		<line class="st0" x1="88.49" y1="139.93" x2="88.49" y2="117.73"/>
		<line class="st0" x1="88.49" y1="98.86" x2="88.49" y2="117.73"/>
		<line class="st0" x1="88.49" y1="95.53" x2="44.09" y2="95.53"/>
		<line class="st0" x1="55.19" y1="43.36" x2="55.19" y2="51.13"/>
		<line class="st0" x1="51.86" y1="51.13" x2="51.86" y2="51.13"/>
		<line class="st0" x1="99.59" y1="121.06" x2="99.59" y2="128.83"/>
		<line class="st0" x1="110.69" y1="139.93" x2="110.69" y2="139.93"/>
		<line class="st0" x1="121.79" y1="128.83" x2="121.79" y2="128.83"/>
		<line class="st0" x1="99.59" y1="117.73" x2="91.82" y2="117.73"/>
		<line class="st0" x1="99.59" y1="117.73" x2="107.36" y2="117.73"/>
		<line class="st0" x1="85.16" y1="117.73" x2="55.19" y2="117.73"/>
		<line class="st0" x1="44.09" y1="106.63" x2="44.09" y2="98.86"/>
		<line class="st0" x1="44.09" y1="92.2" x2="44.09" y2="73.33"/>
		<line class="st0" x1="58.52" y1="51.13" x2="66.29" y2="51.13"/>
		<line class="st0" x1="77.39" y1="62.23" x2="77.39" y2="62.23"/>
		<line class="st0" x1="66.29" y1="73.33" x2="66.29" y2="73.33"/>
		<line class="st0" x1="55.19" y1="51.13" x2="55.19" y2="58.9"/>
		<line class="st0" x1="125.12" y1="117.73" x2="121.79" y2="117.73"/>
		<line class="st0" x1="110.69" y1="117.73" x2="110.69" y2="117.73"/>
		<line class="st0" x1="121.79" y1="128.83" x2="121.79" y2="121.06"/>
		<line class="st0" x1="121.79" y1="114.4" x2="121.79" y2="114.4"/>
		<line class="st0" x1="114.02" y1="117.73" x2="121.79" y2="117.73"/>
		<line class="st0" x1="47.42" y1="73.33" x2="55.19" y2="73.33"/>
		<line class="st0" x1="55.19" y1="62.23" x2="55.19" y2="62.23"/>
		<line class="st0" x1="55.19" y1="79.99" x2="55.19" y2="76.66"/>
		<line class="st0" x1="66.29" y1="73.33" x2="55.19" y2="73.33"/>
		<line class="st0" x1="55.19" y1="62.23" x2="55.19" y2="62.23"/>
		<line class="st0" x1="55.19" y1="65.56" x2="55.19" y2="70"/>
	</g>
</g>
</svg>
