<?xml version="1.0" encoding="utf-8"?>
<!-- Generator: Adobe Illustrator 28.1.0, SVG Export Plug-In . SVG Version: 6.00 Build 0)  -->
<svg version="1.1" id="Layer_1" xmlns="http://www.w3.org/2000/svg" xmlns:xlink="http://www.w3.org/1999/xlink" x="0px" y="0px"
	 viewBox="0 0 178.89 180" style="enable-background:new 0 0 178.89 180;" xml:space="preserve">
<style type="text/css">
	.st0{fill:none;stroke:#000000;stroke-width:0.5;stroke-linecap:square;stroke-linejoin:round;stroke-miterlimit:10;}
	.st1{fill:none;stroke:#000000;stroke-width:0.5;stroke-miterlimit:10;}
</style>
<g>
	<path class="st1" d="M156.74,142.83c4.75,0,7.12-3.39,7.12-10.18"/>
	<line class="st0" x1="133.34" y1="153.01" x2="143.51" y2="153.01"/>
	<line class="st0" x1="82.46" y1="30.91" x2="123.16" y2="30.91"/>
	<line class="st0" x1="163.86" y1="132.66" x2="163.86" y2="122.48"/>
	<g>
		<path class="st1" d="M41.76,61.43c-6.78,0-10.18,3.39-10.18,10.17"/>
		<path class="st1" d="M31.59,122.48c0,6.78,3.39,10.17,10.18,10.17"/>
		<path class="st1" d="M62.11,51.26c0-6.78,2.37-10.18,7.12-10.18"/>
		<path class="st1" d="M51.94,71.61c-6.78,0-10.18,3.39-10.18,10.17"/>
		<path class="st1" d="M41.76,102.13c0,6.78,3.39,10.17,10.18,10.17"/>
		<path class="st1" d="M123.16,142.83c0,6.78,3.39,10.18,10.18,10.18"/>
		<path class="st1" d="M143.51,153.01c6.78,0,10.17-3.39,10.17-10.18"/>
		<path class="st1" d="M123.16,132.66c6.78,0,10.18-3.39,10.18-10.17"/>
		<path class="st1" d="M112.99,41.08c6.78,0,10.17,3.39,10.17,10.18"/>
		<path class="st1" d="M72.29,41.08c0-6.78,3.39-10.17,10.18-10.17"/>
		<path class="st1" d="M123.16,30.91c6.78,0,10.18,3.39,10.18,10.18"/>
		<path class="st1" d="M92.64,58.38c0-7.12,10.17-7.12,10.17,0"/>
		<path class="st1" d="M92.64,64.48c0,4.75-3.39,7.12-10.18,7.12"/>
		<path class="st1" d="M62.11,84.83c0,4.75,2.37,7.12,7.12,7.12"/>
		<path class="st1" d="M62.11,81.78c-6.78,0-10.18,3.39-10.18,10.18c0,6.78,3.39,10.18,10.18,10.18"/>
		<path class="st1" d="M72.29,115.36c0,4.75,3.39,7.12,10.18,7.12"/>
		<path class="st1" d="M92.64,122.48c6.78,0,10.17-3.39,10.17-10.18"/>
		<path class="st1" d="M163.86,122.48c0-6.78-3.39-10.18-10.18-10.18"/>
		<path class="st1" d="M150.64,142.83c-4.75,0-7.12-3.39-7.12-10.18"/>
		<path class="st1" d="M105.87,61.43c4.75,0,7.12,3.39,7.12,10.17"/>
		<path class="st1" d="M112.99,91.96c0,6.78-3.39,10.18-10.17,10.18"/>
		<path class="st1" d="M75.34,81.78c7.12,0,7.12,10.18,3.05,10.18"/>
		<path class="st1" d="M153.69,109.25c0-7.12-10.17-7.12-10.17,0"/>
		<line class="st0" x1="65.17" y1="61.43" x2="69.24" y2="61.43"/>
		<line class="st0" x1="62.11" y1="61.43" x2="62.11" y2="68.55"/>
		<line class="st0" x1="59.06" y1="61.43" x2="41.76" y2="61.43"/>
		<line class="st0" x1="31.59" y1="71.61" x2="31.59" y2="122.48"/>
		<line class="st0" x1="41.76" y1="132.66" x2="123.16" y2="132.66"/>
		<line class="st0" x1="62.11" y1="61.43" x2="62.11" y2="51.26"/>
		<line class="st0" x1="69.24" y1="41.08" x2="69.24" y2="41.08"/>
		<line class="st0" x1="75.34" y1="61.43" x2="92.64" y2="61.43"/>
		<line class="st0" x1="72.29" y1="61.43" x2="72.29" y2="68.55"/>
		<line class="st0" x1="72.29" y1="61.43" x2="72.29" y2="41.08"/>
		<line class="st0" x1="62.11" y1="71.61" x2="72.29" y2="71.61"/>
		<line class="st0" x1="62.11" y1="74.66" x2="62.11" y2="78.73"/>
		<line class="st0" x1="62.11" y1="71.61" x2="51.94" y2="71.61"/>
		<line class="st0" x1="41.76" y1="81.78" x2="41.76" y2="102.13"/>
		<line class="st0" x1="51.94" y1="112.31" x2="72.29" y2="112.31"/>
		<line class="st0" x1="123.16" y1="135.71" x2="123.16" y2="142.83"/>
		<line class="st0" x1="153.69" y1="142.83" x2="153.69" y2="142.83"/>
		<line class="st0" x1="123.16" y1="129.6" x2="123.16" y2="112.31"/>
		<line class="st0" x1="133.34" y1="122.48" x2="133.34" y2="115.36"/>
		<line class="st0" x1="75.34" y1="41.08" x2="112.99" y2="41.08"/>
		<line class="st0" x1="123.16" y1="51.26" x2="123.16" y2="112.31"/>
		<line class="st0" x1="133.34" y1="41.08" x2="133.34" y2="109.25"/>
		<line class="st0" x1="102.81" y1="58.38" x2="102.81" y2="61.43"/>
		<line class="st0" x1="92.64" y1="61.43" x2="99.76" y2="61.43"/>
		<line class="st0" x1="82.46" y1="71.61" x2="72.29" y2="71.61"/>
		<line class="st0" x1="72.29" y1="74.66" x2="72.29" y2="81.78"/>
		<line class="st0" x1="62.11" y1="81.78" x2="69.23" y2="81.78"/>
		<line class="st0" x1="69.23" y1="91.96" x2="69.23" y2="91.96"/>
		<line class="st0" x1="51.94" y1="91.96" x2="51.94" y2="91.96"/>
		<line class="st0" x1="62.11" y1="102.13" x2="72.29" y2="102.13"/>
		<line class="st0" x1="72.29" y1="109.25" x2="72.29" y2="105.18"/>
		<line class="st0" x1="72.29" y1="112.31" x2="99.76" y2="112.31"/>
		<line class="st0" x1="82.46" y1="122.48" x2="92.64" y2="122.48"/>
		<line class="st0" x1="102.81" y1="112.31" x2="102.81" y2="112.31"/>
		<line class="st0" x1="153.69" y1="112.31" x2="153.69" y2="112.31"/>
		<line class="st0" x1="143.51" y1="132.66" x2="143.51" y2="112.31"/>
		<line class="st0" x1="153.69" y1="142.83" x2="153.69" y2="115.36"/>
		<line class="st0" x1="120.11" y1="112.31" x2="105.86" y2="112.31"/>
		<polyline class="st0" points="126.21,112.31 133.34,112.31 140.46,112.31 		"/>
		<line class="st0" x1="112.99" y1="71.61" x2="112.99" y2="91.96"/>
		<line class="st0" x1="102.81" y1="102.13" x2="102.81" y2="102.13"/>
		<line class="st0" x1="102.81" y1="61.43" x2="102.81" y2="99.08"/>
		<line class="st0" x1="78.39" y1="91.96" x2="75.34" y2="91.96"/>
		<polyline class="st0" points="72.29,81.78 72.29,91.96 72.29,99.08 		"/>
		<line class="st0" x1="72.29" y1="102.13" x2="102.81" y2="102.13"/>
		<line class="st0" x1="102.81" y1="112.31" x2="102.81" y2="105.18"/>
		<line class="st0" x1="143.51" y1="109.25" x2="143.51" y2="112.31"/>
		<line class="st0" x1="153.69" y1="112.31" x2="146.56" y2="112.31"/>
	</g>
</g>
</svg>
