<?xml version="1.0" encoding="utf-8"?>
<!-- Generator: Adobe Illustrator 28.1.0, SVG Export Plug-In . SVG Version: 6.00 Build 0)  -->
<svg version="1.1" id="Layer_1" xmlns="http://www.w3.org/2000/svg" xmlns:xlink="http://www.w3.org/1999/xlink" x="0px" y="0px"
	 viewBox="0 0 178.89 180" style="enable-background:new 0 0 178.89 180;" xml:space="preserve">
<style type="text/css">
	.st0{fill:none;stroke:#000000;stroke-width:0.5;stroke-linecap:square;stroke-linejoin:round;stroke-miterlimit:10;}
	.st1{fill:none;stroke:#000000;stroke-width:0.5;stroke-miterlimit:10;}
</style>
<g>
	<path class="st1" d="M59.24,71.84c-3.37,0-5.06,2.81-5.06,8.43"/>
	<path class="st1" d="M62.62,71.84c0-5.62-2.81-8.43-8.43-8.43s-8.43,2.81-8.43,8.43"/>
	<path class="st1" d="M79.49,97.14c0,5.62-2.81,8.43-8.43,8.43"/>
	<path class="st1" d="M45.75,105.58c-5.62,0-8.43-2.81-8.43-8.43"/>
	<path class="st1" d="M37.31,88.71c0-5.62,1.69-8.43,5.06-8.43"/>
	<path class="st1" d="M62.62,83.65c0,5.06-8.43,5.06-8.43,0"/>
	<path class="st1" d="M62.62,80.27c5.62,0,8.43,2.81,8.43,8.43s-2.81,8.43-8.43,8.43"/>
	<path class="st1" d="M54.18,97.14c-5.62,0-8.43-2.81-8.43-8.43"/>
	<path class="st1" d="M37.31,54.97c-5.62,0-8.43,2.81-8.43,8.43"/>
	<path class="st1" d="M28.88,114.01c0,5.62,2.81,8.43,8.43,8.43"/>
	<path class="st1" d="M82.86,46.54c3.37,0,5.06,1.69,5.06,5.06"/>
	<path class="st1" d="M28.88,46.54c-5.62,0-8.43,2.81-8.43,8.43"/>
	<path class="st1" d="M20.45,122.44c0,5.62,2.81,8.43,8.43,8.43"/>
	<path class="st1" d="M79.49,46.54c0-5.62-2.81-8.43-8.43-8.43"/>
	<path class="st1" d="M20.45,38.1c-5.62,0-8.43,2.81-8.43,8.43"/>
	<path class="st1" d="M12.01,130.88c0,5.62,2.81,8.43,8.43,8.43"/>
	<path class="st1" d="M79.49,139.31c5.62,0,8.43-1.69,8.43-5.06"/>
	<path class="st1" d="M104.79,54.97c5.62,0,8.43,2.81,8.43,8.43"/>
	<path class="st1" d="M104.79,130.88c5.62,0,8.43-2.81,8.43-8.43"/>
	<path class="st1" d="M146.96,68.47c0-3.37,2.81-5.06,8.43-5.06"/>
	<g>
		<path class="st1" d="M155.39,63.4c5.62,0,8.43,2.81,8.43,8.43"/>
		<path class="st1" d="M163.83,122.44c0,5.62-2.81,8.43-8.43,8.43"/>
	</g>
	<path class="st1" d="M130.09,130.88c-5.62,0-8.43-1.69-8.43-5.06"/>
	<path class="st1" d="M146.96,71.84c8.43,0,8.43,8.43,3.37,8.43"/>
	<path class="st1" d="M104.79,88.71c-5.62,0-8.43,2.81-8.43,8.43"/>
	<path class="st1" d="M96.35,105.58c0,5.62,2.81,8.43,8.43,8.43"/>
	<path class="st1" d="M121.66,122.44c5.62,0,8.43-2.81,8.43-8.43"/>
	<path class="st1" d="M130.09,80.27c-5.62,0-8.43,2.81-8.43,8.43"/>
	<path class="st1" d="M146.96,80.27c0,5.62-2.81,8.43-8.43,8.43"/>
	<path class="st1" d="M113.22,97.14c-8.43,0-8.43,8.43,0,8.43"/>
	<path class="st1" d="M133.46,114.01c3.37,0,5.06-2.81,5.06-8.43s-2.81-8.43-8.43-8.43"/>
	<path class="st1" d="M130.09,114.01c0-5.62-1.69-8.43-5.06-8.43"/>
	<line class="st0" x1="65.99" y1="71.84" x2="79.49" y2="71.84"/>
	<line class="st0" x1="62.62" y1="71.84" x2="62.62" y2="76.9"/>
	<line class="st0" x1="54.18" y1="80.27" x2="54.18" y2="80.27"/>
	<line class="st0" x1="54.18" y1="63.41" x2="54.18" y2="63.41"/>
	<line class="st0" x1="45.75" y1="71.84" x2="45.75" y2="80.27"/>
	<line class="st0" x1="79.49" y1="75.21" x2="79.49" y2="97.14"/>
	<line class="st0" x1="71.05" y1="105.58" x2="45.75" y2="105.58"/>
	<line class="st0" x1="37.31" y1="97.14" x2="37.31" y2="88.71"/>
	<line class="st0" x1="42.37" y1="80.27" x2="42.37" y2="80.27"/>
	<line class="st0" x1="79.49" y1="68.47" x2="79.49" y2="58.35"/>
	<line class="st0" x1="79.49" y1="71.84" x2="87.92" y2="71.84"/>
	<line class="st0" x1="54.18" y1="83.65" x2="54.18" y2="80.28"/>
	<line class="st0" x1="62.62" y1="80.28" x2="57.56" y2="80.28"/>
	<line class="st0" x1="71.05" y1="88.71" x2="71.05" y2="88.71"/>
	<line class="st0" x1="62.62" y1="97.14" x2="54.18" y2="97.14"/>
	<line class="st0" x1="45.75" y1="88.71" x2="45.75" y2="80.28"/>
	<line class="st0" x1="50.81" y1="80.28" x2="49.12" y2="80.28"/>
	<line class="st0" x1="79.49" y1="54.97" x2="37.31" y2="54.97"/>
	<line class="st0" x1="28.88" y1="63.41" x2="28.88" y2="114.01"/>
	<line class="st0" x1="37.31" y1="122.45" x2="87.92" y2="122.45"/>
	<line class="st0" x1="79.49" y1="51.6" x2="79.49" y2="46.54"/>
	<line class="st0" x1="79.49" y1="54.97" x2="87.92" y2="54.97"/>
	<line class="st0" x1="87.92" y1="75.22" x2="87.92" y2="119.07"/>
	<line class="st0" x1="87.92" y1="68.47" x2="87.92" y2="58.35"/>
	<line class="st0" x1="87.92" y1="71.84" x2="109.85" y2="71.84"/>
	<line class="st0" x1="87.92" y1="125.82" x2="87.92" y2="127.51"/>
	<line class="st0" x1="87.92" y1="122.45" x2="109.85" y2="122.45"/>
	<line class="st0" x1="87.92" y1="51.6" x2="87.92" y2="51.6"/>
	<line class="st0" x1="76.11" y1="46.54" x2="28.88" y2="46.54"/>
	<line class="st0" x1="20.45" y1="54.97" x2="20.45" y2="122.45"/>
	<line class="st0" x1="28.88" y1="130.88" x2="87.92" y2="130.88"/>
	<line class="st0" x1="71.05" y1="38.11" x2="20.45" y2="38.11"/>
	<line class="st0" x1="12.01" y1="46.54" x2="12.01" y2="130.88"/>
	<line class="st0" x1="20.45" y1="139.32" x2="79.49" y2="139.32"/>
	<line class="st0" x1="87.92" y1="134.26" x2="87.92" y2="134.26"/>
	<line class="st0" x1="87.92" y1="54.98" x2="104.79" y2="54.98"/>
	<line class="st0" x1="113.22" y1="63.41" x2="113.22" y2="71.84"/>
	<line class="st0" x1="116.6" y1="71.84" x2="146.96" y2="71.84"/>
	<line class="st0" x1="113.22" y1="71.84" x2="113.22" y2="88.71"/>
	<line class="st0" x1="87.92" y1="130.88" x2="104.79" y2="130.88"/>
	<polyline class="st0" points="113.22,122.45 113.22,122.45 113.22,114.01 	"/>
	<line class="st0" x1="116.6" y1="122.45" x2="121.66" y2="122.45"/>
	<line class="st0" x1="146.96" y1="75.22" x2="146.96" y2="80.28"/>
	<line class="st0" x1="155.39" y1="63.41" x2="155.39" y2="63.41"/>
	<g>
		<line class="st0" x1="163.83" y1="71.84" x2="163.83" y2="122.44"/>
	</g>
	<line class="st0" x1="155.39" y1="130.88" x2="130.09" y2="130.88"/>
	<line class="st0" x1="121.66" y1="125.82" x2="121.66" y2="125.82"/>
	<line class="st0" x1="150.33" y1="80.27" x2="150.33" y2="80.27"/>
	<line class="st0" x1="109.85" y1="88.71" x2="104.79" y2="88.71"/>
	<line class="st0" x1="96.35" y1="97.14" x2="96.35" y2="105.58"/>
	<line class="st0" x1="104.79" y1="114.01" x2="109.85" y2="114.01"/>
	<line class="st0" x1="116.6" y1="88.71" x2="118.28" y2="88.71"/>
	<line class="st0" x1="113.22" y1="88.71" x2="113.22" y2="93.77"/>
	<line class="st0" x1="116.6" y1="114.01" x2="118.28" y2="114.01"/>
	<line class="st0" x1="113.22" y1="114.01" x2="113.22" y2="108.95"/>
	<line class="st0" x1="121.66" y1="119.07" x2="121.66" y2="114.01"/>
	<line class="st0" x1="130.09" y1="114.01" x2="130.09" y2="114.01"/>
	<line class="st0" x1="143.58" y1="80.27" x2="130.09" y2="80.27"/>
	<line class="st0" x1="121.66" y1="88.71" x2="121.66" y2="88.71"/>
	<line class="st0" x1="138.52" y1="88.71" x2="125.03" y2="88.71"/>
	<line class="st0" x1="121.66" y1="88.71" x2="121.66" y2="97.14"/>
	<line class="st0" x1="113.22" y1="100.52" x2="113.22" y2="102.2"/>
	<line class="st0" x1="113.22" y1="105.58" x2="113.22" y2="105.58"/>
	<line class="st0" x1="113.22" y1="97.14" x2="118.28" y2="97.14"/>
	<line class="st0" x1="125.03" y1="114.01" x2="126.72" y2="114.01"/>
	<line class="st0" x1="121.66" y1="114.01" x2="121.66" y2="105.58"/>
	<line class="st0" x1="113.22" y1="105.58" x2="118.28" y2="105.58"/>
	<line class="st0" x1="138.52" y1="105.58" x2="138.52" y2="105.58"/>
	<line class="st0" x1="130.09" y1="97.14" x2="125.03" y2="97.14"/>
	<line class="st0" x1="125.03" y1="105.58" x2="125.03" y2="105.58"/>
	<line class="st0" x1="121.66" y1="97.14" x2="121.66" y2="105.58"/>
</g>
</svg>
