<?xml version="1.0" encoding="utf-8"?>
<!-- Generator: Adobe Illustrator 28.1.0, SVG Export Plug-In . SVG Version: 6.00 Build 0)  -->
<svg version="1.1" id="Layer_1" xmlns="http://www.w3.org/2000/svg" xmlns:xlink="http://www.w3.org/1999/xlink" x="0px" y="0px"
	 viewBox="0 0 144 180" style="enable-background:new 0 0 144 180;" xml:space="preserve">
<style type="text/css">
	.st0{fill:none;stroke:#000000;stroke-width:0.5;stroke-miterlimit:10;}
	.st1{fill:none;stroke:#000000;stroke-width:0.5;stroke-linecap:square;stroke-linejoin:round;stroke-miterlimit:10;}
</style>
<g>
	<path class="st0" d="M81.14,99.75c0,13.57,13.57,13.57,13.57,4.07"/>
	<path class="st0" d="M67.57,95.68c0-6.33,3.16-9.5,9.5-9.5"/>
	<path class="st0" d="M81.14,86.19c0-9.04-4.52-13.57-13.57-13.57c-9.05,0-13.57,4.52-13.57,13.57"/>
	<path class="st0" d="M98.78,86.19c6.33,0,9.5,3.16,9.5,9.5"/>
	<path class="st0" d="M108.27,126.89c0,9.05-4.52,13.57-13.57,13.57"/>
	<path class="st0" d="M108.27,99.75c9.04,0,13.57-4.52,13.57-13.57"/>
	<path class="st0" d="M121.84,72.62c0-9.04-4.52-13.57-13.57-13.57"/>
	<path class="st0" d="M67.57,126.89c9.04,0,13.57,4.52,13.57,13.57"/>
	<path class="st0" d="M94.71,54.98c0-6.33-4.52-9.5-13.57-9.5"/>
	<path class="st0" d="M81.14,59.05c-9.05,0-13.57-3.17-13.57-9.5"/>
	<path class="st0" d="M81.14,140.45c0,13.57-13.57,13.57-13.57,4.07"/>
	<path class="st0" d="M67.57,140.45c-9.04,0-13.57-3.17-13.57-9.5"/>
	<path class="st0" d="M54.01,126.89c-9.05,0-13.57-4.52-13.57-13.57"/>
	<path class="st0" d="M40.44,99.75c-9.04,0-13.57-4.52-13.57-13.57"/>
	<path class="st0" d="M26.87,59.05c0-9.05,3.17-13.57,9.5-13.57"/>
	<path class="st0" d="M67.57,41.41c0-6.33-4.52-9.5-13.57-9.5s-13.57,4.52-13.57,13.57"/>
	<line class="st1" x1="85.21" y1="99.75" x2="94.71" y2="99.75"/>
	<line class="st1" x1="94.71" y1="103.82" x2="94.71" y2="103.82"/>
	<line class="st1" x1="77.07" y1="99.75" x2="67.57" y2="99.75"/>
	<line class="st1" x1="81.14" y1="99.75" x2="81.14" y2="86.19"/>
	<line class="st1" x1="94.71" y1="95.68" x2="94.71" y2="86.19"/>
	<line class="st1" x1="94.71" y1="99.75" x2="108.27" y2="99.75"/>
	<line class="st1" x1="77.07" y1="86.19" x2="77.07" y2="86.19"/>
	<line class="st1" x1="67.57" y1="103.82" x2="67.57" y2="122.82"/>
	<line class="st1" x1="67.57" y1="99.75" x2="54" y2="99.75"/>
	<line class="st1" x1="85.21" y1="86.19" x2="90.63" y2="86.19"/>
	<line class="st1" x1="67.57" y1="72.62" x2="67.57" y2="72.62"/>
	<line class="st1" x1="54" y1="86.19" x2="54" y2="95.69"/>
	<line class="st1" x1="108.27" y1="95.69" x2="108.27" y2="95.69"/>
	<line class="st1" x1="94.71" y1="86.19" x2="94.71" y2="63.12"/>
	<line class="st1" x1="108.27" y1="103.83" x2="108.27" y2="126.89"/>
	<line class="st1" x1="94.71" y1="140.46" x2="85.21" y2="140.46"/>
	<line class="st1" x1="121.84" y1="86.19" x2="121.84" y2="72.62"/>
	<line class="st1" x1="108.27" y1="59.06" x2="94.71" y2="59.06"/>
	<line class="st1" x1="81.14" y1="140.46" x2="81.14" y2="140.46"/>
	<line class="st1" x1="67.57" y1="130.96" x2="67.57" y2="136.39"/>
	<line class="st1" x1="67.57" y1="126.89" x2="54" y2="126.89"/>
	<line class="st1" x1="54" y1="103.83" x2="54" y2="122.82"/>
	<line class="st1" x1="54" y1="99.76" x2="40.44" y2="99.76"/>
	<line class="st1" x1="81.14" y1="45.49" x2="67.57" y2="45.49"/>
	<line class="st1" x1="94.7" y1="59.06" x2="81.14" y2="59.06"/>
	<line class="st1" x1="67.57" y1="49.56" x2="67.57" y2="49.56"/>
	<line class="st1" x1="77.07" y1="140.46" x2="67.57" y2="140.46"/>
	<line class="st1" x1="67.57" y1="144.53" x2="67.57" y2="144.53"/>
	<line class="st1" x1="54" y1="130.96" x2="54" y2="130.96"/>
	<line class="st1" x1="40.44" y1="113.32" x2="40.44" y2="103.82"/>
	<line class="st1" x1="26.87" y1="86.19" x2="26.87" y2="59.06"/>
	<line class="st1" x1="36.37" y1="45.49" x2="36.37" y2="45.49"/>
	<line class="st1" x1="40.44" y1="95.69" x2="40.44" y2="45.49"/>
	<g>
		<line class="st1" x1="54.01" y1="31.92" x2="54.01" y2="31.92"/>
	</g>
	<line class="st1" x1="40.44" y1="45.49" x2="40.44" y2="45.49"/>
	<line class="st1" x1="67.57" y1="45.49" x2="44.51" y2="45.49"/>
</g>
</svg>
