<?xml version="1.0" encoding="utf-8"?>
<!-- Generator: Adobe Illustrator 28.1.0, SVG Export Plug-In . SVG Version: 6.00 Build 0)  -->
<svg version="1.1" id="Layer_1" xmlns="http://www.w3.org/2000/svg" xmlns:xlink="http://www.w3.org/1999/xlink" x="0px" y="0px"
	 viewBox="0 0 178.89 180" style="enable-background:new 0 0 178.89 180;" xml:space="preserve">
<style type="text/css">
	.st0{fill:none;stroke:#000000;stroke-width:0.5;stroke-linecap:square;stroke-linejoin:round;stroke-miterlimit:10;}
	.st1{fill:none;stroke:#000000;stroke-width:0.5;stroke-miterlimit:10;}
</style>
<g>
	<path class="st1" d="M73.97,135.15c9.17,0,9.17-11.46,2.29-11.46"/>
	<path class="st1" d="M71.67,135.15c0,7.65-3.82,11.46-11.47,11.46c-7.64,0-11.46-3.06-11.46-9.17"/>
	<path class="st1" d="M69.38,123.69c-9.17,0-9.17-11.46,0-11.46"/>
	<path class="st1" d="M48.74,135.15c-7.64,0-11.46-3.82-11.46-11.46"/>
	<path class="st1" d="M37.28,100.76c0-7.64,3.06-11.46,9.17-11.46"/>
	<path class="st1" d="M71.67,109.93c0-6.11,3.82-9.17,11.47-9.17"/>
	<path class="st1" d="M71.67,112.22c7.64,0,11.47-3.06,11.47-9.17"/>
	<path class="st1" d="M48.74,89.29c0-7.64,3.82-11.47,11.46-11.47"/>
	<path class="st1" d="M83.14,100.76c11.46,0,11.46-11.46,2.29-11.46"/>
	<path class="st1" d="M83.14,43.43c0-7.64,3.82-11.46,11.46-11.46"/>
	<path class="st1" d="M129,31.97c7.64,0,11.46,3.82,11.46,11.46"/>
	<path class="st1" d="M140.46,77.83c0,7.64-3.82,11.47-11.46,11.47"/>
	<path class="st1" d="M117.53,89.29c-7.64,0-11.46-3.82-11.46-11.47"/>
	<path class="st1" d="M117.53,77.83c7.64,0,11.46-3.82,11.46-11.46"/>
	<path class="st1" d="M129,54.9c0-7.64-3.82-11.46-11.46-11.46"/>
	<path class="st1" d="M106.07,43.43c-7.64,0-11.47,3.82-11.47,11.46c0,7.64,3.82,11.46,11.47,11.46"/>
	<path class="st1" d="M106.07,64.07c0-9.17,11.46,2.29,0,2.29"/>
	<line class="st0" x1="76.26" y1="123.69" x2="73.97" y2="123.69"/>
	<g>
		<line class="st0" x1="60.21" y1="146.61" x2="60.21" y2="146.61"/>
	</g>
	<line class="st0" x1="48.74" y1="137.44" x2="48.74" y2="137.44"/>
	<line class="st0" x1="69.38" y1="135.15" x2="48.74" y2="135.15"/>
	<line class="st0" x1="71.67" y1="135.15" x2="71.67" y2="123.69"/>
	<line class="st0" x1="69.38" y1="112.22" x2="71.67" y2="112.22"/>
	<line class="st0" x1="71.67" y1="123.69" x2="71.67" y2="114.51"/>
	<line class="st0" x1="37.28" y1="123.69" x2="37.28" y2="100.76"/>
	<line class="st0" x1="46.45" y1="89.29" x2="46.45" y2="89.29"/>
	<line class="st0" x1="48.74" y1="132.86" x2="48.74" y2="89.29"/>
	<line class="st0" x1="83.14" y1="100.76" x2="83.14" y2="100.76"/>
	<line class="st0" x1="83.14" y1="103.05" x2="83.14" y2="103.05"/>
	<line class="st0" x1="60.21" y1="77.83" x2="83.14" y2="77.83"/>
	<line class="st0" x1="51.03" y1="89.29" x2="80.84" y2="89.29"/>
	<line class="st0" x1="83.14" y1="98.46" x2="83.14" y2="89.29"/>
	<line class="st0" x1="85.43" y1="89.29" x2="85.43" y2="89.29"/>
	<line class="st0" x1="83.14" y1="75.53" x2="83.14" y2="43.43"/>
	<line class="st0" x1="94.6" y1="31.97" x2="128.99" y2="31.97"/>
	<line class="st0" x1="140.46" y1="43.43" x2="140.46" y2="77.83"/>
	<line class="st0" x1="128.99" y1="89.29" x2="117.53" y2="89.29"/>
	<line class="st0" x1="106.07" y1="77.83" x2="106.07" y2="77.83"/>
	<line class="st0" x1="83.14" y1="77.83" x2="103.77" y2="77.83"/>
	<line class="st0" x1="83.14" y1="80.12" x2="83.14" y2="89.29"/>
	<line class="st0" x1="106.07" y1="77.83" x2="106.07" y2="68.65"/>
	<line class="st0" x1="108.36" y1="77.83" x2="117.53" y2="77.83"/>
	<line class="st0" x1="128.99" y1="66.36" x2="128.99" y2="54.9"/>
	<line class="st0" x1="117.53" y1="43.43" x2="106.07" y2="43.43"/>
	<line class="st0" x1="94.6" y1="54.9" x2="94.6" y2="54.9"/>
	<line class="st0" x1="106.07" y1="66.36" x2="106.07" y2="66.36"/>
</g>
</svg>
