<?xml version="1.0" encoding="utf-8"?>
<!-- Generator: Adobe Illustrator 28.1.0, SVG Export Plug-In . SVG Version: 6.00 Build 0)  -->
<svg version="1.1" id="Layer_1" xmlns="http://www.w3.org/2000/svg" xmlns:xlink="http://www.w3.org/1999/xlink" x="0px" y="0px"
	 viewBox="0 0 178.89 180" style="enable-background:new 0 0 178.89 180;" xml:space="preserve">
<style type="text/css">
	.st0{fill:none;stroke:#000000;stroke-width:0.5;stroke-linecap:square;stroke-linejoin:round;stroke-miterlimit:10;}
	.st1{fill:none;stroke:#000000;stroke-width:0.5;stroke-miterlimit:10;}
</style>
<g>
	<line class="st0" x1="27.6" y1="136.84" x2="27.6" y2="103.54"/>
	<g>
		<path class="st1" d="M57.57,114.64c-7.77,0-7.77,11.1-3.33,11.1"/>
		<path class="st1" d="M72,117.97c0,5.18-2.59,7.77-7.77,7.77"/>
		<path class="st1" d="M72,114.64c7.4,0,11.1,3.7,11.1,11.1"/>
		<path class="st1" d="M83.1,136.84c0,7.4-3.7,11.1-11.1,11.1"/>
		<path class="st1" d="M38.7,147.94c-7.4,0-11.1-3.7-11.1-11.1"/>
		<path class="st1" d="M27.6,103.54c0-7.4,3.7-11.1,11.1-11.1"/>
		<path class="st1" d="M49.8,92.44c7.4,0,11.1,2.59,11.1,7.77"/>
		<path class="st1" d="M60.9,125.74c0,7.4-3.7,11.1-11.1,11.1s-11.1-3.7-11.1-11.1"/>
		<path class="st1" d="M38.7,114.64c0-7.4,3.7-11.1,11.1-11.1"/>
		<path class="st1" d="M105.3,103.54c7.4,0,11.1-3.7,11.1-11.1"/>
		<path class="st1" d="M119.73,92.44c5.18,0,7.77-2.59,7.77-7.77"/>
		<path class="st1" d="M68.67,92.44c-5.18,0-7.77-3.7-7.77-11.1c0-7.4,3.7-11.1,11.1-11.1"/>
		<path class="st1" d="M127.5,59.14c0-7.4-3.7-11.1-11.1-11.1"/>
		<path class="st1" d="M127.5,81.34c7.4,0,11.1-3.7,11.1-11.1"/>
		<path class="st1" d="M138.6,36.94c0-7.4-3.7-11.1-11.1-11.1"/>
		<path class="st1" d="M94.2,25.84c-7.4,0-11.1,3.7-11.1,11.1"/>
		<path class="st1" d="M105.3,81.34c-7.4,0-11.1-2.59-11.1-7.77"/>
		<path class="st1" d="M72,59.14c0-7.4,2.59-11.1,7.77-11.1"/>
		<path class="st1" d="M116.4,44.71c0-5.18-3.7-7.77-11.1-7.77c-7.4,0-11.1,2.59-11.1,7.77"/>
		<path class="st1" d="M83.1,48.04c0,7.4,2.59,11.1,7.77,11.1"/>
		<path class="st1" d="M94.2,70.24c11.1,0,11.1-11.1,3.33-11.1"/>
		<line class="st0" x1="64.23" y1="114.64" x2="72" y2="114.64"/>
		<line class="st0" x1="60.9" y1="114.64" x2="60.9" y2="125.74"/>
		<line class="st0" x1="54.24" y1="125.74" x2="57.57" y2="125.74"/>
		<line class="st0" x1="60.9" y1="114.64" x2="60.9" y2="106.87"/>
		<line class="st0" x1="64.23" y1="125.74" x2="64.23" y2="125.74"/>
		<line class="st0" x1="72" y1="111.31" x2="72" y2="103.54"/>
		<line class="st0" x1="83.1" y1="125.74" x2="83.1" y2="136.84"/>
		<line class="st0" x1="72" y1="147.94" x2="38.7" y2="147.94"/>
		<line class="st0" x1="38.7" y1="92.44" x2="49.8" y2="92.44"/>
		<line class="st0" x1="60.9" y1="100.21" x2="60.9" y2="100.21"/>
		<line class="st0" x1="49.8" y1="136.84" x2="49.8" y2="136.84"/>
		<line class="st0" x1="38.7" y1="125.74" x2="38.7" y2="114.64"/>
		<polyline class="st0" points="49.8,103.54 60.9,103.54 68.67,103.54 		"/>
		<line class="st0" x1="75.33" y1="103.54" x2="105.3" y2="103.54"/>
		<line class="st0" x1="116.4" y1="92.44" x2="116.4" y2="92.44"/>
		<line class="st0" x1="72" y1="103.54" x2="72" y2="92.44"/>
		<line class="st0" x1="127.5" y1="84.67" x2="127.5" y2="84.67"/>
		<line class="st0" x1="113.07" y1="92.44" x2="75.33" y2="92.44"/>
		<line class="st0" x1="116.4" y1="92.44" x2="116.4" y2="81.34"/>
		<line class="st0" x1="60.9" y1="81.34" x2="60.9" y2="81.34"/>
		<line class="st0" x1="72" y1="70.24" x2="72" y2="70.24"/>
		<line class="st0" x1="72" y1="92.44" x2="72" y2="73.57"/>
		<line class="st0" x1="127.5" y1="78.01" x2="127.5" y2="59.14"/>
		<line class="st0" x1="116.4" y1="48.04" x2="116.4" y2="48.04"/>
		<line class="st0" x1="138.6" y1="70.24" x2="138.6" y2="36.94"/>
		<line class="st0" x1="127.5" y1="25.84" x2="94.2" y2="25.84"/>
		<line class="st0" x1="83.1" y1="36.94" x2="83.1" y2="48.04"/>
		<line class="st0" x1="127.5" y1="81.34" x2="119.73" y2="81.34"/>
		<line class="st0" x1="113.07" y1="81.34" x2="105.3" y2="81.34"/>
		<line class="st0" x1="94.2" y1="73.57" x2="94.2" y2="73.57"/>
		<line class="st0" x1="116.4" y1="81.34" x2="116.4" y2="51.37"/>
		<line class="st0" x1="72" y1="66.91" x2="72" y2="59.14"/>
		<line class="st0" x1="79.77" y1="48.04" x2="79.77" y2="48.04"/>
		<line class="st0" x1="72" y1="70.24" x2="94.2" y2="70.24"/>
		<line class="st0" x1="105.3" y1="36.94" x2="105.3" y2="36.94"/>
		<line class="st0" x1="94.2" y1="44.71" x2="94.2" y2="44.71"/>
		<line class="st0" x1="116.4" y1="48.04" x2="94.2" y2="48.04"/>
		<line class="st0" x1="86.43" y1="48.04" x2="94.2" y2="48.04"/>
		<line class="st0" x1="90.87" y1="59.14" x2="90.87" y2="59.14"/>
		<line class="st0" x1="94.2" y1="66.91" x2="94.2" y2="59.14"/>
		<line class="st0" x1="97.53" y1="59.14" x2="97.53" y2="59.14"/>
		<line class="st0" x1="94.2" y1="51.37" x2="94.2" y2="59.14"/>
	</g>
</g>
</svg>
