<?xml version="1.0" encoding="utf-8"?>
<!-- Generator: Adobe Illustrator 28.1.0, SVG Export Plug-In . SVG Version: 6.00 Build 0)  -->
<svg version="1.1" id="Layer_1" xmlns="http://www.w3.org/2000/svg" xmlns:xlink="http://www.w3.org/1999/xlink" x="0px" y="0px"
	 viewBox="0 0 178.89 180" style="enable-background:new 0 0 178.89 180;" xml:space="preserve">
<style type="text/css">
	.st0{fill:none;stroke:#000000;stroke-width:0.5;stroke-linecap:square;stroke-linejoin:round;stroke-miterlimit:10;}
	.st1{fill:none;stroke:#000000;stroke-width:0.5;stroke-miterlimit:10;}
</style>
<g>
	<path class="st1" d="M45.37,129.83c0,15.29,7.64,22.93,22.93,22.93c15.29,0,22.93-6.11,22.93-18.34"/>
	<path class="st1" d="M40.78,83.97c-12.23,0-18.34-7.64-18.34-22.93c0-15.29,7.64-22.93,22.93-22.93"/>
	<path class="st1" d="M68.3,38.12c15.29,0,22.93,7.64,22.93,22.93"/>
	<path class="st1" d="M45.37,83.97c0-22.93,22.93-22.93,22.93,0"/>
	<path class="st1" d="M68.3,106.9c0,15.29,7.64,22.93,22.93,22.93"/>
	<path class="st1" d="M137.09,129.83c15.29,0,22.93-7.64,22.93-22.93"/>
	<path class="st1" d="M160.02,83.97c0-15.29-7.64-22.93-22.93-22.93c-15.29,0-22.93,7.64-22.93,22.93"/>
	<path class="st1" d="M118.74,83.97c18.34,0-4.59,22.93-4.59,0"/>
	<line class="st0" x1="49.95" y1="83.97" x2="63.71" y2="83.97"/>
	<line class="st0" x1="45.37" y1="83.97" x2="45.37" y2="129.83"/>
	<line class="st0" x1="68.3" y1="152.76" x2="68.3" y2="152.76"/>
	<line class="st0" x1="91.23" y1="134.42" x2="91.23" y2="134.42"/>
	<line class="st0" x1="22.44" y1="61.04" x2="22.44" y2="61.04"/>
	<line class="st0" x1="45.37" y1="38.12" x2="68.3" y2="38.12"/>
	<line class="st0" x1="91.23" y1="61.04" x2="91.23" y2="83.97"/>
	<line class="st0" x1="68.3" y1="83.97" x2="68.3" y2="83.97"/>
	<line class="st0" x1="72.88" y1="83.97" x2="86.64" y2="83.97"/>
	<line class="st0" x1="68.3" y1="83.97" x2="68.3" y2="106.9"/>
	<line class="st0" x1="91.23" y1="129.83" x2="91.23" y2="129.83"/>
	<line class="st0" x1="91.23" y1="125.25" x2="91.23" y2="83.97"/>
	<line class="st0" x1="91.23" y1="129.83" x2="137.09" y2="129.83"/>
	<line class="st0" x1="160.02" y1="106.9" x2="160.02" y2="83.97"/>
	<line class="st0" x1="137.09" y1="61.04" x2="137.09" y2="61.04"/>
	<line class="st0" x1="114.16" y1="83.97" x2="114.16" y2="83.97"/>
	<line class="st0" x1="95.81" y1="83.97" x2="109.57" y2="83.97"/>
	<line class="st0" x1="114.16" y1="83.97" x2="114.16" y2="83.97"/>
</g>
</svg>
