<?xml version="1.0" encoding="utf-8"?>
<!-- Generator: Adobe Illustrator 28.1.0, SVG Export Plug-In . SVG Version: 6.00 Build 0)  -->
<svg version="1.1" id="Layer_1" xmlns="http://www.w3.org/2000/svg" xmlns:xlink="http://www.w3.org/1999/xlink" x="0px" y="0px"
	 viewBox="0 0 178.89 180" style="enable-background:new 0 0 178.89 180;" xml:space="preserve">
<style type="text/css">
	.st0{fill:none;stroke:#000000;stroke-width:0.5;stroke-linecap:square;stroke-linejoin:round;stroke-miterlimit:10;}
	.st1{fill:none;stroke:#000000;stroke-width:0.5;stroke-miterlimit:10;}
</style>
<g>
	<path class="st1" d="M24.81,43.31c-4.75,0-7.12,3.39-7.12,10.18c0,6.78,3.39,10.17,10.18,10.17"/>
	<path class="st1" d="M27.86,43.31c0-6.78,3.39-10.18,10.17-10.18c6.78,0,10.17,3.39,10.17,10.18"/>
	<path class="st1" d="M51.26,43.31c7.12,0,7.12,10.18,0,10.18"/>
	<path class="st1" d="M27.86,66.71c0,7.12,10.17,7.12,10.17,0"/>
	<path class="st1" d="M48.21,53.48c-6.78,0-10.17,3.39-10.17,10.17"/>
	<path class="st1" d="M48.21,134.88c0,6.79,3.39,10.18,10.18,10.18"/>
	<path class="st1" d="M68.56,60.6c0-4.75,3.39-7.12,10.17-7.12"/>
	<path class="st1" d="M119.44,53.48c6.78,0,10.17,3.39,10.17,10.17"/>
	<path class="st1" d="M68.56,148.11c0,4.75,3.39,7.12,10.17,7.12"/>
	<path class="st1" d="M129.61,155.23c6.78,0,10.17-3.39,10.17-10.18"/>
	<path class="st1" d="M119.44,145.06c6.78,0,10.17-3.39,10.17-10.18"/>
	<path class="st1" d="M65.51,73.83c-4.75,0-7.12,3.39-7.12,10.17"/>
	<path class="st1" d="M58.39,104.36c0,6.78,3.39,10.18,10.18,10.18"/>
	<path class="st1" d="M139.79,63.66c6.78,0,10.17,3.39,10.17,10.18"/>
	<path class="st1" d="M149.96,94.18c0,6.78-3.39,10.17-10.17,10.17"/>
	<path class="st1" d="M139.79,84.01c0-6.78-2.37-10.17-7.12-10.17"/>
	<path class="st1" d="M78.74,124.71c0,6.78,3.39,10.17,10.17,10.17"/>
	<path class="st1" d="M99.09,134.88c6.78,0,10.18-3.39,10.18-10.17"/>
	<path class="st1" d="M78.74,94.18c0-6.78,3.39-10.18,10.17-10.18"/>
	<path class="st1" d="M109.26,84.01c6.78,0,10.18,3.39,10.18,10.18"/>
	<path class="st1" d="M119.44,104.36c0,6.78-2.37,10.18-7.12,10.18"/>
	<path class="st1" d="M88.91,117.58c0,7.12,10.17,7.12,10.17,3.05"/>
	<path class="st1" d="M88.91,104.36c0-6.78,3.39-10.17,10.17-10.17c6.78,0,10.18,2.37,10.18,7.12"/>
	<path class="st1" d="M109.26,104.36c-6.78,0-10.18,2.38-10.18,7.12"/>
	<line class="st0" x1="30.91" y1="43.31" x2="45.16" y2="43.31"/>
	<line class="st0" x1="27.86" y1="43.31" x2="27.86" y2="60.6"/>
	<line class="st0" x1="17.69" y1="53.48" x2="17.69" y2="53.48"/>
	<line class="st0" x1="27.86" y1="63.66" x2="27.86" y2="63.66"/>
	<line class="st0" x1="48.21" y1="43.31" x2="48.21" y2="43.31"/>
	<line class="st0" x1="51.26" y1="53.48" x2="48.21" y2="53.48"/>
	<line class="st0" x1="48.21" y1="43.31" x2="48.21" y2="50.43"/>
	<line class="st0" x1="27.86" y1="63.66" x2="34.98" y2="63.66"/>
	<line class="st0" x1="38.04" y1="66.71" x2="38.04" y2="63.66"/>
	<line class="st0" x1="48.21" y1="56.53" x2="48.21" y2="63.66"/>
	<line class="st0" x1="38.04" y1="63.66" x2="38.04" y2="63.66"/>
	<line class="st0" x1="41.09" y1="63.66" x2="45.16" y2="63.66"/>
	<line class="st0" x1="51.26" y1="63.66" x2="68.56" y2="63.66"/>
	<line class="st0" x1="48.21" y1="63.66" x2="48.21" y2="134.88"/>
	<line class="st0" x1="58.39" y1="145.06" x2="68.56" y2="145.06"/>
	<line class="st0" x1="68.56" y1="66.71" x2="68.56" y2="73.83"/>
	<line class="st0" x1="78.74" y1="53.48" x2="119.44" y2="53.48"/>
	<line class="st0" x1="129.61" y1="63.66" x2="129.61" y2="63.66"/>
	<line class="st0" x1="68.56" y1="63.66" x2="126.56" y2="63.66"/>
	<line class="st0" x1="78.74" y1="155.23" x2="129.61" y2="155.23"/>
	<line class="st0" x1="139.79" y1="145.06" x2="139.79" y2="107.41"/>
	<line class="st0" x1="68.56" y1="142" x2="68.56" y2="117.58"/>
	<line class="st0" x1="68.56" y1="145.06" x2="119.44" y2="145.06"/>
	<line class="st0" x1="129.61" y1="134.88" x2="129.61" y2="104.36"/>
	<line class="st0" x1="58.39" y1="84.01" x2="58.39" y2="104.36"/>
	<line class="st0" x1="68.56" y1="114.53" x2="68.56" y2="114.53"/>
	<line class="st0" x1="71.61" y1="73.83" x2="126.56" y2="73.83"/>
	<line class="st0" x1="68.56" y1="73.83" x2="68.56" y2="111.48"/>
	<line class="st0" x1="132.66" y1="63.66" x2="139.79" y2="63.66"/>
	<line class="st0" x1="149.96" y1="73.83" x2="149.96" y2="94.18"/>
	<line class="st0" x1="139.79" y1="104.36" x2="139.79" y2="104.36"/>
	<line class="st0" x1="129.61" y1="63.66" x2="129.61" y2="73.83"/>
	<line class="st0" x1="139.79" y1="101.3" x2="139.79" y2="84.01"/>
	<line class="st0" x1="132.66" y1="73.83" x2="132.66" y2="73.83"/>
	<line class="st0" x1="139.79" y1="104.36" x2="132.66" y2="104.36"/>
	<line class="st0" x1="68.56" y1="114.53" x2="75.68" y2="114.53"/>
	<line class="st0" x1="126.56" y1="104.36" x2="122.49" y2="104.36"/>
	<line class="st0" x1="129.61" y1="104.36" x2="129.61" y2="73.83"/>
	<line class="st0" x1="81.79" y1="114.53" x2="88.91" y2="114.53"/>
	<line class="st0" x1="78.74" y1="114.53" x2="78.74" y2="124.71"/>
	<line class="st0" x1="88.91" y1="134.88" x2="99.09" y2="134.88"/>
	<line class="st0" x1="109.26" y1="124.71" x2="109.26" y2="114.53"/>
	<line class="st0" x1="78.74" y1="114.53" x2="78.74" y2="94.18"/>
	<line class="st0" x1="88.91" y1="84.01" x2="109.26" y2="84.01"/>
	<line class="st0" x1="119.44" y1="94.18" x2="119.44" y2="104.36"/>
	<line class="st0" x1="112.31" y1="114.53" x2="112.31" y2="114.53"/>
	<line class="st0" x1="116.38" y1="104.36" x2="109.26" y2="104.36"/>
	<line class="st0" x1="99.09" y1="120.64" x2="99.09" y2="117.58"/>
	<line class="st0" x1="88.91" y1="111.48" x2="88.91" y2="104.36"/>
	<line class="st0" x1="99.09" y1="94.18" x2="99.09" y2="94.18"/>
	<line class="st0" x1="109.26" y1="101.3" x2="109.26" y2="101.3"/>
	<line class="st0" x1="88.91" y1="114.53" x2="99.09" y2="114.53"/>
	<line class="st0" x1="106.21" y1="114.53" x2="99.09" y2="114.53"/>
	<line class="st0" x1="109.26" y1="114.53" x2="109.26" y2="107.41"/>
	<line class="st0" x1="99.09" y1="111.48" x2="99.09" y2="111.48"/>
</g>
</svg>
