<?xml version="1.0" encoding="utf-8"?>
<!-- Generator: Adobe Illustrator 28.1.0, SVG Export Plug-In . SVG Version: 6.00 Build 0)  -->
<svg version="1.1" id="Layer_1" xmlns="http://www.w3.org/2000/svg" xmlns:xlink="http://www.w3.org/1999/xlink" x="0px" y="0px"
	 viewBox="0 0 178.89 180" style="enable-background:new 0 0 178.89 180;" xml:space="preserve">
<style type="text/css">
	.st0{fill:none;stroke:#000000;stroke-width:0.5;stroke-linecap:square;stroke-linejoin:round;stroke-miterlimit:10;}
	.st1{fill:none;stroke:#000000;stroke-width:0.5;stroke-miterlimit:10;}
</style>
<g>
	<path class="st1" d="M67.58,66.09c-4.46,0-4.46,7.44,0,7.44"/>
	<path class="st1" d="M70.55,66.09c0-4.96,2.48-7.44,7.44-7.44"/>
	<path class="st1" d="M85.43,58.66c4.96,0,7.43,1.49,7.43,4.46"/>
	<path class="st1" d="M92.86,66.09c4.96,0,7.44,2.48,7.44,7.44"/>
	<path class="st1" d="M89.89,80.96c-2.97,0-4.46,1.49-4.46,4.46"/>
	<path class="st1" d="M107.73,58.66c0-4.96-2.48-7.43-7.43-7.43"/>
	<path class="st1" d="M63.12,51.22c-4.96,0-7.43,2.48-7.43,7.43"/>
	<path class="st1" d="M107.73,73.53c4.96,0,7.44-2.48,7.44-7.44"/>
	<path class="st1" d="M115.17,51.22c0-4.96-2.48-7.44-7.44-7.44"/>
	<path class="st1" d="M55.68,43.79c-4.96,0-7.43,2.48-7.43,7.44"/>
	<path class="st1" d="M77.99,95.84c0-4.96,2.48-7.44,7.44-7.44"/>
	<path class="st1" d="M77.99,95.84c0,4.96-2.48,7.44-7.44,7.44"/>
	<path class="st1" d="M70.55,106.25c0,2.98,2.48,4.46,7.44,4.46"/>
	<path class="st1" d="M92.86,88.4c0,4.96-2.48,7.44-7.43,7.44"/>
	<path class="st1" d="M45.27,95.84c-2.97,0-4.46-2.48-4.46-7.44"/>
	<path class="st1" d="M40.81,43.79c0-4.96,2.48-7.43,7.44-7.43"/>
	<path class="st1" d="M115.17,36.35c4.96,0,7.43,2.48,7.43,7.43"/>
	<path class="st1" d="M48.25,95.84c0,4.96,2.48,7.44,7.43,7.44"/>
	<path class="st1" d="M115.17,88.4c4.96,0,7.43-1.49,7.43-4.46"/>
	<path class="st1" d="M107.73,103.27c0,4.96-2.48,7.43-7.43,7.43"/>
	<path class="st1" d="M122.6,80.96c4.96,0,7.44,2.48,7.44,7.43"/>
	<path class="st1" d="M130.04,133.01c0,4.96-2.48,7.43-7.44,7.43"/>
	<path class="st1" d="M100.3,113.68c0,2.97-2.48,4.46-7.44,4.46"/>
	<path class="st1" d="M85.43,118.14c0,4.96-2.48,7.43-7.44,7.43"/>
	<path class="st1" d="M48.25,118.14c-4.96,0-7.44,1.49-7.44,4.46"/>
	<path class="st1" d="M55.68,143.42c0,4.46-7.43,4.46-7.43,0"/>
	<path class="st1" d="M40.81,125.58c-7.44,0-7.44,7.44-2.97,7.44"/>
	<path class="st1" d="M45.27,140.45c-2.97,0-4.46-2.48-4.46-7.43"/>
	<path class="st1" d="M48.25,140.45c0-4.96-1.49-7.43-4.46-7.43"/>
	<line class="st0" x1="73.53" y1="66.09" x2="92.86" y2="66.09"/>
	<line class="st0" x1="70.55" y1="66.09" x2="70.55" y2="70.56"/>
	<line class="st0" x1="67.58" y1="73.53" x2="70.55" y2="73.53"/>
	<line class="st0" x1="77.99" y1="58.66" x2="85.43" y2="58.66"/>
	<line class="st0" x1="92.86" y1="63.12" x2="92.86" y2="63.12"/>
	<line class="st0" x1="92.86" y1="69.07" x2="92.86" y2="73.53"/>
	<line class="st0" x1="100.3" y1="73.53" x2="100.3" y2="73.53"/>
	<line class="st0" x1="70.55" y1="73.53" x2="89.89" y2="73.53"/>
	<line class="st0" x1="70.55" y1="76.5" x2="70.55" y2="92.86"/>
	<line class="st0" x1="95.84" y1="73.53" x2="97.32" y2="73.53"/>
	<line class="st0" x1="92.86" y1="73.53" x2="92.86" y2="80.96"/>
	<line class="st0" x1="103.27" y1="73.53" x2="107.73" y2="73.53"/>
	<line class="st0" x1="100.3" y1="73.53" x2="100.3" y2="77.99"/>
	<line class="st0" x1="70.55" y1="95.84" x2="75.02" y2="95.84"/>
	<line class="st0" x1="70.55" y1="98.81" x2="70.55" y2="100.3"/>
	<line class="st0" x1="70.55" y1="95.84" x2="58.66" y2="95.84"/>
	<line class="st0" x1="85.43" y1="85.43" x2="85.43" y2="85.43"/>
	<line class="st0" x1="95.84" y1="80.96" x2="100.3" y2="80.96"/>
	<line class="st0" x1="92.86" y1="80.96" x2="92.86" y2="88.4"/>
	<line class="st0" x1="107.73" y1="76.5" x2="107.73" y2="77.99"/>
	<line class="st0" x1="107.73" y1="70.56" x2="107.73" y2="58.66"/>
	<line class="st0" x1="100.3" y1="51.22" x2="63.12" y2="51.22"/>
	<line class="st0" x1="55.68" y1="58.66" x2="55.68" y2="95.84"/>
	<line class="st0" x1="115.17" y1="66.09" x2="115.17" y2="51.22"/>
	<line class="st0" x1="107.73" y1="43.79" x2="55.68" y2="43.79"/>
	<line class="st0" x1="48.25" y1="51.22" x2="48.25" y2="95.84"/>
	<line class="st0" x1="100.3" y1="83.94" x2="100.3" y2="85.43"/>
	<line class="st0" x1="100.3" y1="80.96" x2="107.73" y2="80.96"/>
	<line class="st0" x1="85.43" y1="88.4" x2="85.43" y2="88.4"/>
	<line class="st0" x1="80.97" y1="95.84" x2="85.43" y2="95.84"/>
	<line class="st0" x1="70.55" y1="103.27" x2="70.55" y2="103.27"/>
	<line class="st0" x1="77.99" y1="110.71" x2="85.43" y2="110.71"/>
	<line class="st0" x1="70.55" y1="103.27" x2="55.68" y2="103.27"/>
	<line class="st0" x1="52.71" y1="95.84" x2="51.22" y2="95.84"/>
	<line class="st0" x1="55.68" y1="95.84" x2="55.68" y2="100.3"/>
	<line class="st0" x1="85.43" y1="91.37" x2="85.43" y2="92.86"/>
	<line class="st0" x1="85.43" y1="88.4" x2="89.89" y2="88.4"/>
	<line class="st0" x1="95.84" y1="88.4" x2="100.3" y2="88.4"/>
	<line class="st0" x1="85.43" y1="95.84" x2="85.43" y2="95.84"/>
	<line class="st0" x1="107.73" y1="83.94" x2="107.73" y2="88.4"/>
	<line class="st0" x1="107.73" y1="80.96" x2="122.6" y2="80.96"/>
	<line class="st0" x1="40.81" y1="88.4" x2="40.81" y2="43.79"/>
	<line class="st0" x1="48.25" y1="36.35" x2="115.17" y2="36.35"/>
	<line class="st0" x1="122.6" y1="43.79" x2="122.6" y2="77.99"/>
	<line class="st0" x1="55.68" y1="103.27" x2="55.68" y2="103.27"/>
	<line class="st0" x1="100.3" y1="91.37" x2="100.3" y2="107.73"/>
	<line class="st0" x1="100.3" y1="88.4" x2="104.76" y2="88.4"/>
	<line class="st0" x1="85.43" y1="98.81" x2="85.43" y2="107.73"/>
	<line class="st0" x1="85.43" y1="113.68" x2="85.43" y2="118.14"/>
	<line class="st0" x1="85.43" y1="110.71" x2="100.3" y2="110.71"/>
	<line class="st0" x1="55.68" y1="106.25" x2="55.68" y2="115.17"/>
	<line class="st0" x1="110.71" y1="88.4" x2="115.17" y2="88.4"/>
	<line class="st0" x1="122.6" y1="83.94" x2="122.6" y2="83.94"/>
	<line class="st0" x1="107.73" y1="88.4" x2="107.73" y2="103.27"/>
	<line class="st0" x1="100.3" y1="110.71" x2="100.3" y2="110.71"/>
	<line class="st0" x1="130.04" y1="88.4" x2="130.04" y2="133.01"/>
	<line class="st0" x1="122.6" y1="140.45" x2="55.68" y2="140.45"/>
	<line class="st0" x1="92.86" y1="118.14" x2="88.4" y2="118.14"/>
	<line class="st0" x1="82.45" y1="118.14" x2="55.68" y2="118.14"/>
	<line class="st0" x1="77.99" y1="125.58" x2="58.66" y2="125.58"/>
	<line class="st0" x1="55.68" y1="121.12" x2="55.68" y2="125.58"/>
	<line class="st0" x1="55.68" y1="118.14" x2="48.25" y2="118.14"/>
	<line class="st0" x1="40.81" y1="122.6" x2="40.81" y2="122.6"/>
	<line class="st0" x1="55.68" y1="137.47" x2="55.68" y2="125.58"/>
	<line class="st0" x1="48.25" y1="143.42" x2="48.25" y2="140.45"/>
	<line class="st0" x1="55.68" y1="140.45" x2="51.22" y2="140.45"/>
	<line class="st0" x1="52.71" y1="125.58" x2="40.81" y2="125.58"/>
	<line class="st0" x1="40.81" y1="128.55" x2="40.81" y2="133.01"/>
	<line class="st0" x1="37.84" y1="133.01" x2="37.84" y2="133.01"/>
	<line class="st0" x1="40.81" y1="133.01" x2="40.81" y2="133.01"/>
	<line class="st0" x1="43.79" y1="133.01" x2="43.79" y2="133.01"/>
</g>
</svg>
