<?xml version="1.0" encoding="utf-8"?>
<!-- Generator: Adobe Illustrator 28.1.0, SVG Export Plug-In . SVG Version: 6.00 Build 0)  -->
<svg version="1.1" id="Layer_1" xmlns="http://www.w3.org/2000/svg" xmlns:xlink="http://www.w3.org/1999/xlink" x="0px" y="0px"
	 viewBox="0 0 178.89 180" style="enable-background:new 0 0 178.89 180;" xml:space="preserve">
<style type="text/css">
	.st0{fill:none;stroke:#000000;stroke-width:0.5;stroke-linecap:square;stroke-linejoin:round;stroke-miterlimit:10;}
	.st1{fill:none;stroke:#000000;stroke-width:0.5;stroke-miterlimit:10;}
</style>
<g>
	<path class="st1" d="M106.98,107.24c0,9.04-4.52,13.57-13.57,13.57c-9.05,0-13.57-4.52-13.57-13.57"/>
	<path class="st1" d="M102.91,107.24c-9.5,0-9.5-13.57,0-13.57"/>
	<path class="st1" d="M124.62,107.24c6.33,0,9.5-4.52,9.5-13.57"/>
	<path class="st1" d="M120.55,107.24c0-9.04-4.52-13.57-13.57-13.57"/>
	<path class="st1" d="M79.85,76.04c0-6.33,4.52-9.5,13.57-9.5"/>
	<path class="st1" d="M134.12,80.11c0-9.04-4.52-13.57-13.57-13.57"/>
	<path class="st1" d="M138.19,80.11c6.33,0,9.5,4.52,9.5,13.57"/>
	<path class="st1" d="M147.68,120.81c0,9.04-4.52,13.57-13.57,13.57"/>
	<path class="st1" d="M120.55,138.45c0,6.33-4.52,9.5-13.57,9.5"/>
	<path class="st1" d="M79.85,147.94c-9.04,0-13.57-4.52-13.57-13.57"/>
	<path class="st1" d="M106.98,66.54c0-9.04-4.52-13.57-13.57-13.57"/>
	<path class="st1" d="M62.21,134.38c-6.33,0-9.5-4.52-9.5-13.57"/>
	<path class="st1" d="M48.65,80.11c-6.33,0-9.5-4.52-9.5-13.57"/>
	<path class="st1" d="M66.29,52.98c0-9.04-4.52-13.57-13.57-13.57"/>
	<path class="st1" d="M39.15,48.91c0-6.33,4.52-9.5,13.57-9.5"/>
	<path class="st1" d="M39.15,52.98c-9.04,0-13.57-4.52-13.57-13.57c0-9.04,4.52-13.57,13.57-13.57c9.04,0,13.57,3.17,13.57,9.5"/>
	<line class="st0" x1="111.05" y1="107.24" x2="116.48" y2="107.24"/>
	<line class="st0" x1="93.42" y1="120.81" x2="93.42" y2="120.81"/>
	<line class="st0" x1="79.85" y1="107.24" x2="79.85" y2="84.18"/>
	<line class="st0" x1="102.91" y1="93.68" x2="106.98" y2="93.68"/>
	<line class="st0" x1="106.98" y1="107.24" x2="106.98" y2="97.75"/>
	<line class="st0" x1="134.12" y1="93.68" x2="134.12" y2="80.11"/>
	<line class="st0" x1="120.55" y1="107.24" x2="120.55" y2="130.31"/>
	<line class="st0" x1="106.98" y1="93.68" x2="106.98" y2="93.68"/>
	<line class="st0" x1="79.85" y1="80.11" x2="70.35" y2="80.11"/>
	<line class="st0" x1="93.42" y1="66.54" x2="102.91" y2="66.54"/>
	<line class="st0" x1="79.85" y1="80.11" x2="102.91" y2="80.11"/>
	<line class="st0" x1="106.98" y1="89.61" x2="106.98" y2="80.11"/>
	<line class="st0" x1="130.05" y1="80.11" x2="111.05" y2="80.11"/>
	<line class="st0" x1="120.55" y1="66.54" x2="111.05" y2="66.54"/>
	<line class="st0" x1="147.68" y1="93.68" x2="147.68" y2="120.81"/>
	<line class="st0" x1="134.12" y1="134.38" x2="120.55" y2="134.38"/>
	<line class="st0" x1="106.98" y1="147.94" x2="79.85" y2="147.94"/>
	<line class="st0" x1="66.28" y1="134.38" x2="66.28" y2="134.38"/>
	<line class="st0" x1="120.55" y1="134.38" x2="70.35" y2="134.38"/>
	<line class="st0" x1="62.21" y1="80.11" x2="56.79" y2="80.11"/>
	<line class="st0" x1="66.28" y1="80.11" x2="66.28" y2="52.98"/>
	<line class="st0" x1="66.28" y1="80.11" x2="66.28" y2="134.38"/>
	<line class="st0" x1="93.42" y1="52.98" x2="70.35" y2="52.98"/>
	<line class="st0" x1="106.98" y1="66.54" x2="106.98" y2="80.11"/>
	<line class="st0" x1="52.72" y1="120.81" x2="52.72" y2="80.11"/>
	<line class="st0" x1="39.15" y1="66.54" x2="39.15" y2="57.05"/>
	<line class="st0" x1="52.72" y1="80.11" x2="52.72" y2="52.98"/>
	<line class="st0" x1="62.21" y1="52.98" x2="56.79" y2="52.98"/>
	<line class="st0" x1="52.72" y1="39.41" x2="52.72" y2="39.41"/>
	<line class="st0" x1="39.15" y1="52.98" x2="48.65" y2="52.98"/>
	<line class="st0" x1="25.58" y1="39.41" x2="25.58" y2="39.41"/>
	<line class="st0" x1="39.15" y1="25.84" x2="39.15" y2="25.84"/>
	<line class="st0" x1="52.72" y1="35.34" x2="52.72" y2="35.34"/>
	<line class="st0" x1="52.72" y1="52.98" x2="52.72" y2="43.48"/>
</g>
</svg>
